<svg width="183" height="184" viewBox="0 0 183 184" fill="none" xmlns="http://www.w3.org/2000/svg">
<path d="M178.085 105.6C178.079 105.729 178.03 105.837 177.936 105.924C177.852 106.01 177.756 106.051 177.646 106.046C177.576 106.043 177.501 106.025 177.423 105.992L168.031 101.584C167.943 101.54 167.871 101.477 167.814 101.395C167.768 101.313 167.746 101.227 167.75 101.137C167.754 101.047 167.782 100.963 167.836 100.885C167.889 100.818 167.961 100.766 168.053 100.729L177.768 97.1485C177.83 97.1211 177.91 97.1095 178.01 97.1137C178.14 97.1192 178.243 97.1686 178.319 97.262C178.395 97.3553 178.431 97.4569 178.426 97.5668C178.417 97.7766 178.301 97.9218 178.077 98.0024L169.292 101.247L177.803 105.167C177.891 105.221 177.958 105.284 178.005 105.356C178.062 105.438 178.088 105.52 178.085 105.6Z" fill="white"/>
<path d="M165.819 111.673C165.695 111.632 165.6 111.557 165.534 111.448C165.468 111.339 165.451 111.222 165.482 111.095C165.516 110.96 165.582 110.857 165.681 110.789C165.788 110.733 165.909 110.722 166.045 110.755L175.336 113.047C175.472 113.081 175.568 113.151 175.624 113.258C175.69 113.366 175.706 113.489 175.673 113.625C175.642 113.751 175.572 113.847 175.463 113.913C175.354 113.979 175.236 113.996 175.11 113.965L165.819 111.673Z" fill="white"/>
<path d="M171.435 126.664C171.391 126.787 171.312 126.876 171.197 126.93C171.092 126.989 170.987 126.999 170.884 126.963C170.818 126.939 170.752 126.9 170.686 126.845L163.001 119.877C162.93 119.809 162.879 119.727 162.849 119.632C162.829 119.54 162.833 119.451 162.863 119.366C162.894 119.282 162.945 119.21 163.019 119.151C163.09 119.102 163.174 119.073 163.272 119.066L173.611 118.492C173.678 118.484 173.758 118.497 173.852 118.53C173.975 118.573 174.059 118.651 174.104 118.762C174.15 118.874 174.154 118.981 174.117 119.085C174.047 119.283 173.893 119.388 173.656 119.399L164.305 119.924L171.292 126.168C171.36 126.246 171.406 126.325 171.43 126.408C171.46 126.504 171.461 126.589 171.435 126.664Z" fill="white"/>
<path d="M158.396 139.365C157.505 138.848 156.813 138.198 156.32 137.414C155.827 136.63 155.568 135.792 155.543 134.898C155.527 134.01 155.763 133.147 156.25 132.308C156.737 131.469 157.371 130.837 158.15 130.411C158.938 129.99 159.795 129.799 160.72 129.839C161.645 129.879 162.553 130.158 163.444 130.675C164.343 131.197 165.039 131.85 165.532 132.634C166.025 133.418 166.28 134.254 166.296 135.142C166.312 136.03 166.076 136.894 165.589 137.732C165.102 138.571 164.469 139.204 163.689 139.63C162.91 140.056 162.057 140.249 161.132 140.209C160.207 140.169 159.295 139.888 158.396 139.365ZM158.878 138.535C159.63 138.972 160.388 139.21 161.152 139.249C161.919 139.302 162.623 139.155 163.263 138.81C163.898 138.473 164.414 137.964 164.811 137.28C165.208 136.597 165.397 135.892 165.38 135.165C165.358 134.447 165.136 133.763 164.716 133.114C164.298 132.478 163.714 131.942 162.961 131.505C162.209 131.068 161.449 130.823 160.682 130.771C159.918 130.732 159.219 130.881 158.584 131.217C157.944 131.563 157.425 132.077 157.028 132.76C156.632 133.443 156.444 134.144 156.467 134.862C156.484 135.589 156.701 136.27 157.118 136.906C157.539 137.555 158.126 138.098 158.878 138.535Z" fill="white"/>
<path d="M146.402 159.617C146.315 159.7 146.211 159.736 146.091 159.726C145.971 159.73 145.866 159.685 145.776 159.59L139.163 152.632C139.074 152.538 139.03 152.427 139.034 152.3C139.044 152.18 139.096 152.075 139.19 151.985C139.292 151.889 139.403 151.839 139.523 151.835C139.65 151.838 139.759 151.887 139.848 151.981L145.531 157.961L144.408 151.662C144.391 151.499 144.433 151.376 144.534 151.294L144.556 151.273C144.643 151.19 144.764 151.158 144.919 151.176L151.173 152.64L145.469 146.638C145.38 146.544 145.337 146.433 145.34 146.306C145.343 146.193 145.391 146.092 145.486 146.002C145.58 145.913 145.683 145.869 145.797 145.872C145.917 145.882 146.021 145.935 146.111 146.029L152.724 152.987C152.807 153.074 152.85 153.178 152.854 153.298C152.851 153.426 152.802 153.534 152.708 153.624C152.657 153.672 152.589 153.709 152.504 153.735C152.425 153.768 152.351 153.777 152.28 153.761L145.37 152.196L146.561 159.197C146.585 159.381 146.532 159.521 146.402 159.617Z" fill="white"/>
<path d="M131.29 157.662C131.229 157.546 131.214 157.427 131.242 157.303C131.271 157.179 131.34 157.082 131.45 157.013C131.569 156.939 131.687 156.912 131.806 156.932C131.922 156.966 132.017 157.042 132.091 157.16L137.169 165.272C137.243 165.391 137.263 165.508 137.23 165.624C137.201 165.748 137.127 165.847 137.009 165.921C136.899 165.99 136.781 166.01 136.657 165.982C136.533 165.953 136.437 165.884 136.368 165.774L131.29 157.662Z" fill="white"/>
<path d="M124.608 166.976C124.004 167.11 123.431 167.061 122.89 166.828C122.349 166.595 121.918 166.157 121.596 165.513C121.158 164.636 121.102 163.842 121.429 163.131C121.751 162.434 122.315 161.884 123.12 161.481L126.729 159.678C126.845 159.62 126.962 159.606 127.078 159.638C127.19 159.682 127.275 159.763 127.333 159.879L131.624 168.467C131.682 168.583 131.693 168.695 131.657 168.802C131.617 168.923 131.539 169.012 131.423 169.071L127.867 170.847C127.115 171.223 126.427 171.31 125.801 171.108C125.166 170.911 124.669 170.455 124.312 169.74C124.075 169.265 123.979 168.782 124.024 168.291C124.068 167.799 124.263 167.36 124.608 166.976ZM125.137 169.243C125.383 169.735 125.723 170.046 126.156 170.176C126.586 170.319 127.06 170.261 127.579 170.002L130.571 168.507L128.895 165.152L125.902 166.647C125.424 166.898 125.108 167.251 124.956 167.707C124.795 168.168 124.855 168.68 125.137 169.243ZM123.556 162.253C122.956 162.553 122.549 162.946 122.334 163.433C122.111 163.925 122.151 164.475 122.455 165.084C122.768 165.71 123.19 166.074 123.722 166.177C124.246 166.285 124.807 166.189 125.406 165.889L128.492 164.347L126.669 160.697L123.556 162.253Z" fill="white"/>
<path d="M113.402 165.526C113.373 165.399 113.388 165.279 113.447 165.166C113.506 165.053 113.597 164.978 113.721 164.939C113.855 164.897 113.977 164.901 114.087 164.951C114.19 165.013 114.262 165.111 114.304 165.244L117.155 174.38C117.197 174.513 117.186 174.632 117.124 174.735C117.065 174.848 116.969 174.925 116.835 174.967C116.711 175.005 116.593 174.995 116.48 174.936C116.367 174.877 116.291 174.785 116.253 174.661L113.402 165.526Z" fill="white"/>
<path d="M103.393 168.322C103.266 168.35 103.155 168.333 103.06 168.272C102.955 168.213 102.888 168.12 102.861 167.993C102.833 167.866 102.853 167.749 102.922 167.642C102.983 167.546 103.077 167.485 103.204 167.457L108.436 166.314C108.563 166.286 108.679 166.302 108.784 166.36C108.881 166.431 108.944 166.53 108.971 166.657L111.021 176.036C111.049 176.163 111.028 176.275 110.957 176.372C110.888 176.48 110.785 176.548 110.648 176.578C110.521 176.606 110.404 176.585 110.297 176.517C110.192 176.458 110.126 176.365 110.098 176.238L108.141 167.284L103.393 168.322Z" fill="white"/>
<path d="M96.9074 168.439C96.9068 168.309 96.9477 168.195 97.0302 168.098C97.1126 168.001 97.2186 167.947 97.3482 167.937C97.4877 167.925 97.6056 167.956 97.7017 168.028C97.7888 168.112 97.8379 168.223 97.8493 168.363L98.6236 177.901C98.6349 178.041 98.5989 178.154 98.5157 178.241C98.4333 178.338 98.3223 178.392 98.1828 178.404C98.0532 178.414 97.9399 178.378 97.8429 178.296C97.7459 178.213 97.6922 178.107 97.6817 177.978L96.9074 168.439Z" fill="white"/>
<path d="M28.9901 151.401C28.8893 151.318 28.8325 151.214 28.8195 151.087C28.8003 150.969 28.8254 150.866 28.8949 150.781C28.9391 150.727 28.9981 150.678 29.0718 150.635L38.2212 145.745C38.309 145.7 38.4029 145.68 38.5029 145.684C38.5965 145.696 38.6782 145.73 38.7479 145.787C38.8177 145.844 38.8678 145.917 38.8983 146.006C38.921 146.089 38.9194 146.178 38.8936 146.273L35.9523 156.201C35.9377 156.267 35.8988 156.338 35.8356 156.416C35.7535 156.517 35.6523 156.57 35.532 156.575C35.4117 156.58 35.3089 156.548 35.2236 156.478C35.0608 156.346 35.014 156.166 35.0831 155.938L37.7372 146.957L29.5052 151.433C29.4096 151.471 29.3189 151.488 29.233 151.482C29.1331 151.478 29.0521 151.451 28.9901 151.401Z" fill="white"/>
<path d="M31.8933 139.647C32.0002 139.572 32.1169 139.541 32.2436 139.553C32.3703 139.566 32.4748 139.622 32.5573 139.723C32.6461 139.831 32.6882 139.945 32.6834 140.065C32.6646 140.184 32.6011 140.288 32.4929 140.377L25.0952 146.448C24.987 146.537 24.8734 146.572 24.7545 146.553C24.6278 146.541 24.5201 146.48 24.4312 146.372C24.3488 146.272 24.3138 146.158 24.3262 146.031C24.3387 145.905 24.3952 145.8 24.4957 145.718L31.8933 139.647Z" fill="white"/>
<path d="M16.6024 135.337C16.5298 135.229 16.5057 135.113 16.5301 134.988C16.5463 134.868 16.6 134.778 16.6912 134.717C16.7493 134.678 16.8199 134.648 16.903 134.628L27.0787 132.608C27.1757 132.591 27.2714 132.599 27.3658 132.632C27.452 132.67 27.5202 132.727 27.5704 132.802C27.6207 132.876 27.6474 132.961 27.6506 133.055C27.6482 133.141 27.6208 133.226 27.5685 133.309L21.8688 141.954C21.8357 142.012 21.7777 142.069 21.6948 142.125C21.5869 142.198 21.4747 142.219 21.3581 142.189C21.2414 142.159 21.1524 142.098 21.091 142.007C20.9738 141.833 20.9813 141.647 21.1136 141.45L26.2635 133.627L17.0857 135.518C16.9832 135.527 16.8916 135.516 16.811 135.486C16.7166 135.453 16.647 135.403 16.6024 135.337Z" fill="white"/>
<path d="M14.1493 117.211C15.0965 116.806 16.0315 116.64 16.9545 116.713C17.8775 116.787 18.7045 117.08 19.4353 117.594C20.157 118.112 20.7084 118.817 21.0896 119.709C21.4708 120.601 21.5993 121.487 21.4749 122.367C21.3414 123.25 20.9822 124.051 20.3971 124.769C19.8121 125.486 19.046 126.047 18.0989 126.452C17.1425 126.861 16.2029 127.029 15.2799 126.956C14.3568 126.882 13.5345 126.587 12.8128 126.069C12.0912 125.551 11.5398 124.846 11.1586 123.954C10.7774 123.062 10.6489 122.176 10.7732 121.296C10.8976 120.417 11.2522 119.618 11.8373 118.9C12.4223 118.183 13.193 117.62 14.1493 117.211ZM14.5266 118.094C13.7266 118.435 13.0827 118.901 12.595 119.49C12.0941 120.074 11.7908 120.725 11.685 121.445C11.5753 122.155 11.6757 122.874 11.9861 123.6C12.2966 124.326 12.7484 124.9 13.3415 125.321C13.9306 125.732 14.6112 125.964 15.3832 126.014C16.1421 126.06 16.9216 125.911 17.7216 125.569C18.5216 125.228 19.172 124.765 19.6729 124.181C20.1606 123.592 20.4594 122.942 20.5691 122.232C20.6748 121.512 20.5725 120.79 20.262 120.063C19.9516 119.337 19.5018 118.768 18.9126 118.356C18.3195 117.935 17.6436 117.702 16.8846 117.657C16.1126 117.606 15.3266 117.752 14.5266 118.094Z" fill="white"/>
<path d="M5.11186 95.768C5.09756 95.6488 5.13032 95.5442 5.21014 95.454C5.27885 95.3551 5.37773 95.2979 5.50681 95.2825L15.0384 94.1382C15.1674 94.1227 15.282 94.1543 15.3821 94.2329C15.4723 94.3128 15.5251 94.4172 15.5406 94.5463C15.5573 94.6853 15.5313 94.8042 15.4626 94.9031C15.3839 95.0032 15.2801 95.061 15.151 95.0765L6.95982 96.0598L12.6819 98.9232C12.8229 99.007 12.8962 99.114 12.9017 99.2443L12.9053 99.2741C12.9196 99.3932 12.8732 99.5096 12.7659 99.6232L7.85435 103.763L16.0753 102.776C16.2044 102.761 16.319 102.792 16.4191 102.871C16.508 102.941 16.5603 103.04 16.5758 103.169C16.5912 103.298 16.564 103.407 16.4942 103.496C16.4143 103.587 16.3099 103.639 16.1808 103.655L6.64924 104.799C6.5301 104.813 6.42108 104.786 6.32219 104.718C6.2221 104.639 6.16431 104.535 6.14882 104.406C6.14047 104.336 6.15139 104.26 6.18157 104.175C6.20182 104.092 6.23935 104.027 6.29415 103.981L11.6787 99.376L5.35375 96.1469C5.1917 96.0555 5.11108 95.9292 5.11186 95.768Z" fill="white"/>
<path d="M15.7113 84.3714C15.84 84.3923 15.9454 84.4515 16.0274 84.5488C16.1095 84.6461 16.145 84.7595 16.134 84.889C16.1221 85.0285 16.0725 85.1397 15.9852 85.2226C15.8887 85.2947 15.7708 85.3248 15.6313 85.313L6.09568 84.5019C5.95619 84.4901 5.8504 84.4359 5.77831 84.3394C5.69626 84.2421 5.66117 84.1237 5.67304 83.9842C5.68405 83.8547 5.73821 83.7489 5.83552 83.6669C5.93282 83.5848 6.04624 83.5493 6.17577 83.5603L15.7113 84.3714Z" fill="white"/>
<path d="M12.1979 73.7184C12.4512 73.1542 12.8327 72.7247 13.3426 72.4299C13.8525 72.135 14.4618 72.051 15.1706 72.1778C16.1353 72.3503 16.8051 72.78 17.18 73.4667C17.5469 74.1419 17.6511 74.9224 17.4926 75.8084L16.7821 79.7803C16.7592 79.9083 16.7005 80.0095 16.6059 80.084C16.5032 80.1469 16.3879 80.1669 16.2599 80.144L6.8099 78.4537C6.68193 78.4308 6.58561 78.373 6.52095 78.2801C6.4482 78.1757 6.42327 78.0595 6.44616 77.9315L7.14607 74.0186C7.29397 73.1917 7.63571 72.5875 8.17128 72.2058C8.70861 71.8143 9.37103 71.689 10.1585 71.8298C10.6802 71.9232 11.1249 72.1348 11.4926 72.4646C11.8603 72.7945 12.0953 73.2125 12.1979 73.7184ZM10.0633 72.788C9.52191 72.6912 9.06958 72.7779 8.70632 73.0482C8.33497 73.3068 8.09824 73.7216 7.99611 74.2926L7.40713 77.5853L11.0985 78.2456L11.6875 74.9528C11.7728 74.4195 11.678 73.9556 11.4031 73.561C11.1301 73.1566 10.6835 72.899 10.0633 72.788ZM16.6135 75.6968C16.7315 75.0373 16.6592 74.4758 16.3967 74.0123C16.136 73.539 15.6709 73.2425 15.0015 73.1228C14.3125 72.9995 13.7677 73.1205 13.3671 73.4857C12.9683 73.841 12.7099 74.3484 12.592 75.008L11.9845 78.4041L16.0007 79.1225L16.6135 75.6968Z" fill="white"/>
<path d="M20.0633 65.5311C20.1825 65.5839 20.2695 65.6677 20.3243 65.7826C20.3791 65.8974 20.3848 66.0162 20.3415 66.1387C20.2947 66.2707 20.2187 66.3657 20.1132 66.4239C20.0017 66.4693 19.8799 66.4686 19.748 66.4219L10.7264 63.2288C10.5944 63.1821 10.5057 63.103 10.4603 62.9914C10.4055 62.8765 10.4015 62.7531 10.4482 62.6211C10.4916 62.4986 10.5707 62.4099 10.6855 62.3551C10.8004 62.3003 10.9191 62.2946 11.0417 62.3379L20.0633 65.5311Z" fill="white"/>
<path d="M23.8736 55.7164C23.9278 55.5983 24.008 55.5195 24.114 55.4801C24.2243 55.4317 24.3385 55.4345 24.4566 55.4887C24.5748 55.5429 24.656 55.6297 24.7003 55.749C24.7397 55.8551 24.7323 55.9672 24.6781 56.0854L22.4459 60.9529C22.3917 61.0711 22.3095 61.1544 22.1993 61.2029C22.0841 61.2381 21.9674 61.2286 21.8493 61.1744L13.1231 57.1727C13.0049 57.1185 12.9282 57.0338 12.893 56.9187C12.8487 56.7994 12.8558 56.6761 12.9141 56.5488C12.9683 56.4306 13.0551 56.3494 13.1744 56.3051C13.2846 56.2567 13.3988 56.2595 13.517 56.3137L21.8478 60.1341L23.8736 55.7164Z" fill="white"/>
<path d="M27.4768 50.7089C27.5817 50.7864 27.6484 50.8871 27.6769 51.0112C27.7054 51.1352 27.6852 51.2523 27.6162 51.3625C27.542 51.4812 27.447 51.5575 27.3315 51.5913C27.2127 51.6113 27.094 51.5842 26.9754 51.5099L18.8637 46.432C18.745 46.3577 18.6757 46.2612 18.6556 46.1425C18.6271 46.0184 18.6499 45.8971 18.7242 45.7784C18.7932 45.6682 18.8897 45.5989 19.0138 45.5703C19.1378 45.5418 19.2549 45.562 19.3651 45.631L27.4768 50.7089Z" fill="white"/>
<path d="M75.1674 7.48424C75.2908 7.44318 75.4094 7.45113 75.5232 7.50809C75.6338 7.55557 75.7065 7.6315 75.7413 7.73586C75.7634 7.80228 75.7728 7.87818 75.7697 7.96356L74.9924 18.3086C74.9829 18.4067 74.9496 18.4968 74.8927 18.579C74.8326 18.6517 74.7598 18.7023 74.6744 18.7307C74.589 18.7591 74.5005 18.7622 74.4088 18.7401C74.3266 18.7147 74.2523 18.6657 74.1859 18.5929L67.3822 10.7873C67.3348 10.7399 67.2953 10.6687 67.2637 10.5738C67.2226 10.4505 67.2321 10.3367 67.2923 10.2323C67.3524 10.128 67.4346 10.0585 67.539 10.0237C67.7383 9.95738 67.9153 10.0144 68.0702 10.1947L74.2291 17.2506L74.8637 7.90154C74.8827 7.80035 74.9175 7.71499 74.9681 7.64544C75.0251 7.56324 75.0915 7.50951 75.1674 7.48424Z" fill="white"/>
<path d="M83.646 16.0204C83.6515 16.1507 83.615 16.2659 83.5364 16.366C83.4577 16.4661 83.3539 16.5238 83.2248 16.5393C83.0858 16.556 82.9669 16.53 82.868 16.4613C82.7778 16.3815 82.7244 16.2721 82.7077 16.1331L81.567 6.6313C81.5504 6.4923 81.5819 6.37772 81.6617 6.28756C81.7404 6.18748 81.8492 6.12909 81.9882 6.1124C82.1173 6.09691 82.2319 6.12848 82.3319 6.20711C82.432 6.28574 82.4898 6.38959 82.5053 6.51867L83.646 16.0204Z" fill="white"/>
<path d="M95.1823 5.42187C95.3123 5.41836 95.4235 5.46037 95.5159 5.54791C95.608 5.62545 95.6555 5.7192 95.6585 5.82916C95.6604 5.89913 95.6474 5.97451 95.6196 6.05529L91.8746 15.73C91.837 15.821 91.7791 15.8976 91.7007 15.9598C91.6221 16.0119 91.5378 16.0392 91.4479 16.0416C91.3579 16.0441 91.2722 16.0214 91.1909 15.9735C91.1196 15.9255 91.0627 15.857 91.0203 15.7681L86.7736 6.32436C86.742 6.26519 86.7249 6.18562 86.7222 6.08566C86.7187 5.95571 86.7608 5.84953 86.8486 5.76713C86.9364 5.68473 87.0353 5.64204 87.1453 5.63907C87.3552 5.6334 87.5081 5.7393 87.604 5.95679L91.4511 14.496L94.7706 5.73311C94.8181 5.64179 94.8762 5.57019 94.9448 5.51832C95.0232 5.45618 95.1024 5.42403 95.1823 5.42187Z" fill="white"/>
<path d="M112.54 13.1294C112.37 14.1453 112.006 15.0222 111.446 15.7602C110.887 16.4981 110.194 17.0363 109.367 17.3746C108.541 17.7031 107.65 17.7875 106.694 17.6277C105.737 17.4678 104.922 17.0985 104.248 16.5195C103.576 15.9307 103.095 15.1965 102.806 14.3169C102.517 13.4372 102.457 12.4895 102.627 11.4735C102.798 10.4478 103.164 9.56589 103.723 8.82794C104.282 8.08999 104.974 7.55677 105.8 7.22828C106.625 6.89978 107.516 6.81544 108.473 6.97526C109.43 7.13508 110.245 7.50445 110.919 8.08339C111.593 8.66232 112.074 9.3916 112.363 10.2712C112.652 11.1509 112.711 12.1036 112.54 13.1294ZM111.593 12.9712C111.736 12.1131 111.691 11.3199 111.458 10.5915C111.236 9.8549 110.851 9.24813 110.302 8.77117C109.763 8.29586 109.104 7.99312 108.325 7.86296C107.546 7.7328 106.819 7.80405 106.145 8.0767C105.481 8.351 104.919 8.79961 104.46 9.42251C104.013 10.0372 103.717 10.7736 103.574 11.6317C103.431 12.4898 103.47 13.2872 103.691 14.0238C103.925 14.7521 104.311 15.354 104.85 15.8293C105.399 16.3062 106.063 16.6098 106.842 16.74C107.621 16.8701 108.343 16.7981 109.007 16.5238C109.681 16.2511 110.242 15.8074 110.689 15.1927C111.148 14.5698 111.449 13.8293 111.593 12.9712Z" fill="white"/>
<path d="M135.616 17.1373C135.724 17.1898 135.794 17.274 135.827 17.3899C135.873 17.5012 135.867 17.6153 135.811 17.7322L131.615 26.367C131.558 26.4839 131.47 26.5632 131.35 26.6048C131.234 26.6374 131.117 26.6253 131 26.5685C130.874 26.5074 130.788 26.4211 130.743 26.3098C130.701 26.1896 130.708 26.0709 130.765 25.954L134.371 18.5335L128.866 21.7961C128.72 21.8694 128.59 21.8731 128.477 21.8073L128.45 21.7942C128.343 21.7417 128.27 21.6397 128.232 21.488L127.408 15.1175L123.79 22.565C123.733 22.6819 123.645 22.7612 123.524 22.8028C123.417 22.8398 123.306 22.8299 123.189 22.7731C123.072 22.7163 122.995 22.6344 122.958 22.5275C122.925 22.4116 122.937 22.2952 122.994 22.1783L127.189 13.5435C127.242 13.4355 127.324 13.3586 127.435 13.3126C127.555 13.271 127.674 13.2786 127.791 13.3354C127.854 13.366 127.912 13.4167 127.967 13.4877C128.026 13.5496 128.06 13.6163 128.07 13.6878L129.028 20.7075L135.166 17.1358C135.331 17.0489 135.481 17.0494 135.616 17.1373Z" fill="white"/>
<path d="M138.927 31.7938C138.84 31.8912 138.734 31.9484 138.607 31.9655C138.481 31.9825 138.367 31.9517 138.263 31.8729C138.152 31.7881 138.085 31.6866 138.061 31.5685C138.052 31.4484 138.09 31.3327 138.175 31.2213L143.973 23.6074C144.057 23.496 144.16 23.4357 144.28 23.4266C144.406 23.4095 144.525 23.4434 144.636 23.5282C144.74 23.6069 144.8 23.7094 144.817 23.8355C144.834 23.9616 144.803 24.0764 144.724 24.1799L138.927 31.7938Z" fill="white"/>
<path d="M150.027 34.7392C150.366 35.2563 150.523 35.8091 150.497 36.3976C150.471 36.986 150.213 37.5447 149.725 38.0737C149.06 38.7938 148.338 39.127 147.557 39.0733C146.791 39.0191 146.077 38.6867 145.415 38.0762L142.45 35.3394C142.355 35.2512 142.301 35.1472 142.289 35.0274C142.292 34.907 142.337 34.799 142.425 34.7035L148.937 27.6494C149.025 27.5539 149.125 27.5039 149.238 27.4994C149.366 27.4943 149.477 27.5358 149.572 27.624L152.493 30.3202C153.111 30.8899 153.436 31.5032 153.469 32.16C153.51 32.8236 153.259 33.4493 152.716 34.0372C152.357 34.4266 151.939 34.6874 151.463 34.8197C150.987 34.952 150.508 34.9251 150.027 34.7392ZM151.96 33.4411C152.333 33.037 152.503 32.6091 152.471 32.1575C152.453 31.7053 152.231 31.2825 151.805 30.8891L149.347 28.6202L146.803 31.3757L149.261 33.6446C149.665 34.0035 150.107 34.1734 150.587 34.1541C151.075 34.1417 151.533 33.904 151.96 33.4411ZM145.983 37.3954C146.475 37.8499 146.987 38.0912 147.519 38.1195C148.058 38.1546 148.558 37.9223 149.02 37.4226C149.494 36.9082 149.686 36.384 149.594 35.8498C149.509 35.3225 149.22 34.8316 148.728 34.3771L146.193 32.037L143.426 35.035L145.983 37.3954Z" fill="white"/>
<path d="M152.693 45.7226C152.584 45.795 152.467 45.8236 152.34 45.8083C152.214 45.7931 152.111 45.7344 152.03 45.6321C151.944 45.522 151.905 45.4068 151.912 45.2866C151.933 45.1681 151.999 45.0656 152.109 44.9792L159.638 39.0711C159.748 38.9847 159.862 38.9522 159.981 38.9736C160.107 38.9888 160.214 39.0515 160.3 39.1617C160.38 39.2639 160.413 39.3782 160.397 39.5046C160.382 39.631 160.323 39.7343 160.221 39.8145L152.693 45.7226Z" fill="white"/>
<path d="M158.9 54.1024C158.971 54.2113 158.995 54.3211 158.972 54.4318C158.954 54.5509 158.891 54.6459 158.782 54.7169C158.673 54.7879 158.556 54.8103 158.431 54.784C158.321 54.7607 158.23 54.6946 158.159 54.5857L155.235 50.0996C155.164 49.9907 155.137 49.8767 155.155 49.7576C155.187 49.6414 155.257 49.5479 155.366 49.4769L163.408 44.2346C163.517 44.1636 163.63 44.144 163.746 44.1757C163.87 44.2019 163.971 44.2737 164.047 44.391C164.118 44.4999 164.141 44.6166 164.115 44.7412C164.097 44.8602 164.033 44.9553 163.924 45.0263L156.246 50.031L158.9 54.1024Z" fill="white"/>
<path d="M161.41 60.2226C161.289 60.2695 161.168 60.2717 161.048 60.2292C160.928 60.1867 160.84 60.1068 160.784 59.9894C160.724 59.8631 160.711 59.742 160.744 59.6264C160.791 59.5154 160.877 59.4298 161.004 59.3696L169.642 55.2515C169.769 55.1912 169.887 55.1845 169.998 55.2313C170.118 55.2738 170.208 55.3583 170.269 55.4846C170.325 55.602 170.331 55.7207 170.289 55.8406C170.246 55.9606 170.166 56.0485 170.049 56.1045L161.41 60.2226Z" fill="white"/>
</svg>
