<svg width="99" height="56" viewBox="0 0 99 56" fill="none" xmlns="http://www.w3.org/2000/svg">
<g clip-path="url(#clip0)">
<path d="M6.48983 0.930664H0.231288C0.212722 0.930664 0.199219 0.944167 0.199219 0.962733V55.5882C0.199219 55.6051 0.212722 55.6203 0.231288 55.6203H6.48983C6.50671 55.6203 6.5219 55.6068 6.5219 55.5882V0.962733C6.5219 0.944167 6.50671 0.930664 6.48983 0.930664Z" fill="white"/>
<path d="M84.3771 0.959235C84.3771 0.957548 84.3771 0.95586 84.3754 0.952484C84.3754 0.950796 84.3754 0.949108 84.3754 0.94742C84.3737 0.944045 84.3704 0.940669 84.367 0.938981C84.3653 0.938981 84.367 0.937293 84.3653 0.935606C84.3653 0.935606 84.3653 0.935606 84.3636 0.935606C84.3585 0.93223 84.3518 0.930542 84.3467 0.930542H76.9134C76.9033 0.930542 76.8932 0.935606 76.8864 0.945733L49.1247 44.0044L21.363 0.945733C21.3562 0.935606 21.3461 0.930542 21.336 0.930542H13.923C13.9162 0.930542 13.9111 0.93223 13.9061 0.935606C13.9061 0.935606 13.9061 0.935606 13.9044 0.935606C13.9027 0.935606 13.9027 0.937293 13.9027 0.938981C13.8993 0.942357 13.896 0.944045 13.8943 0.94742C13.8943 0.949108 13.8943 0.950796 13.8943 0.952484C13.8943 0.954172 13.8926 0.95586 13.8926 0.959235C13.8926 0.964299 13.8926 0.969362 13.896 0.974426C13.896 0.976114 13.896 0.977802 13.896 0.977802L49.0977 55.6033C49.1011 55.6084 49.1078 55.6134 49.1146 55.6168C49.118 55.6168 49.1213 55.6185 49.123 55.6185C49.1247 55.6185 49.1298 55.6185 49.1315 55.6168C49.1382 55.6151 49.145 55.6101 49.1483 55.6033L84.3737 0.97949C84.3737 0.977802 84.3737 0.976114 84.3737 0.976114C84.3754 0.97105 84.3771 0.965987 84.3771 0.959235Z" fill="white"/>
<path d="M98.0184 0.930542H91.7801C91.7632 0.930542 91.748 0.944045 91.748 0.962611V55.5881C91.748 55.605 91.7616 55.6202 91.7801 55.6202H98.0184C98.0353 55.6202 98.0505 55.6067 98.0505 55.5881V0.962611C98.0488 0.944045 98.0353 0.930542 98.0184 0.930542Z" fill="white"/>
</g>
<defs>
<clipPath id="clip0">
<rect width="97.8496" height="54.6896" fill="white" transform="translate(0.199219 0.930664)"/>
</clipPath>
</defs>
</svg>
