<svg width="92" height="103" viewBox="0 0 92 103" fill="none" xmlns="http://www.w3.org/2000/svg">
<path fill-rule="evenodd" clip-rule="evenodd" d="M0.154767 0.47547C0.136004 0.524403 0.1292 1.02693 0.139715 1.59228L0.158821 2.62016L4.35115 2.66139C7.14413 2.68888 8.65818 2.72922 8.88711 2.78228C10.4278 3.13952 11.7754 3.92239 12.7202 5.00903C13.2436 5.61107 10.9508 2.07412 33.2033 36.6055L39.5587 46.4678H44.8636H50.1684L58.0354 34.2688C62.3622 27.5594 66.5299 21.0956 67.2968 19.9049C69.9039 15.8573 76.2232 6.05938 76.6717 5.36922C77.5147 4.07242 78.4005 3.35601 79.7462 2.88283L80.2941 2.69012L86.1187 2.66978L91.9433 2.64936V1.51799V0.386537H82.1203C75.4288 0.386537 72.126 0.410317 71.7598 0.461175C71.1003 0.552719 70.0679 0.876284 69.4697 1.17889C68.4439 1.69777 67.4093 2.57322 66.7805 3.45457C66.5684 3.7516 62.3896 10.211 57.4941 17.8088C42.3061 41.3802 40.7095 43.847 40.6443 43.8419C40.6095 43.8391 34.9419 35.0889 28.0495 24.3969C21.1572 13.7049 15.3688 4.74037 15.1863 4.47578C13.6611 2.26408 11.4188 0.859721 8.81838 0.487428C7.85999 0.35025 0.206861 0.339666 0.154767 0.47547ZM0.15621 36.6914C0.138272 36.7387 0.131537 76.1454 0.141227 85.5197L0.158821 102.564L1.27563 102.583L2.39244 102.602V85.4527V61.0291V36.6055H1.29068C0.472421 36.6055 0.18047 36.6276 0.15621 36.6914ZM82.5965 31.073V48.2203H87.2699H91.9433V31.073V13.9257H87.2699H82.5965V31.073Z" fill="white"/>
</svg>
