<svg width="199" height="199" viewBox="0 0 199 199" fill="none" xmlns="http://www.w3.org/2000/svg">
<g clip-path="url(#clip0)">
<path d="M172.811 31.6372L159.905 37.0774L158.592 35.83L163.323 22.6279L164.757 23.9906L160.858 34.8238L171.482 30.3794L172.811 31.6372Z" fill="white"/>
<path d="M176.251 35.8876L177.407 37.3131L167.453 45.4105L166.297 43.9849L176.251 35.8876Z" fill="white"/>
<path d="M187.8 52.8685L173.932 54.7815L172.984 53.2354L180.965 41.7052L182.002 43.3928L175.439 52.8476L186.848 51.3067L187.8 52.8685Z" fill="white"/>
<path d="M179.839 64.6555C179.996 63.4815 180.441 62.4385 181.163 61.5266C181.886 60.6146 182.822 59.9386 183.974 59.4931C185.125 59.0528 186.276 58.927 187.422 59.121C188.569 59.3149 189.594 59.797 190.494 60.5622C191.395 61.3274 192.08 62.318 192.541 63.5286C193.001 64.7288 193.148 65.9133 192.991 67.0873C192.834 68.2613 192.394 69.299 191.672 70.2057C190.95 71.1124 190.013 71.7885 188.846 72.2339C187.684 72.6794 186.533 72.8105 185.392 72.6165C184.251 72.4226 183.23 71.9457 182.33 71.1805C181.43 70.4153 180.75 69.43 180.289 68.2298C179.834 67.0244 179.682 65.8294 179.839 64.6555ZM183.325 69.7916C183.995 70.3419 184.753 70.6826 185.612 70.8189C186.47 70.9551 187.328 70.8556 188.197 70.5254C189.066 70.1952 189.772 69.6868 190.317 69.016C190.861 68.3399 191.201 67.5747 191.332 66.7204C191.463 65.8661 191.358 64.9961 191.023 64.1209C190.688 63.2404 190.18 62.5224 189.511 61.9616C188.835 61.4008 188.071 61.0549 187.218 60.9186C186.36 60.7824 185.502 60.8819 184.633 61.2121C183.764 61.5423 183.063 62.0507 182.514 62.7215C181.969 63.3976 181.629 64.168 181.503 65.0328C181.378 65.8976 181.483 66.7728 181.817 67.6533C182.158 68.5286 182.66 69.2413 183.325 69.7916Z" fill="white"/>
<path d="M185.873 90.8921L195.105 89.4613L186.711 86.0494L186.585 85.2161L193.524 79.4615L184.345 80.8661L184.078 79.1261L196.753 77.1869L196.978 78.6753L188.877 85.3314L198.58 89.1888L198.805 90.6772L186.135 92.6321L185.873 90.8921Z" fill="white"/>
<path d="M186.857 100.75C187.485 99.744 188.318 98.9788 189.354 98.4442C190.39 97.9097 191.52 97.679 192.75 97.7524C193.98 97.8258 195.079 98.1874 196.042 98.8373C197.005 99.4872 197.743 100.347 198.245 101.421C198.753 102.49 198.968 103.675 198.889 104.969C198.816 106.253 198.46 107.396 197.832 108.397C197.204 109.403 196.377 110.168 195.346 110.692C194.32 111.222 193.185 111.447 191.939 111.374C190.694 111.3 189.595 110.939 188.637 110.294C187.679 109.65 186.946 108.79 186.439 107.721C185.931 106.652 185.717 105.472 185.795 104.194C185.879 102.899 186.229 101.751 186.857 100.75ZM187.92 106.867C188.302 107.642 188.857 108.271 189.579 108.748C190.301 109.225 191.128 109.492 192.054 109.545C192.981 109.597 193.834 109.435 194.608 109.042C195.383 108.648 196.005 108.098 196.476 107.37C196.947 106.646 197.209 105.813 197.267 104.87C197.324 103.932 197.157 103.067 196.78 102.275C196.398 101.489 195.843 100.855 195.121 100.378C194.399 99.9012 193.572 99.6339 192.646 99.5763C191.719 99.5239 190.866 99.6864 190.092 100.079C189.317 100.467 188.694 101.033 188.223 101.767C187.752 102.506 187.485 103.345 187.433 104.283C187.376 105.231 187.538 106.091 187.92 106.867Z" fill="white"/>
<path d="M187.397 127.165C186.764 127.443 186.047 127.48 185.241 127.275C184.163 126.997 183.44 126.379 183.069 125.42C182.697 124.461 182.713 123.203 183.111 121.652L184.639 115.719L197.058 118.921L195.624 124.497C195.257 125.918 194.692 126.945 193.923 127.574C193.153 128.203 192.269 128.386 191.264 128.129C190.615 127.962 190.092 127.668 189.694 127.244C189.296 126.819 189.04 126.321 188.925 125.75C188.538 126.41 188.03 126.887 187.397 127.165ZM184.477 124.345C184.675 124.938 185.131 125.331 185.842 125.514C187.224 125.871 188.177 125.037 188.7 123.009L189.752 118.926L185.617 117.862L184.565 121.95C184.309 122.951 184.278 123.753 184.477 124.345ZM195.158 120.32L191.186 119.298L190.249 122.941C190.013 123.853 190.003 124.597 190.212 125.179C190.422 125.755 190.856 126.133 191.505 126.295C192.154 126.463 192.714 126.342 193.174 125.939C193.635 125.535 193.986 124.875 194.221 123.963L195.158 120.32Z" fill="white"/>
<path d="M191.829 135.923L191.133 137.621L179.279 132.726L179.975 131.028L191.829 135.923Z" fill="white"/>
<path d="M187.952 144.523L187.052 146.122L177.276 140.598L173.869 146.651L172.482 145.87L176.79 138.213L187.952 144.523Z" fill="white"/>
<path d="M180.252 156.944L179.163 158.422L168.838 150.807L169.926 149.329L180.252 156.944Z" fill="white"/>
<path d="M138.763 190.403L137.994 176.404L139.611 175.587L150.434 184.496L148.67 185.393L139.8 178.066L140.402 189.58L138.763 190.403Z" fill="white"/>
<path d="M133.581 192.211L131.854 192.819L127.615 180.702L129.342 180.094L133.581 192.211Z" fill="white"/>
<path d="M113.715 197.337L116.625 183.621L118.399 183.254L126.521 194.685L124.585 195.083L117.933 185.691L115.51 196.965L113.715 197.337Z" fill="white"/>
<path d="M105.332 185.838C106.384 186.383 107.21 187.154 107.823 188.144C108.435 189.135 108.754 190.246 108.78 191.483C108.807 192.72 108.535 193.841 107.964 194.858C107.394 195.875 106.593 196.676 105.567 197.263C104.541 197.856 103.38 198.16 102.087 198.191C100.805 198.217 99.6378 197.955 98.5911 197.41C97.5392 196.865 96.7123 196.1 96.1052 195.115C95.4981 194.129 95.1841 193.013 95.158 191.766C95.1318 190.518 95.4039 189.392 95.9691 188.38C96.5344 187.374 97.3298 186.572 98.3556 185.98C99.3813 185.387 100.538 185.083 101.815 185.052C103.107 185.031 104.28 185.293 105.332 185.838ZM99.3238 187.384C98.5806 187.83 97.9997 188.432 97.5863 189.192C97.1676 189.952 96.9687 190.796 96.9897 191.729C97.0106 192.657 97.2409 193.495 97.6909 194.239C98.141 194.984 98.7428 195.56 99.5017 195.974C100.261 196.388 101.114 196.582 102.05 196.561C102.987 196.54 103.84 196.31 104.594 195.864C105.347 195.419 105.934 194.816 106.352 194.056C106.771 193.296 106.97 192.452 106.949 191.519C106.928 190.592 106.698 189.753 106.248 189.009C105.797 188.265 105.19 187.688 104.416 187.274C103.647 186.86 102.788 186.666 101.846 186.687C100.909 186.708 100.067 186.939 99.3238 187.384Z" fill="white"/>
<path d="M78.6259 182.699L76.8728 191.886L82.8964 185.11L83.7233 185.267L86.811 193.747L88.5694 184.617L90.2964 184.952L87.8681 197.562L86.3923 197.279L82.8493 187.405L75.9621 195.267L74.4863 194.984L76.8989 182.374L78.6259 182.699Z" fill="white"/>
<path d="M69.0334 180.304C69.7661 181.237 70.2057 182.28 70.3523 183.438C70.504 184.591 70.3313 185.739 69.8499 186.876C69.3632 188.013 68.6514 188.92 67.7146 189.612C66.7779 190.298 65.7155 190.702 64.538 190.812C63.3605 190.922 62.1777 190.728 60.9845 190.214C59.807 189.706 58.8545 188.988 58.1218 188.055C57.3944 187.122 56.9548 186.085 56.8083 184.937C56.6617 183.789 56.8344 182.641 57.3264 181.499C57.8183 180.356 58.53 179.439 59.4616 178.752C60.3931 178.066 61.445 177.667 62.6226 177.557C63.8001 177.447 64.9776 177.641 66.1551 178.15C67.3431 178.648 68.3008 179.371 69.0334 180.304ZM62.9261 179.229C62.0678 179.329 61.2933 179.633 60.5972 180.157C59.9012 180.676 59.3726 181.362 59.0063 182.217C58.6399 183.071 58.5091 183.93 58.6138 184.79C58.7184 185.655 59.0272 186.43 59.5506 187.117C60.0739 187.809 60.7647 188.338 61.6282 188.71C62.4917 189.082 63.3605 189.219 64.2292 189.13C65.0979 189.035 65.883 188.731 66.5738 188.212C67.2698 187.694 67.7984 187.007 68.1647 186.153C68.531 185.298 68.6619 184.439 68.5572 183.579C68.4525 182.72 68.1385 181.939 67.6047 181.242C67.0709 180.545 66.3749 180.015 65.5114 179.643C64.6479 179.266 63.7844 179.13 62.9261 179.229Z" fill="white"/>
<path d="M44.0441 171.85C43.997 171.158 44.2063 170.471 44.6721 169.785C45.3001 168.868 46.127 168.396 47.1527 168.37C48.1785 168.349 49.356 168.784 50.68 169.685L55.7355 173.134L48.5134 183.747L43.7615 180.503C42.5526 179.675 41.778 178.794 41.4483 177.861C41.1186 176.928 41.2442 176.027 41.8304 175.167C42.2072 174.612 42.6625 174.219 43.1963 173.988C43.7301 173.758 44.2848 173.689 44.8605 173.768C44.3686 173.181 44.0912 172.536 44.0441 171.85ZM47.8383 181.483L50.1462 178.087L47.0428 175.969C46.2683 175.44 45.5723 175.178 44.9547 175.178C44.3424 175.178 43.8452 175.461 43.4632 176.016C43.0864 176.572 43.0079 177.138 43.2277 177.709C43.4527 178.281 43.9499 178.836 44.7297 179.365L47.8383 181.483ZM47.6813 170.057C47.0533 170.042 46.5352 170.34 46.1218 170.948C45.3158 172.133 45.7764 173.312 47.5034 174.486L50.9836 176.86L53.3857 173.328L49.9055 170.954C49.0525 170.367 48.3093 170.068 47.6813 170.057Z" fill="white"/>
<path d="M34.3203 173.071L32.9648 171.839L41.5685 162.322L42.924 163.553L34.3203 173.071Z" fill="white"/>
<path d="M27.5539 166.525L26.3555 165.141L34.8388 157.778L30.291 152.526L31.4947 151.483L37.2409 158.124L27.5539 166.525Z" fill="white"/>
<path d="M18.4632 155.084L17.4375 153.564L28.0665 146.384L29.0923 147.904L18.4632 155.084Z" fill="white"/>
<path d="M1.49106 88.0146L14.0512 94.2095L13.9727 96.0229L0.910156 101.096L0.999124 99.1151L11.7276 94.9642L1.41256 89.8438L1.49106 88.0146Z" fill="white"/>
<path d="M2.44922 82.6216L2.76846 80.8135L15.3966 83.0409L15.0774 84.849L2.44922 82.6216Z" fill="white"/>
<path d="M7.70839 62.7531L18.2275 72.0087L17.678 73.7382L3.75195 75.2371L4.34856 73.3504L15.7835 72.1397L7.15366 64.5088L7.70839 62.7531Z" fill="white"/>
<path d="M21.8225 61.0654C20.8334 61.7153 19.7553 62.0612 18.5935 62.1084C17.4317 62.1555 16.3065 61.8883 15.218 61.3065C14.1294 60.7248 13.2868 59.9334 12.685 58.9376C12.0832 57.9418 11.7744 56.8516 11.7639 55.6672C11.7535 54.4827 12.057 53.3192 12.6641 52.1767C13.2711 51.0446 14.0666 50.1536 15.061 49.509C16.0501 48.8644 17.1229 48.5132 18.2795 48.466C19.4361 48.4189 20.5613 48.6914 21.655 49.2784C22.7488 49.8654 23.6019 50.6568 24.2037 51.6473C24.8055 52.6379 25.1091 53.7228 25.1195 54.9072C25.13 56.0917 24.8317 57.25 24.2246 58.382C23.6176 59.5246 22.8116 60.4208 21.8225 61.0654ZM23.4239 55.0697C23.403 54.2049 23.1623 53.4031 22.7069 52.6641C22.2516 51.9251 21.6132 51.3381 20.7968 50.8979C19.9804 50.4576 19.1378 50.2532 18.269 50.2794C17.4003 50.3056 16.6048 50.552 15.8721 51.0132C15.1395 51.4744 14.5533 52.119 14.1085 52.9471C13.6637 53.7752 13.4491 54.6295 13.4648 55.5047C13.4805 56.38 13.716 57.1871 14.1765 57.9261C14.6318 58.665 15.2703 59.252 16.0867 59.6923C16.9031 60.1325 17.7457 60.3369 18.6144 60.3107C19.4832 60.2845 20.2839 60.0329 21.0218 59.5612C21.7597 59.0896 22.3511 58.4397 22.7959 57.6116C23.2355 56.7835 23.4449 55.9345 23.4239 55.0697Z" fill="white"/>
<path d="M37.68 39.3257L30.5521 33.2776L33.4828 41.8623L32.9385 42.507L24.047 41.029L31.1226 47.0562L29.9817 48.3979L20.2109 40.0752L21.1843 38.9274L31.5151 40.6936L28.0663 30.8248L29.0397 29.677L38.8209 37.984L37.68 39.3257Z" fill="white"/>
<path d="M44.4772 32.1194C43.3101 32.3029 42.185 32.1719 41.1069 31.7369C40.0288 31.3019 39.113 30.5943 38.3646 29.6143C37.6162 28.6342 37.1661 27.565 37.0301 26.4068C36.894 25.2485 37.0615 24.1322 37.5377 23.0473C38.0139 21.9624 38.7676 21.0242 39.7933 20.2381C40.8086 19.4572 41.9023 18.975 43.0746 18.7916C44.2417 18.6081 45.3616 18.7339 46.4345 19.1689C47.5073 19.6039 48.4179 20.3167 49.1768 21.302C49.9356 22.2926 50.3857 23.3617 50.527 24.5095C50.6683 25.6573 50.5008 26.7736 50.0193 27.8585C49.5431 28.9434 48.7947 29.8763 47.7742 30.6572C46.7432 31.4486 45.6442 31.936 44.4772 32.1194ZM48.4022 27.3134C48.7372 26.5168 48.8471 25.6887 48.7372 24.824C48.622 23.9644 48.2871 23.1626 47.7219 22.4236C47.1567 21.6846 46.4763 21.15 45.6756 20.8198C44.8749 20.4897 44.048 20.3796 43.1898 20.5001C42.3315 20.6207 41.5308 20.9613 40.7876 21.5379C40.0393 22.1091 39.495 22.8009 39.1496 23.6028C38.8042 24.4099 38.689 25.2433 38.799 26.1028C38.9141 26.9623 39.249 27.7642 39.8142 28.5032C40.3794 29.2421 41.0598 29.7767 41.8657 30.1069C42.6664 30.4371 43.4985 30.5419 44.3673 30.4161C45.2308 30.2903 46.0367 29.9392 46.7851 29.3679C47.523 28.7914 48.062 28.1101 48.4022 27.3134Z" fill="white"/>
<path d="M64.0614 14.4258C64.6841 14.7245 65.1813 15.2434 65.5529 15.9876C66.0501 16.9834 66.0553 17.9373 65.5738 18.844C65.0924 19.7559 64.1346 20.5683 62.7007 21.281L57.2213 24.0116L51.5117 12.5181L56.6614 9.94998C57.9749 9.29486 59.1158 9.05377 60.0945 9.22148C61.0731 9.38919 61.7901 9.9395 62.2559 10.8724C62.5542 11.4751 62.6745 12.0621 62.6117 12.6386C62.5489 13.2151 62.3396 13.734 61.989 14.2004C62.7426 14.0537 63.4334 14.1323 64.0614 14.4258ZM53.8092 13.0317L55.6356 16.7109L58.9955 15.0338C59.838 14.6145 60.4085 14.1375 60.7068 13.5977C61.0051 13.0579 61.0051 12.4919 60.7068 11.8892C60.4085 11.2864 59.9532 10.9405 59.3461 10.8567C58.739 10.7728 58.0116 10.9353 57.169 11.3598L53.8092 13.0317ZM63.8416 18.4771C64.1608 17.9373 64.1556 17.3398 63.8311 16.6794C63.1926 15.4006 61.9419 15.2224 60.0735 16.1553L56.3003 18.0369L58.2 21.8628L61.9733 19.9813C62.9048 19.5201 63.5276 19.0222 63.8416 18.4771Z" fill="white"/>
<path d="M67.7676 5.33786L69.5051 4.7561L73.5714 16.9362L71.8339 17.518L67.7676 5.33786Z" fill="white"/>
<path d="M76.7949 2.63872L78.59 2.27185L80.8246 13.2937L87.628 11.9101L87.9473 13.4719L79.3488 15.2224L76.7949 2.63872Z" fill="white"/>
<path d="M91.2285 0.33791L93.055 0.191162L94.065 12.9897L92.2386 13.1312L91.2285 0.33791Z" fill="white"/>
</g>
<defs>
<clipPath id="clip0">
<rect width="198" height="198" fill="white" transform="translate(0.910156 0.191162)"/>
</clipPath>
</defs>
</svg>
