<svg width="93" height="49" viewBox="0 0 93 49" fill="none" xmlns="http://www.w3.org/2000/svg">
<path fill-rule="evenodd" clip-rule="evenodd" d="M0.242657 0.339483C0.223895 0.388417 0.217091 0.890947 0.227606 1.45629L0.246712 2.48417L4.43904 2.5254C7.23202 2.5529 8.74607 2.59324 8.975 2.6463C10.5157 3.00354 11.8633 3.7864 12.8081 4.87304C13.3315 5.47509 11.0387 1.93814 33.2912 36.4695L39.6466 46.3318H44.9515H50.2563L58.1233 34.1328C62.4501 27.4234 66.6178 20.9596 67.3847 19.7689C69.9918 15.7213 76.311 5.92339 76.7596 5.23324C77.6026 3.93643 78.4884 3.22003 79.834 2.74684L80.382 2.55413L86.2066 2.53379L92.0312 2.51338V1.382V0.250551H82.2082C75.5167 0.250551 72.2139 0.274331 71.8477 0.325188C71.1882 0.416732 70.1558 0.740298 69.5576 1.0429C68.5318 1.56179 67.4972 2.43723 66.8683 3.31858C66.6563 3.61562 62.4775 10.075 57.582 17.6728C42.394 41.2442 40.7974 43.711 40.7322 43.7059C40.6974 43.7031 35.0298 34.9529 28.1374 24.2609C21.2451 13.5689 15.4567 4.60439 15.2742 4.33979C13.749 2.1281 11.5067 0.723734 8.90627 0.351442C7.94788 0.214263 0.294752 0.20368 0.242657 0.339483ZM82.6843 30.937V48.0843H87.3578H92.0312V30.937V13.7897H87.3578H82.6843V30.937Z" fill="white"/>
</svg>
