<svg width="24" height="24" viewBox="0 0 24 24" fill="none" xmlns="http://www.w3.org/2000/svg">
<path d="M4.50235 0.212711C3.79035 0.228211 3.24875 0.56587 2.85958 1.01063L0.756839 3.41376C0.161474 4.09418 0.00585938 5.02392 0.00585938 5.92016C0.00585938 8.94992 2.15174 13.416 6.19206 17.4571C10.2331 21.4974 14.6992 23.6433 17.729 23.6433C18.6252 23.6433 19.5456 23.4877 20.226 22.8923L22.6291 20.7896C23.0739 20.4004 23.4209 19.8588 23.4364 19.1468C23.4512 18.4656 23.0718 17.9186 22.6573 17.504L19.353 14.1997C18.9483 13.795 18.4209 13.4299 17.729 13.43C16.9913 13.4299 16.4626 13.8422 16.105 14.1997C16.105 14.1997 14.8432 15.4574 14.8154 15.4814C14.5714 15.7141 14.3757 15.7422 14.1524 15.6078L8.03196 9.48731C7.81953 9.27489 7.99015 9.05365 8.12129 8.87921C8.15263 8.83753 9.44004 7.54417 9.44004 7.54417C9.79764 7.18656 10.2192 6.65776 10.2192 5.92016C10.2192 5.22825 9.84477 4.6915 9.44004 4.28678L6.13573 0.982465C5.72118 0.567912 5.18362 0.19789 4.50235 0.212711ZM5.29088 1.8367L8.59519 5.14102C8.93217 5.47799 9.01762 5.58794 9.01762 5.92016C9.01762 6.24768 8.8939 6.3912 8.59519 6.68991C8.59519 6.68991 7.30621 7.98367 7.2694 8.02573C7.01718 8.31386 6.83604 8.62311 6.77407 8.971C6.7188 9.48468 6.78809 9.93382 7.09323 10.2477L13.4015 16.5559C13.7284 16.8583 14.3108 16.9343 14.6781 16.8751C15.0201 16.8141 15.3178 16.6381 15.5997 16.3926C15.6465 16.3519 16.9498 15.054 16.9498 15.054C17.2486 14.7553 17.4015 14.6316 17.729 14.6316C18.0611 14.6316 18.1711 14.7171 18.5081 15.054L21.8124 18.3583C22.1018 18.6477 22.239 18.9284 22.2349 19.1187C22.2246 19.5901 22.2048 19.5604 21.8406 19.8791L19.4375 21.9819C19.1133 22.2655 18.4671 22.4418 17.729 22.4418C15.3018 22.4418 10.9078 20.4731 7.03691 16.6029C3.16676 12.732 1.20743 8.34729 1.20743 5.92016C1.20743 5.182 1.37436 4.53586 1.65802 4.21168L3.76076 1.80854C4.00675 1.52924 4.2582 1.41043 4.51174 1.41043C4.77806 1.41043 5.04309 1.59379 5.29088 1.8367Z" fill="white"/>
</svg>
