<svg width="529" height="111" viewBox="0 0 529 111" fill="none" xmlns="http://www.w3.org/2000/svg">
<path d="M22.3091 97.0485C23.0451 97.2299 23.6211 97.5605 24.0371 98.0405C24.4638 98.5205 24.6771 99.0965 24.6771 99.7685C24.6771 100.419 24.4745 100.99 24.0691 101.481C23.6638 101.971 23.1251 102.35 22.4531 102.617C21.7811 102.873 21.0505 103.001 20.2611 103.001C19.5145 103.001 18.7785 102.883 18.0531 102.649C17.3385 102.403 16.6931 102.041 16.1171 101.561L16.5491 100.713C17.0398 101.129 17.5998 101.449 18.2291 101.673C18.8585 101.886 19.4931 101.993 20.1331 101.993C20.7411 101.993 21.3011 101.897 21.8131 101.705C22.3251 101.513 22.7305 101.241 23.0291 100.889C23.3385 100.526 23.4931 100.099 23.4931 99.6085C23.4931 98.9579 23.2371 98.4565 22.7251 98.1045C22.2131 97.7525 21.4931 97.5765 20.5651 97.5765H18.1651V96.6165H20.5011C21.2905 96.6165 21.9038 96.4512 22.3411 96.1205C22.7891 95.7792 23.0131 95.3099 23.0131 94.7125C23.0131 94.0512 22.7305 93.5339 22.1651 93.1605C21.5998 92.7765 20.8905 92.5845 20.0371 92.5845C19.5038 92.5845 18.9651 92.6645 18.4211 92.8245C17.8771 92.9739 17.3598 93.2032 16.8691 93.5125L16.4691 92.5365C17.5785 91.8752 18.7785 91.5445 20.0691 91.5445C20.8265 91.5445 21.5198 91.6672 22.1491 91.9125C22.7785 92.1579 23.2745 92.5099 23.6371 92.9685C24.0105 93.4272 24.1971 93.9659 24.1971 94.5845C24.1971 95.1819 24.0318 95.6992 23.7011 96.1365C23.3705 96.5632 22.9065 96.8672 22.3091 97.0485ZM30.241 94.4245C31.3397 94.4245 32.1823 94.7019 32.769 95.2565C33.3557 95.8005 33.649 96.6112 33.649 97.6885V102.905H32.561V101.593C32.305 102.03 31.9263 102.371 31.425 102.617C30.9343 102.862 30.3477 102.985 29.665 102.985C28.7263 102.985 27.9797 102.761 27.425 102.313C26.8703 101.865 26.593 101.273 26.593 100.537C26.593 99.8219 26.849 99.2459 27.361 98.8085C27.8837 98.3712 28.7103 98.1525 29.841 98.1525H32.513V97.6405C32.513 96.9152 32.3103 96.3659 31.905 95.9925C31.4997 95.6085 30.9077 95.4165 30.129 95.4165C29.5957 95.4165 29.0837 95.5072 28.593 95.6885C28.1023 95.8592 27.681 96.0992 27.329 96.4085L26.817 95.5605C27.2437 95.1979 27.7557 94.9205 28.353 94.7285C28.9503 94.5259 29.5797 94.4245 30.241 94.4245ZM29.841 102.089C30.481 102.089 31.0303 101.945 31.489 101.657C31.9477 101.358 32.289 100.931 32.513 100.377V99.0005H29.873C28.433 99.0005 27.713 99.5019 27.713 100.505C27.713 100.995 27.8997 101.385 28.273 101.673C28.6463 101.95 29.169 102.089 29.841 102.089ZM39.7291 99.1605H37.8091V102.905H36.6731V94.4885H37.8091V98.1845H39.7451L42.7051 94.4885H43.9371L40.6251 98.5685L44.1771 102.905H42.8331L39.7291 99.1605ZM48.7098 94.4245C49.8084 94.4245 50.6511 94.7019 51.2378 95.2565C51.8244 95.8005 52.1178 96.6112 52.1178 97.6885V102.905H51.0298V101.593C50.7738 102.03 50.3951 102.371 49.8938 102.617C49.4031 102.862 48.8164 102.985 48.1338 102.985C47.1951 102.985 46.4484 102.761 45.8938 102.313C45.3391 101.865 45.0618 101.273 45.0618 100.537C45.0618 99.8219 45.3178 99.2459 45.8298 98.8085C46.3524 98.3712 47.1791 98.1525 48.3098 98.1525H50.9818V97.6405C50.9818 96.9152 50.7791 96.3659 50.3738 95.9925C49.9684 95.6085 49.3764 95.4165 48.5978 95.4165C48.0644 95.4165 47.5524 95.5072 47.0618 95.6885C46.5711 95.8592 46.1498 96.0992 45.7978 96.4085L45.2858 95.5605C45.7124 95.1979 46.2244 94.9205 46.8218 94.7285C47.4191 94.5259 48.0484 94.4245 48.7098 94.4245ZM48.3098 102.089C48.9498 102.089 49.4991 101.945 49.9578 101.657C50.4164 101.358 50.7578 100.931 50.9818 100.377V99.0005H48.3418C46.9018 99.0005 46.1818 99.5019 46.1818 100.505C46.1818 100.995 46.3684 101.385 46.7418 101.673C47.1151 101.95 47.6378 102.089 48.3098 102.089ZM59.066 98.5205C59.6633 98.6592 60.122 98.8992 60.442 99.2405C60.7727 99.5819 60.938 99.9979 60.938 100.489C60.938 100.979 60.7673 101.417 60.426 101.801C60.0953 102.185 59.642 102.483 59.066 102.697C58.49 102.899 57.8553 103.001 57.162 103.001C56.554 103.001 55.9567 102.915 55.37 102.745C54.7833 102.563 54.2713 102.302 53.834 101.961L54.218 101.113C54.602 101.401 55.05 101.625 55.562 101.785C56.074 101.945 56.5913 102.025 57.114 102.025C57.8927 102.025 58.5273 101.881 59.018 101.593C59.5193 101.294 59.77 100.894 59.77 100.393C59.77 99.9445 59.5673 99.5979 59.162 99.3525C58.7567 99.0965 58.202 98.9685 57.498 98.9685H56.058V98.1365H57.434C58.0633 98.1365 58.57 98.0192 58.954 97.7845C59.338 97.5392 59.53 97.2139 59.53 96.8085C59.53 96.3605 59.3113 96.0085 58.874 95.7525C58.4473 95.4965 57.8873 95.3685 57.194 95.3685C56.2873 95.3685 55.3913 95.5979 54.506 96.0565L54.186 95.1765C55.1887 94.6539 56.2287 94.3925 57.306 94.3925C57.946 94.3925 58.522 94.4885 59.034 94.6805C59.5567 94.8619 59.962 95.1232 60.25 95.4645C60.5487 95.8059 60.698 96.2005 60.698 96.6485C60.698 97.0752 60.5487 97.4539 60.25 97.7845C59.962 98.1152 59.5673 98.3605 59.066 98.5205Z" fill="#191F25"/>
<path d="M206.593 91.7045H207.761V100.985L214.929 91.7045H216.001V102.905H214.833V93.6405L207.665 102.905H206.593V91.7045ZM223.604 98.5205C224.201 98.6592 224.66 98.8992 224.98 99.2405C225.311 99.5819 225.476 99.9979 225.476 100.489C225.476 100.979 225.305 101.417 224.964 101.801C224.633 102.185 224.18 102.483 223.604 102.697C223.028 102.899 222.393 103.001 221.7 103.001C221.092 103.001 220.495 102.915 219.908 102.745C219.321 102.563 218.809 102.302 218.372 101.961L218.756 101.113C219.14 101.401 219.588 101.625 220.1 101.785C220.612 101.945 221.129 102.025 221.652 102.025C222.431 102.025 223.065 101.881 223.556 101.593C224.057 101.294 224.308 100.894 224.308 100.393C224.308 99.9445 224.105 99.5979 223.7 99.3525C223.295 99.0965 222.74 98.9685 222.036 98.9685H220.596V98.1365H221.972C222.601 98.1365 223.108 98.0192 223.492 97.7845C223.876 97.5392 224.068 97.2139 224.068 96.8085C224.068 96.3605 223.849 96.0085 223.412 95.7525C222.985 95.4965 222.425 95.3685 221.732 95.3685C220.825 95.3685 219.929 95.5979 219.044 96.0565L218.724 95.1765C219.727 94.6539 220.767 94.3925 221.844 94.3925C222.484 94.3925 223.06 94.4885 223.572 94.6805C224.095 94.8619 224.5 95.1232 224.788 95.4645C225.087 95.8059 225.236 96.2005 225.236 96.6485C225.236 97.0752 225.087 97.4539 224.788 97.7845C224.5 98.1152 224.105 98.3605 223.604 98.5205ZM234.007 95.4965H229.191V102.905H228.055V94.4885H234.007V95.4965ZM238.73 102.985C237.919 102.985 237.189 102.803 236.538 102.441C235.887 102.067 235.375 101.555 235.002 100.905C234.629 100.254 234.442 99.5179 234.442 98.6965C234.442 97.8752 234.629 97.1392 235.002 96.4885C235.375 95.8379 235.887 95.3312 236.538 94.9685C237.189 94.6059 237.919 94.4245 238.73 94.4245C239.541 94.4245 240.271 94.6059 240.922 94.9685C241.573 95.3312 242.079 95.8379 242.442 96.4885C242.815 97.1392 243.002 97.8752 243.002 98.6965C243.002 99.5179 242.815 100.254 242.442 100.905C242.079 101.555 241.573 102.067 240.922 102.441C240.271 102.803 239.541 102.985 238.73 102.985ZM238.73 101.977C239.327 101.977 239.861 101.843 240.33 101.577C240.81 101.299 241.183 100.91 241.45 100.409C241.717 99.9072 241.85 99.3365 241.85 98.6965C241.85 98.0565 241.717 97.4859 241.45 96.9845C241.183 96.4832 240.81 96.0992 240.33 95.8325C239.861 95.5552 239.327 95.4165 238.73 95.4165C238.133 95.4165 237.594 95.5552 237.114 95.8325C236.645 96.0992 236.271 96.4832 235.994 96.9845C235.727 97.4859 235.594 98.0565 235.594 98.6965C235.594 99.3365 235.727 99.9072 235.994 100.409C236.271 100.91 236.645 101.299 237.114 101.577C237.594 101.843 238.133 101.977 238.73 101.977ZM251.037 95.4965H247.853V102.905H246.717V95.4965H243.533V94.4885H251.037V95.4965ZM255.761 102.985C254.951 102.985 254.22 102.803 253.569 102.441C252.919 102.067 252.407 101.555 252.033 100.905C251.66 100.254 251.473 99.5179 251.473 98.6965C251.473 97.8752 251.66 97.1392 252.033 96.4885C252.407 95.8379 252.919 95.3312 253.569 94.9685C254.22 94.6059 254.951 94.4245 255.761 94.4245C256.572 94.4245 257.303 94.6059 257.953 94.9685C258.604 95.3312 259.111 95.8379 259.473 96.4885C259.847 97.1392 260.033 97.8752 260.033 98.6965C260.033 99.5179 259.847 100.254 259.473 100.905C259.111 101.555 258.604 102.067 257.953 102.441C257.303 102.803 256.572 102.985 255.761 102.985ZM255.761 101.977C256.359 101.977 256.892 101.843 257.361 101.577C257.841 101.299 258.215 100.91 258.481 100.409C258.748 99.9072 258.881 99.3365 258.881 98.6965C258.881 98.0565 258.748 97.4859 258.481 96.9845C258.215 96.4832 257.841 96.0992 257.361 95.8325C256.892 95.5552 256.359 95.4165 255.761 95.4165C255.164 95.4165 254.625 95.5552 254.145 95.8325C253.676 96.0992 253.303 96.4832 253.025 96.9845C252.759 97.4859 252.625 98.0565 252.625 98.6965C252.625 99.3365 252.759 99.9072 253.025 100.409C253.303 100.91 253.676 101.299 254.145 101.577C254.625 101.843 255.164 101.977 255.761 101.977ZM267.821 98.5525C268.963 98.8192 269.533 99.5072 269.533 100.617C269.533 101.353 269.261 101.918 268.717 102.313C268.173 102.707 267.363 102.905 266.285 102.905H262.461V94.4885H266.173C267.133 94.4885 267.885 94.6752 268.429 95.0485C268.973 95.4219 269.245 95.9552 269.245 96.6485C269.245 97.1072 269.117 97.5019 268.861 97.8325C268.616 98.1525 268.269 98.3925 267.821 98.5525ZM263.565 98.2325H266.093C266.744 98.2325 267.24 98.1099 267.581 97.8645C267.933 97.6192 268.109 97.2619 268.109 96.7925C268.109 96.3232 267.933 95.9712 267.581 95.7365C267.24 95.5019 266.744 95.3845 266.093 95.3845H263.565V98.2325ZM266.237 102.009C266.963 102.009 267.507 101.891 267.869 101.657C268.232 101.422 268.413 101.054 268.413 100.553C268.413 100.051 268.248 99.6832 267.917 99.4485C267.587 99.2032 267.064 99.0805 266.349 99.0805H263.565V102.009H266.237ZM279.076 94.4885V102.905H277.94V95.4965H273.908L273.796 97.5765C273.71 99.3259 273.508 100.67 273.188 101.609C272.868 102.547 272.297 103.017 271.476 103.017C271.252 103.017 270.98 102.974 270.66 102.889L270.74 101.913C270.932 101.955 271.065 101.977 271.14 101.977C271.577 101.977 271.908 101.774 272.132 101.369C272.356 100.963 272.505 100.462 272.58 99.8645C272.654 99.2672 272.718 98.4779 272.772 97.4965L272.916 94.4885H279.076ZM289.665 99.0485H282.625C282.689 99.9232 283.025 100.633 283.633 101.177C284.241 101.71 285.009 101.977 285.937 101.977C286.46 101.977 286.94 101.886 287.377 101.705C287.814 101.513 288.193 101.235 288.513 100.873L289.153 101.609C288.78 102.057 288.31 102.398 287.745 102.633C287.19 102.867 286.577 102.985 285.905 102.985C285.041 102.985 284.273 102.803 283.601 102.441C282.94 102.067 282.422 101.555 282.049 100.905C281.676 100.254 281.489 99.5179 281.489 98.6965C281.489 97.8752 281.665 97.1392 282.017 96.4885C282.38 95.8379 282.87 95.3312 283.489 94.9685C284.118 94.6059 284.822 94.4245 285.601 94.4245C286.38 94.4245 287.078 94.6059 287.697 94.9685C288.316 95.3312 288.801 95.8379 289.153 96.4885C289.505 97.1285 289.681 97.8645 289.681 98.6965L289.665 99.0485ZM285.601 95.4005C284.79 95.4005 284.108 95.6619 283.553 96.1845C283.009 96.6965 282.7 97.3685 282.625 98.2005H288.593C288.518 97.3685 288.204 96.6965 287.649 96.1845C287.105 95.6619 286.422 95.4005 285.601 95.4005ZM292.196 94.4885H293.332V98.2165H298.628V94.4885H299.764V102.905H298.628V99.1925H293.332V102.905H292.196V94.4885ZM302.992 94.4885H304.128V101.177L309.744 94.4885H310.752V102.905H309.616V96.2165L304.016 102.905H302.992V94.4885ZM321.368 99.0485H314.328C314.392 99.9232 314.728 100.633 315.336 101.177C315.944 101.71 316.712 101.977 317.64 101.977C318.163 101.977 318.643 101.886 319.08 101.705C319.517 101.513 319.896 101.235 320.216 100.873L320.856 101.609C320.483 102.057 320.013 102.398 319.448 102.633C318.893 102.867 318.28 102.985 317.608 102.985C316.744 102.985 315.976 102.803 315.304 102.441C314.643 102.067 314.125 101.555 313.752 100.905C313.379 100.254 313.192 99.5179 313.192 98.6965C313.192 97.8752 313.368 97.1392 313.72 96.4885C314.083 95.8379 314.573 95.3312 315.192 94.9685C315.821 94.6059 316.525 94.4245 317.304 94.4245C318.083 94.4245 318.781 94.6059 319.4 94.9685C320.019 95.3312 320.504 95.8379 320.856 96.4885C321.208 97.1285 321.384 97.8645 321.384 98.6965L321.368 99.0485ZM317.304 95.4005C316.493 95.4005 315.811 95.6619 315.256 96.1845C314.712 96.6965 314.403 97.3685 314.328 98.2005H320.296C320.221 97.3685 319.907 96.6965 319.352 96.1845C318.808 95.6619 318.125 95.4005 317.304 95.4005Z" fill="#191F25"/>
<path d="M451.012 103.001C449.903 103.001 448.895 102.755 447.988 102.265C447.092 101.763 446.388 101.081 445.876 100.217C445.375 99.3525 445.124 98.3819 445.124 97.3045C445.124 96.2272 445.375 95.2565 445.876 94.3925C446.388 93.5285 447.092 92.8512 447.988 92.3605C448.895 91.8592 449.903 91.6085 451.012 91.6085C452.121 91.6085 453.119 91.8539 454.004 92.3445C454.9 92.8352 455.604 93.5179 456.116 94.3925C456.628 95.2565 456.884 96.2272 456.884 97.3045C456.884 98.3819 456.628 99.3579 456.116 100.233C455.604 101.097 454.9 101.774 454.004 102.265C453.119 102.755 452.121 103.001 451.012 103.001ZM451.012 101.945C451.897 101.945 452.697 101.747 453.412 101.353C454.127 100.947 454.687 100.393 455.092 99.6885C455.497 98.9739 455.7 98.1792 455.7 97.3045C455.7 96.4299 455.497 95.6405 455.092 94.9365C454.687 94.2219 454.127 93.6672 453.412 93.2725C452.697 92.8672 451.897 92.6645 451.012 92.6645C450.127 92.6645 449.321 92.8672 448.596 93.2725C447.881 93.6672 447.316 94.2219 446.9 94.9365C446.495 95.6405 446.292 96.4299 446.292 97.3045C446.292 98.1792 446.495 98.9739 446.9 99.6885C447.316 100.393 447.881 100.947 448.596 101.353C449.321 101.747 450.127 101.945 451.012 101.945ZM465.123 95.4965H461.939V102.905H460.803V95.4965H457.619V94.4885H465.123V95.4965ZM474.317 94.4885V102.905H473.181V95.4965H467.901V102.905H466.765V94.4885H474.317ZM481.883 94.4245C482.672 94.4245 483.387 94.6059 484.027 94.9685C484.667 95.3205 485.168 95.8219 485.531 96.4725C485.893 97.1232 486.075 97.8645 486.075 98.6965C486.075 99.5392 485.893 100.286 485.531 100.937C485.168 101.587 484.667 102.094 484.027 102.457C483.397 102.809 482.683 102.985 481.883 102.985C481.2 102.985 480.581 102.846 480.027 102.569C479.483 102.281 479.035 101.865 478.683 101.321V106.009H477.547V94.4885H478.635V96.1525C478.976 95.5979 479.424 95.1712 479.979 94.8725C480.544 94.5739 481.179 94.4245 481.883 94.4245ZM481.803 101.977C482.389 101.977 482.923 101.843 483.403 101.577C483.883 101.299 484.256 100.91 484.523 100.409C484.8 99.9072 484.939 99.3365 484.939 98.6965C484.939 98.0565 484.8 97.4912 484.523 97.0005C484.256 96.4992 483.883 96.1099 483.403 95.8325C482.923 95.5552 482.389 95.4165 481.803 95.4165C481.205 95.4165 480.667 95.5552 480.187 95.8325C479.717 96.1099 479.344 96.4992 479.067 97.0005C478.8 97.4912 478.667 98.0565 478.667 98.6965C478.667 99.3365 478.8 99.9072 479.067 100.409C479.344 100.91 479.717 101.299 480.187 101.577C480.667 101.843 481.205 101.977 481.803 101.977ZM491.365 94.4245C492.463 94.4245 493.306 94.7019 493.893 95.2565C494.479 95.8005 494.773 96.6112 494.773 97.6885V102.905H493.685V101.593C493.429 102.03 493.05 102.371 492.549 102.617C492.058 102.862 491.471 102.985 490.789 102.985C489.85 102.985 489.103 102.761 488.549 102.313C487.994 101.865 487.717 101.273 487.717 100.537C487.717 99.8219 487.973 99.2459 488.485 98.8085C489.007 98.3712 489.834 98.1525 490.965 98.1525H493.637V97.6405C493.637 96.9152 493.434 96.3659 493.029 95.9925C492.623 95.6085 492.031 95.4165 491.253 95.4165C490.719 95.4165 490.207 95.5072 489.717 95.6885C489.226 95.8592 488.805 96.0992 488.453 96.4085L487.941 95.5605C488.367 95.1979 488.879 94.9205 489.477 94.7285C490.074 94.5259 490.703 94.4245 491.365 94.4245ZM490.965 102.089C491.605 102.089 492.154 101.945 492.613 101.657C493.071 101.358 493.413 100.931 493.637 100.377V99.0005H490.997C489.557 99.0005 488.837 99.5019 488.837 100.505C488.837 100.995 489.023 101.385 489.397 101.673C489.77 101.95 490.293 102.089 490.965 102.089ZM503.157 98.5525C504.298 98.8192 504.869 99.5072 504.869 100.617C504.869 101.353 504.597 101.918 504.053 102.313C503.509 102.707 502.698 102.905 501.621 102.905H497.797V94.4885H501.509C502.469 94.4885 503.221 94.6752 503.765 95.0485C504.309 95.4219 504.581 95.9552 504.581 96.6485C504.581 97.1072 504.453 97.5019 504.197 97.8325C503.951 98.1525 503.605 98.3925 503.157 98.5525ZM498.901 98.2325H501.429C502.079 98.2325 502.575 98.1099 502.917 97.8645C503.269 97.6192 503.445 97.2619 503.445 96.7925C503.445 96.3232 503.269 95.9712 502.917 95.7365C502.575 95.5019 502.079 95.3845 501.429 95.3845H498.901V98.2325ZM501.573 102.009C502.298 102.009 502.842 101.891 503.205 101.657C503.567 101.422 503.749 101.054 503.749 100.553C503.749 100.051 503.583 99.6832 503.253 99.4485C502.922 99.2032 502.399 99.0805 501.685 99.0805H498.901V102.009H501.573ZM510.587 99.1605H508.667V102.905H507.531V94.4885H508.667V98.1845H510.603L513.563 94.4885H514.795L511.483 98.5685L515.035 102.905H513.691L510.587 99.1605ZM519.568 94.4245C520.666 94.4245 521.509 94.7019 522.096 95.2565C522.682 95.8005 522.976 96.6112 522.976 97.6885V102.905H521.888V101.593C521.632 102.03 521.253 102.371 520.752 102.617C520.261 102.862 519.674 102.985 518.992 102.985C518.053 102.985 517.306 102.761 516.752 102.313C516.197 101.865 515.92 101.273 515.92 100.537C515.92 99.8219 516.176 99.2459 516.688 98.8085C517.21 98.3712 518.037 98.1525 519.168 98.1525H521.84V97.6405C521.84 96.9152 521.637 96.3659 521.232 95.9925C520.826 95.6085 520.234 95.4165 519.456 95.4165C518.922 95.4165 518.41 95.5072 517.92 95.6885C517.429 95.8592 517.008 96.0992 516.656 96.4085L516.144 95.5605C516.57 95.1979 517.082 94.9205 517.68 94.7285C518.277 94.5259 518.906 94.4245 519.568 94.4245ZM519.168 102.089C519.808 102.089 520.357 101.945 520.816 101.657C521.274 101.358 521.616 100.931 521.84 100.377V99.0005H519.2C517.76 99.0005 517.04 99.5019 517.04 100.505C517.04 100.995 517.226 101.385 517.6 101.673C517.973 101.95 518.496 102.089 519.168 102.089Z" fill="#191F25"/>
<circle cx="39.7299" cy="39.3854" r="38.9252" fill="#5B6A80"/>
<path fill-rule="evenodd" clip-rule="evenodd" d="M39.0414 14.6309C37.3311 14.9036 35.879 15.963 35.0853 17.5171L34.8041 18.0677L29.8993 18.0906C25.7233 18.11 24.934 18.128 24.5883 18.2111C23.0375 18.5838 21.6898 19.6427 20.9736 21.0513C20.6957 21.5978 20.5243 22.2701 20.4593 23.0681C20.4175 23.5821 20.4025 29.3226 20.4159 39.784L20.4361 55.717L20.5739 56.231C21.1046 58.2103 22.5422 59.6368 24.5127 60.1394L25.0569 60.2783H39.7715H54.4862L55.0173 60.1376C56.6077 59.7164 57.8638 58.7015 58.5466 57.2861C59.1004 56.1381 59.0474 58.0516 59.0474 39.1904V22.4763L58.9037 21.98C58.4429 20.3887 57.3118 19.1302 55.767 18.4901C54.8347 18.1037 55.0029 18.1147 49.6256 18.0878L44.7024 18.0632L44.5496 17.7175C44.0921 16.6829 43.113 15.661 42.0707 15.1299C41.2457 14.7096 39.919 14.491 39.0414 14.6309ZM40.3942 18.2268C40.7752 18.3612 41.0948 18.6393 41.3055 19.0195C41.4878 19.3487 41.49 19.3642 41.5103 20.4925L41.531 21.6328H43.2755H45.02V23.3823V25.1318H39.7715H34.523L34.5214 24.9912C34.5205 24.9139 34.5167 24.1337 34.5129 23.2574L34.5061 21.664L36.2641 21.6474L38.022 21.6309V20.5808C38.022 19.3887 38.0812 19.1184 38.4317 18.7089C38.7517 18.335 39.2002 18.1338 39.7135 18.1338C39.9429 18.1338 40.2493 18.1756 40.3942 18.2268ZM30.9615 25.132V28.6313L39.7559 28.6154L48.5503 28.5996L48.5651 25.2568C48.5733 23.4182 48.5803 21.8507 48.5807 21.7734L48.5816 21.6328L51.4089 21.6334L54.2362 21.6341L54.5486 21.7801C54.7205 21.8606 54.9786 22.0544 55.1224 22.211C55.6205 22.7535 55.5796 21.2366 55.5796 39.1904C55.5796 57.136 55.62 55.6289 55.1252 56.1656C54.983 56.3199 54.753 56.507 54.6139 56.5814L54.3612 56.7168H39.7715H25.1818L24.8382 56.5241C24.4647 56.3146 24.1379 55.9054 24.028 55.5094C23.9852 55.3557 23.9645 49.9324 23.9652 39.1279C23.9662 23.0355 23.9666 22.9752 24.0929 22.6968C24.2973 22.2461 24.4993 22.0307 24.9098 21.8256L25.2955 21.6328H28.1285H30.9615V25.132ZM44.1765 38.4407C40.8088 41.8084 38.0374 44.5639 38.0178 44.5639C37.9982 44.5639 36.8172 43.3977 35.3934 41.9722C33.9696 40.5468 32.7763 39.3799 32.7416 39.3792C32.7069 39.3785 32.1306 39.9263 31.4611 40.5965L30.2436 41.8152L34.1328 45.7045L38.022 49.5936L45.4104 42.2053L52.7989 34.8168L51.5492 33.5671L50.2995 32.3174L44.1765 38.4407Z" fill="white"/>
<circle cx="262.063" cy="39.3854" r="38.9252" fill="#5B6A80"/>
<circle cx="480.996" cy="39.3854" r="38.9252" fill="#5B6A80"/>
<line x1="66.1692" y1="41.8008" x2="230.832" y2="41.8008" stroke="#5B6A80" stroke-opacity="0.35" stroke-width="5.28782" stroke-dasharray="12.78 12.78"/>
<line x1="291.792" y1="41.8008" x2="456.454" y2="41.8008" stroke="#5B6A80" stroke-opacity="0.35" stroke-width="5.28782" stroke-dasharray="12.78 12.78"/>
<path d="M489.778 21.6006C489.538 21.6072 489.305 21.6854 489.11 21.8252C488.914 21.9651 488.765 22.1602 488.682 22.3854C488.598 22.6107 488.584 22.8558 488.64 23.0893C488.697 23.3228 488.823 23.5339 489 23.6956L492.789 27.2332H482.201V24.0218H485.814C485.974 24.024 486.132 23.9945 486.28 23.935C486.428 23.8755 486.563 23.7872 486.677 23.6751C486.79 23.5631 486.881 23.4295 486.942 23.2823C487.004 23.1351 487.035 22.9771 487.035 22.8175C487.035 22.6579 487.004 22.4999 486.942 22.3526C486.881 22.2054 486.79 22.0719 486.677 21.9598C486.563 21.8478 486.428 21.7594 486.28 21.6999C486.132 21.6404 485.974 21.6109 485.814 21.6132H472.166C472.124 21.611 472.082 21.611 472.04 21.6132C471.776 21.6416 471.529 21.7562 471.338 21.9393L465.316 27.5593C465.197 27.6723 465.102 27.8085 465.037 27.9595C464.972 28.1105 464.939 28.2732 464.94 28.4374V52.5231C464.938 52.6827 464.967 52.8411 465.027 52.9892C465.086 53.1373 465.174 53.2721 465.286 53.3857C465.399 53.4994 465.532 53.5896 465.679 53.6512C465.826 53.7128 465.985 53.7445 466.144 53.7445C466.304 53.7445 466.462 53.7128 466.609 53.6512C466.756 53.5896 466.89 53.4994 467.002 53.3857C467.114 53.2721 467.202 53.1373 467.262 52.9892C467.321 52.8411 467.351 52.6827 467.348 52.5231V29.6417H494.645V51.3188H470.158C469.999 51.3165 469.84 51.346 469.692 51.4055C469.544 51.465 469.409 51.5534 469.296 51.6654C469.182 51.7775 469.092 51.911 469.03 52.0582C468.969 52.2055 468.937 52.3635 468.937 52.5231C468.937 52.6827 468.969 52.8407 469.03 52.9879C469.092 53.1352 469.182 53.2687 469.296 53.3807C469.409 53.4928 469.544 53.5811 469.692 53.6406C469.84 53.7001 469.999 53.7296 470.158 53.7274H495.85C496.169 53.7273 496.475 53.6004 496.701 53.3746C496.927 53.1488 497.054 52.8425 497.054 52.5231V28.4374C497.054 28.2732 497.021 28.1105 496.957 27.9595C496.892 27.8085 496.797 27.6723 496.678 27.5593L490.656 21.9393C490.54 21.8268 490.403 21.7389 490.252 21.6807C490.101 21.6225 489.94 21.5953 489.778 21.6006ZM472.642 24.0218H479.793V27.2332H469.205L472.642 24.0218ZM480.984 32.4266C480.825 32.4283 480.668 32.4615 480.522 32.5243C480.375 32.5871 480.243 32.6783 480.132 32.7927C480.021 32.907 479.934 33.0422 479.876 33.1904C479.818 33.3385 479.789 33.4968 479.793 33.656V44.0429L477.096 40.8942C476.966 40.7381 476.799 40.6171 476.611 40.5425C476.422 40.468 476.218 40.4422 476.017 40.4677C475.799 40.4947 475.593 40.5807 475.42 40.7164C475.248 40.8522 475.116 41.0324 475.038 41.2377C474.961 41.4431 474.941 41.6657 474.981 41.8815C475.02 42.0973 475.118 42.2982 475.264 42.4623L480.081 48.0823C480.194 48.2147 480.335 48.3209 480.493 48.3938C480.651 48.4667 480.823 48.5044 480.997 48.5044C481.171 48.5044 481.343 48.4667 481.501 48.3938C481.659 48.3209 481.8 48.2147 481.913 48.0823L486.73 42.4623C486.833 42.3421 486.912 42.2027 486.962 42.052C487.011 41.9013 487.031 41.7423 487.019 41.5841C487.007 41.4259 486.964 41.2716 486.892 41.1301C486.82 40.9886 486.721 40.8627 486.601 40.7595C486.48 40.6563 486.34 40.5779 486.19 40.5289C486.039 40.4798 485.88 40.461 485.721 40.4735C485.563 40.486 485.409 40.5296 485.268 40.6018C485.127 40.674 485.001 40.7734 484.898 40.8942L482.201 44.0429V33.656C482.205 33.4947 482.175 33.3344 482.116 33.1845C482.056 33.0347 481.967 32.8984 481.853 32.7837C481.74 32.669 481.604 32.5783 481.455 32.517C481.306 32.4557 481.146 32.4249 480.984 32.4266Z" fill="white"/>
<path fill-rule="evenodd" clip-rule="evenodd" d="M246.975 14.6255C246.68 14.6881 246.278 14.8769 245.915 15.1234C245.496 15.4078 244.332 16.5062 242.814 18.0504C240.372 20.532 239.173 21.8474 238.987 22.2475C238.82 22.6056 238.743 23.1225 238.776 23.6626C238.815 24.3009 238.964 24.7237 239.291 25.1197C239.932 25.8967 241.663 27.6621 248.419 34.4291L255.625 41.6473L250.962 46.3057C245.948 51.3135 244.339 52.9682 244.025 53.4378C243.77 53.8197 243.763 54.0162 243.991 54.3607C244.266 54.7767 246.804 57.3809 248.124 58.6016C248.66 59.0976 249.048 59.3208 249.277 59.2649C249.719 59.157 250.115 58.782 256.172 52.7412L261.452 47.4746L268.504 54.5144C275.18 61.1788 277.093 63.0546 277.846 63.6756C278.314 64.0616 278.707 64.1816 279.507 64.1822C280.379 64.1829 280.702 64.074 281.292 63.5814C282.682 62.4198 286.624 58.5029 287.67 57.2441C287.991 56.858 288.194 56.4563 288.324 55.9493C288.486 55.3191 288.321 54.4083 287.943 53.8428C287.559 53.2699 286.381 52.0601 279.042 44.7073L271.635 37.2858L275.279 33.6418L278.923 29.9978L280.466 26.9583C283.239 21.4963 283.485 20.9173 283.26 20.3798C283.151 20.1171 282.895 19.8043 282.714 19.7104C282.5 19.6 281.929 19.5628 281.603 19.6381C281.087 19.7571 279.318 20.6818 274.077 23.5728L273.358 23.9695L269.58 27.7119L265.802 31.4542L258.752 24.4179C252.091 17.7699 250.255 15.9691 249.359 15.2046C249.041 14.9333 248.906 14.8556 248.566 14.7471C248.113 14.6025 247.356 14.5447 246.975 14.6255ZM248.035 16.8714C249.002 17.6687 252.109 20.7314 264.482 33.0827C273.404 41.9893 283.57 52.2186 284.922 53.6497C286.089 54.8857 286.369 55.2249 286.369 55.4003C286.369 55.6392 285.95 56.1164 283.993 58.1044C280.837 61.3106 279.977 62.0985 279.562 62.1658C279.23 62.2198 279.114 62.153 278.418 61.5093L278.052 61.1703L278.776 60.4071L279.5 59.644L278.807 58.9509L278.114 58.2579L277.38 58.9912L276.645 59.7245L275.911 58.9913L275.176 58.258L276.594 56.8391C277.375 56.0587 278.013 55.3979 278.013 55.3705C278.013 55.3048 276.636 53.9268 276.57 53.9268C276.542 53.9268 275.881 54.565 275.1 55.345L273.681 56.7633L272.986 56.0661L272.29 55.3689L273.024 54.6358L273.758 53.9027L273.037 53.1804C272.641 52.7831 272.293 52.458 272.264 52.458C272.236 52.458 271.894 52.7771 271.505 53.1671L270.797 53.8761L270.1 53.1803L269.402 52.4844L270.846 51.0399L272.29 49.5956L271.555 48.8622L270.821 48.1288L269.377 49.5714L267.934 51.0141L267.187 50.2675L266.441 49.521L267.174 48.7862L267.908 48.0514L267.212 47.3557L266.516 46.6599L265.782 47.3934L265.047 48.1269L264.3 47.3804L263.554 46.6338L264.996 45.1905L266.439 43.7472L265.706 43.0125L264.972 42.2778L263.528 43.7216L262.083 45.1653L261.386 44.4668L260.689 43.7683L260.849 43.6183C261.236 43.2549 262.008 42.3551 262.008 42.2673C262.008 42.1323 260.838 40.9613 260.703 40.9613C260.592 40.9613 260.268 41.2325 259.602 41.8819L259.196 42.2778L258.501 41.581L257.805 40.8844L259.223 39.4671C260.003 38.6876 260.641 38.0272 260.641 37.9995C260.641 37.9333 259.265 36.5551 259.199 36.5551C259.171 36.5551 258.509 37.1933 257.729 37.9734L256.31 39.3916L255.577 38.6571L254.843 37.9226L255.577 37.188L256.31 36.4534L255.614 35.7577L254.918 35.0619L254.184 35.7954L253.449 36.5289L252.702 35.7824L251.956 35.0358L253.398 33.5925L254.841 32.1492L254.108 31.4145L253.374 30.6798L251.93 32.1236L250.485 33.5673L249.791 32.8708L249.097 32.1742L249.812 31.4233L250.528 30.6723L249.799 29.9419L249.07 29.2114L248.334 29.9458L247.598 30.6802L246.906 29.9838L246.214 29.2874L247.606 27.797L248.998 26.3065L248.325 25.6318C247.955 25.2607 247.629 24.9571 247.601 24.9571C247.573 24.9571 246.911 25.5953 246.131 26.3754L244.712 27.7936L243.979 27.0591L243.245 26.3246L243.978 25.5902L244.711 24.8559L244.029 24.1721C243.654 23.7961 243.335 23.4884 243.32 23.4884C243.305 23.4884 242.956 23.8107 242.544 24.2046L241.794 24.9209L241.456 24.55C240.809 23.8419 240.75 23.7388 240.804 23.4074C240.848 23.1342 241.213 22.6694 242.184 21.6496C243.361 20.4128 246.724 17.1327 247.12 16.8351C247.53 16.5275 247.622 16.5311 248.035 16.8714ZM280.119 23.0452C279.999 23.3029 279.45 24.4135 278.9 25.5132L277.9 27.5126L276.922 26.5191C276.059 25.6408 275.626 25.1401 275.688 25.0914C275.821 24.9881 280.242 22.5788 280.302 22.5775C280.321 22.5771 280.238 22.7875 280.119 23.0452ZM275.289 27.8819L276.697 29.2874L273.43 32.5539L270.162 35.8205L268.717 34.3745L267.271 32.9285L270.513 29.7025C272.297 27.9282 273.784 26.4765 273.819 26.4765C273.853 26.4765 274.515 27.109 275.289 27.8819ZM258.552 44.5701L259.982 46.0011L256.032 49.9511L252.082 53.901L250.638 52.458L249.195 51.0151L253.133 47.0771C255.298 44.9112 257.082 43.1391 257.096 43.1391C257.11 43.1391 257.765 43.783 258.552 44.5701ZM249.183 53.94L250.613 55.3712L249.879 56.1046L249.144 56.8379L247.701 55.3955L246.258 53.9531L246.979 53.2309C247.375 52.8337 247.711 52.5087 247.726 52.5087C247.74 52.5087 248.396 53.1528 249.183 53.94Z" fill="white"/>
</svg>
