<svg width="219" height="61" viewBox="0 0 219 61" fill="none" xmlns="http://www.w3.org/2000/svg">
<path d="M12.2098 53.164C12.6139 53.2636 12.9301 53.4451 13.1585 53.7086C13.3928 53.9721 13.5099 54.2884 13.5099 54.6573C13.5099 55.0145 13.3986 55.3278 13.1761 55.5972C12.9536 55.8666 12.6578 56.0745 12.2889 56.2209C11.92 56.3614 11.5188 56.4317 11.0855 56.4317C10.6755 56.4317 10.2715 56.3673 9.87326 56.2385C9.4809 56.1038 9.1266 55.9047 8.81038 55.6411L9.04755 55.1756C9.31693 55.404 9.62437 55.5796 9.96988 55.7026C10.3154 55.8197 10.6638 55.8783 11.0152 55.8783C11.349 55.8783 11.6564 55.8256 11.9375 55.7202C12.2186 55.6148 12.4412 55.4654 12.6051 55.2722C12.775 55.0731 12.8599 54.8388 12.8599 54.5695C12.8599 54.2122 12.7193 53.937 12.4382 53.7438C12.1571 53.5505 11.7619 53.4539 11.2524 53.4539H9.93475V52.9268H11.2172C11.6506 52.9268 11.9873 52.8361 12.2274 52.6545C12.4734 52.4671 12.5963 52.2095 12.5963 51.8815C12.5963 51.5184 12.4412 51.2344 12.1308 51.0294C11.8204 50.8186 11.431 50.7132 10.9625 50.7132C10.6697 50.7132 10.374 50.7571 10.0753 50.845C9.77663 50.927 9.49261 51.0529 9.22323 51.2227L9.00363 50.6869C9.61266 50.3238 10.2715 50.1422 10.9801 50.1422C11.3958 50.1422 11.7765 50.2096 12.122 50.3443C12.4675 50.479 12.7398 50.6722 12.9389 50.924C13.1439 51.1758 13.2464 51.4716 13.2464 51.8112C13.2464 52.1392 13.1556 52.4232 12.9741 52.6633C12.7925 52.8975 12.5378 53.0644 12.2098 53.164ZM16.5645 51.7234C17.1677 51.7234 17.6303 51.8757 17.9524 52.1802C18.2745 52.4788 18.4355 52.9239 18.4355 53.5154V56.379H17.8382V55.6587C17.6977 55.8988 17.4898 56.0862 17.2145 56.2209C16.9452 56.3556 16.6231 56.4229 16.2483 56.4229C15.733 56.4229 15.323 56.2999 15.0185 56.054C14.714 55.808 14.5617 55.483 14.5617 55.0789C14.5617 54.6866 14.7023 54.3704 14.9834 54.1303C15.2703 53.8902 15.7242 53.7701 16.3449 53.7701H17.8119V53.489C17.8119 53.0908 17.7006 52.7892 17.4781 52.5842C17.2555 52.3734 16.9305 52.268 16.503 52.268C16.2102 52.268 15.9291 52.3178 15.6598 52.4173C15.3904 52.511 15.1591 52.6428 14.9658 52.8126L14.6847 52.3471C14.919 52.148 15.2 51.9957 15.528 51.8903C15.8559 51.779 16.2014 51.7234 16.5645 51.7234ZM16.3449 55.931C16.6963 55.931 16.9979 55.8519 17.2497 55.6938C17.5015 55.5299 17.6889 55.2956 17.8119 54.9911V54.2357H16.3625C15.5719 54.2357 15.1766 54.5109 15.1766 55.0614C15.1766 55.3308 15.2791 55.5445 15.4841 55.7026C15.689 55.8549 15.976 55.931 16.3449 55.931ZM21.7736 54.3235H20.7195V56.379H20.0958V51.7585H20.7195V53.7877H21.7824L23.4074 51.7585H24.0838L22.2655 53.9985L24.2156 56.379H23.4777L21.7736 54.3235ZM26.704 51.7234C27.3072 51.7234 27.7699 51.8757 28.0919 52.1802C28.414 52.4788 28.5751 52.9239 28.5751 53.5154V56.379H27.9777V55.6587C27.8372 55.8988 27.6293 56.0862 27.3541 56.2209C27.0847 56.3556 26.7626 56.4229 26.3878 56.4229C25.8725 56.4229 25.4625 56.2999 25.158 56.054C24.8535 55.808 24.7013 55.483 24.7013 55.0789C24.7013 54.6866 24.8418 54.3704 25.1229 54.1303C25.4098 53.8902 25.8637 53.7701 26.4844 53.7701H27.9514V53.489C27.9514 53.0908 27.8401 52.7892 27.6176 52.5842C27.3951 52.3734 27.07 52.268 26.6426 52.268C26.3497 52.268 26.0687 52.3178 25.7993 52.4173C25.5299 52.511 25.2986 52.6428 25.1053 52.8126L24.8242 52.3471C25.0585 52.148 25.3396 51.9957 25.6675 51.8903C25.9955 51.779 26.341 51.7234 26.704 51.7234ZM26.4844 55.931C26.8358 55.931 27.1374 55.8519 27.3892 55.6938C27.641 55.5299 27.8284 55.2956 27.9514 54.9911V54.2357H26.502C25.7114 54.2357 25.3161 54.5109 25.3161 55.0614C25.3161 55.3308 25.4186 55.5445 25.6236 55.7026C25.8286 55.8549 26.1155 55.931 26.4844 55.931ZM32.3897 53.9721C32.7177 54.0483 32.9695 54.18 33.1452 54.3674C33.3267 54.5548 33.4175 54.7832 33.4175 55.0526C33.4175 55.322 33.3238 55.5621 33.1364 55.7729C32.9548 55.9837 32.706 56.1477 32.3897 56.2648C32.0735 56.3761 31.7251 56.4317 31.3444 56.4317C31.0106 56.4317 30.6827 56.3849 30.3606 56.2912C30.0385 56.1916 29.7574 56.0481 29.5173 55.8607L29.7281 55.3952C29.9389 55.5533 30.1849 55.6763 30.466 55.7641C30.7471 55.8519 31.0311 55.8959 31.3181 55.8959C31.7456 55.8959 32.094 55.8168 32.3634 55.6587C32.6386 55.4947 32.7762 55.2751 32.7762 54.9999C32.7762 54.7539 32.665 54.5636 32.4424 54.4289C32.2199 54.2884 31.9154 54.2181 31.5289 54.2181H30.7383V53.7613H31.4937C31.8393 53.7613 32.1174 53.6969 32.3282 53.5681C32.5391 53.4334 32.6445 53.2548 32.6445 53.0322C32.6445 52.7863 32.5244 52.593 32.2843 52.4525C32.0501 52.3119 31.7426 52.2417 31.362 52.2417C30.8642 52.2417 30.3723 52.3676 29.8862 52.6194L29.7106 52.1363C30.261 51.8493 30.832 51.7058 31.4235 51.7058C31.7748 51.7058 32.0911 51.7585 32.3722 51.8639C32.6591 51.9635 32.8816 52.107 33.0398 52.2944C33.2037 52.4818 33.2857 52.6984 33.2857 52.9444C33.2857 53.1786 33.2037 53.3865 33.0398 53.5681C32.8816 53.7496 32.665 53.8843 32.3897 53.9721Z" fill="#191F25"/>
<path d="M77.5912 50.2301H78.2325V55.3249L82.1678 50.2301H82.7563V56.379H82.1151V51.293L78.1798 56.379H77.5912V50.2301ZM86.9307 53.9721C87.2586 54.0483 87.5105 54.18 87.6861 54.3674C87.8677 54.5548 87.9584 54.7832 87.9584 55.0526C87.9584 55.322 87.8647 55.5621 87.6773 55.7729C87.4958 55.9837 87.2469 56.1477 86.9307 56.2648C86.6145 56.3761 86.266 56.4317 85.8854 56.4317C85.5516 56.4317 85.2236 56.3849 84.9016 56.2912C84.5795 56.1916 84.2984 56.0481 84.0583 55.8607L84.2691 55.3952C84.4799 55.5533 84.7259 55.6763 85.007 55.7641C85.2881 55.8519 85.5721 55.8959 85.859 55.8959C86.2865 55.8959 86.635 55.8168 86.9043 55.6587C87.1796 55.4947 87.3172 55.2751 87.3172 54.9999C87.3172 54.7539 87.2059 54.5636 86.9834 54.4289C86.7609 54.2884 86.4564 54.2181 86.0698 54.2181H85.2793V53.7613H86.0347C86.3802 53.7613 86.6584 53.6969 86.8692 53.5681C87.08 53.4334 87.1854 53.2548 87.1854 53.0322C87.1854 52.7863 87.0654 52.593 86.8253 52.4525C86.591 52.3119 86.2836 52.2417 85.9029 52.2417C85.4052 52.2417 84.9133 52.3676 84.4272 52.6194L84.2515 52.1363C84.802 51.8493 85.373 51.7058 85.9644 51.7058C86.3158 51.7058 86.632 51.7585 86.9131 51.8639C87.2001 51.9635 87.4226 52.107 87.5807 52.2944C87.7447 52.4818 87.8267 52.6984 87.8267 52.9444C87.8267 53.1786 87.7447 53.3865 87.5807 53.5681C87.4226 53.7496 87.2059 53.8843 86.9307 53.9721ZM92.642 52.3119H89.9979V56.379H89.3743V51.7585H92.642V52.3119ZM95.235 56.4229C94.79 56.4229 94.3888 56.3234 94.0316 56.1243C93.6744 55.9193 93.3933 55.6382 93.1883 55.281C92.9833 54.9238 92.8809 54.5197 92.8809 54.0688C92.8809 53.6178 92.9833 53.2138 93.1883 52.8566C93.3933 52.4993 93.6744 52.2212 94.0316 52.0221C94.3888 51.8229 94.79 51.7234 95.235 51.7234C95.6801 51.7234 96.0812 51.8229 96.4384 52.0221C96.7957 52.2212 97.0738 52.4993 97.2729 52.8566C97.4779 53.2138 97.5804 53.6178 97.5804 54.0688C97.5804 54.5197 97.4779 54.9238 97.2729 55.281C97.0738 55.6382 96.7957 55.9193 96.4384 56.1243C96.0812 56.3234 95.6801 56.4229 95.235 56.4229ZM95.235 55.8695C95.563 55.8695 95.8558 55.7963 96.1134 55.6499C96.377 55.4977 96.5819 55.2839 96.7283 55.0087C96.8747 54.7334 96.9479 54.4201 96.9479 54.0688C96.9479 53.7174 96.8747 53.4041 96.7283 53.1289C96.5819 52.8536 96.377 52.6428 96.1134 52.4964C95.8558 52.3441 95.563 52.268 95.235 52.268C94.9071 52.268 94.6113 52.3441 94.3478 52.4964C94.0901 52.6428 93.8852 52.8536 93.7329 53.1289C93.5865 53.4041 93.5133 53.7174 93.5133 54.0688C93.5133 54.4201 93.5865 54.7334 93.7329 55.0087C93.8852 55.2839 94.0901 55.4977 94.3478 55.6499C94.6113 55.7963 94.9071 55.8695 95.235 55.8695ZM101.992 52.3119H100.244V56.379H99.6202V52.3119H97.8721V51.7585H101.992V52.3119ZM104.585 56.4229C104.14 56.4229 103.739 56.3234 103.382 56.1243C103.025 55.9193 102.744 55.6382 102.539 55.281C102.334 54.9238 102.231 54.5197 102.231 54.0688C102.231 53.6178 102.334 53.2138 102.539 52.8566C102.744 52.4993 103.025 52.2212 103.382 52.0221C103.739 51.8229 104.14 51.7234 104.585 51.7234C105.03 51.7234 105.432 51.8229 105.789 52.0221C106.146 52.2212 106.424 52.4993 106.623 52.8566C106.828 53.2138 106.931 53.6178 106.931 54.0688C106.931 54.5197 106.828 54.9238 106.623 55.281C106.424 55.6382 106.146 55.9193 105.789 56.1243C105.432 56.3234 105.03 56.4229 104.585 56.4229ZM104.585 55.8695C104.913 55.8695 105.206 55.7963 105.464 55.6499C105.727 55.4977 105.932 55.2839 106.079 55.0087C106.225 54.7334 106.298 54.4201 106.298 54.0688C106.298 53.7174 106.225 53.4041 106.079 53.1289C105.932 52.8536 105.727 52.6428 105.464 52.4964C105.206 52.3441 104.913 52.268 104.585 52.268C104.257 52.268 103.962 52.3441 103.698 52.4964C103.44 52.6428 103.236 52.8536 103.083 53.1289C102.937 53.4041 102.864 53.7174 102.864 54.0688C102.864 54.4201 102.937 54.7334 103.083 55.0087C103.236 55.2839 103.44 55.4977 103.698 55.6499C103.962 55.7963 104.257 55.8695 104.585 55.8695ZM111.206 53.9897C111.833 54.1361 112.146 54.5138 112.146 55.1229C112.146 55.5269 111.997 55.8373 111.698 56.054C111.4 56.2707 110.955 56.379 110.363 56.379H108.264V51.7585H110.302C110.829 51.7585 111.241 51.861 111.54 52.066C111.839 52.2709 111.988 52.5637 111.988 52.9444C111.988 53.1962 111.918 53.4129 111.777 53.5944C111.643 53.7701 111.452 53.9019 111.206 53.9897ZM108.87 53.814H110.258C110.615 53.814 110.887 53.7467 111.075 53.612C111.268 53.4773 111.364 53.2811 111.364 53.0235C111.364 52.7658 111.268 52.5725 111.075 52.4437C110.887 52.3149 110.615 52.2504 110.258 52.2504H108.87V53.814ZM110.337 55.8871C110.735 55.8871 111.034 55.8227 111.233 55.6938C111.432 55.565 111.531 55.363 111.531 55.0877C111.531 54.8125 111.441 54.6105 111.259 54.4816C111.077 54.3469 110.791 54.2796 110.398 54.2796H108.87V55.8871H110.337ZM117.385 51.7585V56.379H116.761V52.3119H114.548L114.486 53.4539C114.439 54.4143 114.328 55.1521 114.153 55.6675C113.977 56.1828 113.664 56.4405 113.213 56.4405C113.09 56.4405 112.94 56.4171 112.765 56.3702L112.809 55.8344C112.914 55.8578 112.987 55.8695 113.028 55.8695C113.268 55.8695 113.45 55.7583 113.573 55.5357C113.696 55.3132 113.778 55.038 113.819 54.71C113.86 54.3821 113.895 53.9487 113.924 53.41L114.003 51.7585H117.385ZM123.199 54.262H119.334C119.369 54.7422 119.553 55.1316 119.887 55.4303C120.221 55.7231 120.643 55.8695 121.152 55.8695C121.439 55.8695 121.703 55.8197 121.943 55.7202C122.183 55.6148 122.391 55.4625 122.566 55.2634L122.918 55.6675C122.713 55.9134 122.455 56.1008 122.145 56.2297C121.84 56.3585 121.503 56.4229 121.134 56.4229C120.66 56.4229 120.238 56.3234 119.87 56.1243C119.506 55.9193 119.222 55.6382 119.017 55.281C118.813 54.9238 118.71 54.5197 118.71 54.0688C118.71 53.6178 118.807 53.2138 119 52.8566C119.199 52.4993 119.468 52.2212 119.808 52.0221C120.154 51.8229 120.54 51.7234 120.968 51.7234C121.395 51.7234 121.779 51.8229 122.118 52.0221C122.458 52.2212 122.724 52.4993 122.918 52.8566C123.111 53.2079 123.208 53.612 123.208 54.0688L123.199 54.262ZM120.968 52.2592C120.523 52.2592 120.148 52.4027 119.843 52.6897C119.545 52.9707 119.375 53.3397 119.334 53.7965H122.61C122.569 53.3397 122.396 52.9707 122.092 52.6897C121.793 52.4027 121.418 52.2592 120.968 52.2592ZM124.588 51.7585H125.212V53.8052H128.119V51.7585H128.743V56.379H128.119V54.3411H125.212V56.379H124.588V51.7585ZM130.516 51.7585H131.139V55.4303L134.223 51.7585H134.776V56.379H134.152V52.7072L131.078 56.379H130.516V51.7585ZM140.604 54.262H136.739C136.774 54.7422 136.959 55.1316 137.292 55.4303C137.626 55.7231 138.048 55.8695 138.557 55.8695C138.844 55.8695 139.108 55.8197 139.348 55.7202C139.588 55.6148 139.796 55.4625 139.972 55.2634L140.323 55.6675C140.118 55.9134 139.86 56.1008 139.55 56.2297C139.245 56.3585 138.909 56.4229 138.54 56.4229C138.065 56.4229 137.644 56.3234 137.275 56.1243C136.912 55.9193 136.628 55.6382 136.423 55.281C136.218 54.9238 136.115 54.5197 136.115 54.0688C136.115 53.6178 136.212 53.2138 136.405 52.8566C136.604 52.4993 136.874 52.2212 137.213 52.0221C137.559 51.8229 137.945 51.7234 138.373 51.7234C138.8 51.7234 139.184 51.8229 139.524 52.0221C139.863 52.2212 140.13 52.4993 140.323 52.8566C140.516 53.2079 140.613 53.612 140.613 54.0688L140.604 54.262ZM138.373 52.2592C137.928 52.2592 137.553 52.4027 137.249 52.6897C136.95 52.9707 136.78 53.3397 136.739 53.7965H140.016C139.975 53.3397 139.802 52.9707 139.497 52.6897C139.199 52.4027 138.824 52.2592 138.373 52.2592Z" fill="#191F25"/>
<path d="M176.134 56.4317C175.525 56.4317 174.971 56.297 174.473 56.0276C173.982 55.7524 173.595 55.3776 173.314 54.9033C173.039 54.4289 172.901 53.896 172.901 53.3045C172.901 52.7131 173.039 52.1802 173.314 51.7058C173.595 51.2315 173.982 50.8596 174.473 50.5902C174.971 50.315 175.525 50.1774 176.134 50.1774C176.743 50.1774 177.29 50.3121 177.776 50.5815C178.268 50.8508 178.655 51.2256 178.936 51.7058C179.217 52.1802 179.357 52.7131 179.357 53.3045C179.357 53.896 179.217 54.4318 178.936 54.912C178.655 55.3864 178.268 55.7583 177.776 56.0276C177.29 56.297 176.743 56.4317 176.134 56.4317ZM176.134 55.8519C176.62 55.8519 177.059 55.7436 177.451 55.5269C177.844 55.3044 178.151 54.9999 178.374 54.6134C178.596 54.221 178.707 53.7847 178.707 53.3045C178.707 52.8243 178.596 52.391 178.374 52.0045C178.151 51.6121 177.844 51.3076 177.451 51.0909C177.059 50.8684 176.62 50.7571 176.134 50.7571C175.648 50.7571 175.205 50.8684 174.807 51.0909C174.415 51.3076 174.105 51.6121 173.876 52.0045C173.654 52.391 173.542 52.8243 173.542 53.3045C173.542 53.7847 173.654 54.221 173.876 54.6134C174.105 54.9999 174.415 55.3044 174.807 55.5269C175.205 55.7436 175.648 55.8519 176.134 55.8519ZM183.881 52.3119H182.133V56.379H181.509V52.3119H179.761V51.7585H183.881V52.3119ZM188.929 51.7585V56.379H188.305V52.3119H185.406V56.379H184.782V51.7585H188.929ZM193.082 51.7234C193.515 51.7234 193.908 51.8229 194.259 52.0221C194.61 52.2153 194.886 52.4905 195.085 52.8478C195.284 53.205 195.383 53.612 195.383 54.0688C195.383 54.5314 195.284 54.9413 195.085 55.2985C194.886 55.6558 194.61 55.9339 194.259 56.133C193.914 56.3263 193.521 56.4229 193.082 56.4229C192.707 56.4229 192.368 56.3468 192.063 56.1945C191.764 56.0364 191.518 55.808 191.325 55.5094V58.0831H190.701V51.7585H191.299V52.6721C191.486 52.3676 191.732 52.1333 192.037 51.9694C192.347 51.8054 192.695 51.7234 193.082 51.7234ZM193.038 55.8695C193.36 55.8695 193.653 55.7963 193.916 55.6499C194.18 55.4977 194.385 55.2839 194.531 55.0087C194.684 54.7334 194.76 54.4201 194.76 54.0688C194.76 53.7174 194.684 53.407 194.531 53.1376C194.385 52.8624 194.18 52.6487 193.916 52.4964C193.653 52.3441 193.36 52.268 193.038 52.268C192.71 52.268 192.414 52.3441 192.151 52.4964C191.893 52.6487 191.688 52.8624 191.536 53.1376C191.39 53.407 191.316 53.7174 191.316 54.0688C191.316 54.4201 191.39 54.7334 191.536 55.0087C191.688 55.2839 191.893 55.4977 192.151 55.6499C192.414 55.7963 192.71 55.8695 193.038 55.8695ZM198.288 51.7234C198.891 51.7234 199.353 51.8757 199.676 52.1802C199.998 52.4788 200.159 52.9239 200.159 53.5154V56.379H199.561V55.6587C199.421 55.8988 199.213 56.0862 198.938 56.2209C198.668 56.3556 198.346 56.4229 197.971 56.4229C197.456 56.4229 197.046 56.2999 196.742 56.054C196.437 55.808 196.285 55.483 196.285 55.0789C196.285 54.6866 196.425 54.3704 196.706 54.1303C196.993 53.8902 197.447 53.7701 198.068 53.7701H199.535V53.489C199.535 53.0908 199.424 52.7892 199.201 52.5842C198.979 52.3734 198.654 52.268 198.226 52.268C197.933 52.268 197.652 52.3178 197.383 52.4173C197.113 52.511 196.882 52.6428 196.689 52.8126L196.408 52.3471C196.642 52.148 196.923 51.9957 197.251 51.8903C197.579 51.779 197.925 51.7234 198.288 51.7234ZM198.068 55.931C198.419 55.931 198.721 55.8519 198.973 55.6938C199.225 55.5299 199.412 55.2956 199.535 54.9911V54.2357H198.086C197.295 54.2357 196.9 54.5109 196.9 55.0614C196.9 55.3308 197.002 55.5445 197.207 55.7026C197.412 55.8549 197.699 55.931 198.068 55.931ZM204.762 53.9897C205.388 54.1361 205.702 54.5138 205.702 55.1229C205.702 55.5269 205.552 55.8373 205.254 56.054C204.955 56.2707 204.51 56.379 203.918 56.379H201.819V51.7585H203.857C204.384 51.7585 204.797 51.861 205.095 52.066C205.394 52.2709 205.543 52.5637 205.543 52.9444C205.543 53.1962 205.473 53.4129 205.333 53.5944C205.198 53.7701 205.008 53.9019 204.762 53.9897ZM202.425 53.814H203.813C204.17 53.814 204.442 53.7467 204.63 53.612C204.823 53.4773 204.92 53.2811 204.92 53.0235C204.92 52.7658 204.823 52.5725 204.63 52.4437C204.442 52.3149 204.17 52.2504 203.813 52.2504H202.425V53.814ZM203.892 55.8871C204.29 55.8871 204.589 55.8227 204.788 55.6938C204.987 55.565 205.087 55.363 205.087 55.0877C205.087 54.8125 204.996 54.6105 204.814 54.4816C204.633 54.3469 204.346 54.2796 203.953 54.2796H202.425V55.8871H203.892ZM208.841 54.3235H207.787V56.379H207.163V51.7585H207.787V53.7877H208.85L210.475 51.7585H211.151L209.333 53.9985L211.283 56.379H210.545L208.841 54.3235ZM213.771 51.7234C214.375 51.7234 214.837 51.8757 215.159 52.1802C215.481 52.4788 215.642 52.9239 215.642 53.5154V56.379H215.045V55.6587C214.905 55.8988 214.697 56.0862 214.421 56.2209C214.152 56.3556 213.83 56.4229 213.455 56.4229C212.94 56.4229 212.53 56.2999 212.225 56.054C211.921 55.808 211.769 55.483 211.769 55.0789C211.769 54.6866 211.909 54.3704 212.19 54.1303C212.477 53.8902 212.931 53.7701 213.552 53.7701H215.019V53.489C215.019 53.0908 214.908 52.7892 214.685 52.5842C214.462 52.3734 214.137 52.268 213.71 52.268C213.417 52.268 213.136 52.3178 212.867 52.4173C212.597 52.511 212.366 52.6428 212.173 52.8126L211.892 52.3471C212.126 52.148 212.407 51.9957 212.735 51.8903C213.063 51.779 213.408 51.7234 213.771 51.7234ZM213.552 55.931C213.903 55.931 214.205 55.8519 214.457 55.6938C214.708 55.5299 214.896 55.2956 215.019 54.9911V54.2357H213.569C212.779 54.2357 212.384 54.5109 212.384 55.0614C212.384 55.3308 212.486 55.5445 212.691 55.7026C212.896 55.8549 213.183 55.931 213.552 55.931Z" fill="#191F25"/>
<circle cx="21.7746" cy="21.9376" r="21.3703" fill="#5B6A80"/>
<path fill-rule="evenodd" clip-rule="evenodd" d="M21.3967 8.34708C20.4577 8.49678 19.6605 9.0784 19.2247 9.93163L19.0704 10.2339L16.3775 10.2465C14.0849 10.2571 13.6516 10.267 13.4617 10.3126C12.6104 10.5172 11.8705 11.0986 11.4772 11.8719C11.3247 12.1719 11.2306 12.541 11.1949 12.9792C11.1719 13.2613 11.1637 16.4129 11.171 22.1563L11.1822 30.9037L11.2578 31.1859C11.5492 32.2726 12.3384 33.0557 13.4203 33.3317L13.719 33.4079H21.7975H29.876L30.1676 33.3307C31.0407 33.0994 31.7304 32.5422 32.1052 31.7652C32.4092 31.1349 32.3801 32.1855 32.3801 21.8305V12.6543L32.3012 12.3818C32.0483 11.5082 31.4273 10.8172 30.5792 10.4658C30.0674 10.2536 30.1597 10.2597 27.2075 10.2449L24.5046 10.2314L24.4207 10.0416C24.1695 9.47365 23.632 8.91258 23.0598 8.621C22.6068 8.39024 21.8785 8.27028 21.3967 8.34708ZM22.1393 10.3212C22.3485 10.395 22.524 10.5477 22.6397 10.7565C22.7398 10.9372 22.7409 10.9457 22.7521 11.5651L22.7634 12.1912H23.7212H24.679V13.1517V14.1122H21.7975H18.916L18.9151 14.035C18.9146 13.9925 18.9125 13.5642 18.9105 13.0831L18.9067 12.2083L19.8719 12.1992L20.837 12.1901V11.6136C20.837 10.9592 20.8695 10.8108 21.0619 10.5859C21.2376 10.3807 21.4839 10.2702 21.7656 10.2702C21.8916 10.2702 22.0598 10.2931 22.1393 10.3212ZM16.9607 14.1123V16.0334L21.7889 16.0247L26.6171 16.016L26.6253 14.1808C26.6298 13.1714 26.6336 12.3108 26.6338 12.2684L26.6343 12.1912L28.1865 12.1915L29.7388 12.1919L29.9103 12.2721C30.0046 12.3162 30.1464 12.4226 30.2253 12.5086C30.4987 12.8064 30.4763 11.9737 30.4763 21.8305C30.4763 31.6827 30.4984 30.8554 30.2268 31.15C30.1488 31.2347 30.0224 31.3374 29.9461 31.3783L29.8074 31.4526H21.7975H13.7876L13.5989 31.3468C13.3939 31.2318 13.2145 31.0072 13.1541 30.7898C13.1307 30.7054 13.1193 27.7279 13.1197 21.7962C13.1202 12.9613 13.1205 12.9281 13.1898 12.7753C13.302 12.5279 13.4129 12.4096 13.6383 12.297L13.85 12.1912H15.4054H16.9607V14.1123ZM24.2159 21.4189C22.367 23.2678 20.8455 24.7806 20.8347 24.7806C20.8239 24.7806 20.1756 24.1403 19.3939 23.3577C18.6122 22.5751 17.9571 21.9345 17.938 21.9341C17.919 21.9337 17.6026 22.2345 17.235 22.6024L16.5666 23.2715L18.7018 25.4067L20.837 27.5419L24.8933 23.4856L28.9496 19.4293L28.2636 18.7432L27.5775 18.0571L24.2159 21.4189Z" fill="white"/>
<circle cx="108.045" cy="21.9376" r="21.3703" fill="#5B6A80"/>
<circle cx="192.595" cy="21.9376" r="21.3703" fill="#5B6A80"/>
<line x1="36.2891" y1="23.2637" x2="91.3049" y2="23.2637" stroke="#5B6A80" stroke-opacity="0.35" stroke-width="2.90307" stroke-dasharray="7.02 7.02"/>
<line x1="122.498" y1="23.2637" x2="177.514" y2="23.2637" stroke="#5B6A80" stroke-opacity="0.35" stroke-width="2.90307" stroke-dasharray="7.02 7.02"/>
<path d="M197.418 12.1736C197.286 12.1772 197.158 12.2201 197.051 12.2969C196.944 12.3736 196.862 12.4808 196.816 12.6044C196.77 12.7281 196.762 12.8627 196.793 12.9909C196.824 13.119 196.893 13.235 196.991 13.3237L199.071 15.2659H193.258V13.5028H195.241C195.329 13.504 195.416 13.4878 195.497 13.4552C195.579 13.4225 195.653 13.374 195.715 13.3125C195.777 13.251 195.827 13.1777 195.861 13.0968C195.895 13.016 195.912 12.9293 195.912 12.8416C195.912 12.754 195.895 12.6673 195.861 12.5864C195.827 12.5056 195.777 12.4323 195.715 12.3708C195.653 12.3093 195.579 12.2608 195.497 12.2281C195.416 12.1954 195.329 12.1792 195.241 12.1805H187.748C187.725 12.1793 187.702 12.1793 187.679 12.1805C187.535 12.1961 187.399 12.259 187.294 12.3595L183.988 15.445C183.922 15.507 183.87 15.5817 183.835 15.6646C183.799 15.7476 183.781 15.8369 183.781 15.9271V29.1503C183.78 29.2379 183.796 29.3249 183.829 29.4062C183.862 29.4875 183.91 29.5615 183.972 29.6239C184.033 29.6863 184.106 29.7358 184.187 29.7697C184.268 29.8035 184.355 29.8209 184.442 29.8209C184.53 29.8209 184.617 29.8035 184.698 29.7697C184.779 29.7358 184.852 29.6863 184.913 29.6239C184.975 29.5615 185.023 29.4875 185.056 29.4062C185.089 29.3249 185.105 29.2379 185.104 29.1503V16.5882H200.09V28.4891H186.646C186.559 28.4879 186.472 28.5041 186.39 28.5368C186.309 28.5694 186.235 28.6179 186.173 28.6795C186.11 28.741 186.061 28.8143 186.027 28.8951C185.993 28.9759 185.976 29.0627 185.976 29.1503C185.976 29.2379 185.993 29.3247 186.027 29.4055C186.061 29.4863 186.11 29.5596 186.173 29.6212C186.235 29.6827 186.309 29.7312 186.39 29.7639C186.472 29.7965 186.559 29.8127 186.646 29.8115H200.751C200.926 29.8115 201.095 29.7418 201.219 29.6178C201.343 29.4938 201.412 29.3257 201.412 29.1503V15.9271C201.413 15.8369 201.394 15.7476 201.359 15.6646C201.323 15.5817 201.271 15.507 201.206 15.445L197.9 12.3595C197.836 12.2978 197.761 12.2495 197.678 12.2175C197.595 12.1856 197.507 12.1706 197.418 12.1736ZM188.01 13.5028H191.936V15.2659H186.123L188.01 13.5028ZM192.59 18.1172C192.503 18.1181 192.416 18.1363 192.336 18.1708C192.256 18.2053 192.183 18.2553 192.122 18.3181C192.061 18.3809 192.013 18.4551 191.981 18.5364C191.949 18.6178 191.934 18.7047 191.936 18.7921V24.4946L190.455 22.766C190.384 22.6802 190.292 22.6138 190.189 22.5729C190.085 22.5319 189.973 22.5178 189.863 22.5318C189.743 22.5466 189.63 22.5938 189.535 22.6683C189.44 22.7429 189.368 22.8418 189.325 22.9545C189.283 23.0673 189.272 23.1895 189.294 23.308C189.316 23.4265 189.369 23.5367 189.449 23.6268L192.094 26.7123C192.156 26.7849 192.233 26.8433 192.32 26.8833C192.407 26.9233 192.501 26.944 192.597 26.944C192.692 26.944 192.787 26.9233 192.874 26.8833C192.96 26.8433 193.037 26.7849 193.1 26.7123L195.744 23.6268C195.801 23.5609 195.844 23.4843 195.872 23.4016C195.899 23.3188 195.909 23.2315 195.903 23.1447C195.896 23.0578 195.873 22.9732 195.833 22.8955C195.794 22.8178 195.739 22.7486 195.673 22.692C195.607 22.6353 195.53 22.5923 195.448 22.5654C195.365 22.5384 195.277 22.5281 195.191 22.535C195.104 22.5418 195.019 22.5658 194.942 22.6054C194.864 22.645 194.795 22.6996 194.739 22.766L193.258 24.4946V18.7921C193.26 18.7035 193.244 18.6155 193.211 18.5332C193.178 18.451 193.129 18.3761 193.067 18.3132C193.005 18.2502 192.93 18.2004 192.848 18.1668C192.766 18.1331 192.678 18.1162 192.59 18.1172Z" fill="white"/>
<path fill-rule="evenodd" clip-rule="evenodd" d="M99.762 8.34408C99.6 8.37845 99.3792 8.48214 99.1799 8.61747C98.95 8.77359 98.311 9.37663 97.4771 10.2244C96.1369 11.5868 95.4785 12.309 95.3762 12.5287C95.2847 12.7253 95.2424 13.009 95.2604 13.3055C95.2817 13.656 95.3637 13.8881 95.5431 14.1055C95.8951 14.5321 96.8454 15.5013 100.554 19.2165L104.511 23.1793L101.95 25.7368C99.198 28.4862 98.3146 29.3946 98.1424 29.6524C98.0024 29.8621 97.9984 29.97 98.1236 30.1591C98.2747 30.3875 99.6681 31.8172 100.393 32.4874C100.687 32.7597 100.9 32.8822 101.026 32.8516C101.268 32.7923 101.486 32.5865 104.811 29.27L107.71 26.3785L111.582 30.2435C115.247 33.9023 116.297 34.9321 116.71 35.2731C116.967 35.485 117.183 35.5509 117.622 35.5512C118.101 35.5516 118.278 35.4918 118.602 35.2214C119.365 34.5836 121.53 32.4332 122.104 31.7421C122.28 31.5302 122.391 31.3096 122.463 31.0313C122.552 30.6853 122.461 30.1852 122.253 29.8748C122.043 29.5602 121.396 28.8961 117.367 24.8593L113.3 20.7848L115.301 18.7842L117.302 16.7836L118.149 15.1149C119.671 12.1162 119.806 11.7984 119.683 11.5032C119.623 11.359 119.482 11.1873 119.383 11.1358C119.265 11.0751 118.952 11.0547 118.773 11.0961C118.489 11.1614 117.519 11.6691 114.641 13.2562L114.246 13.474L112.172 15.5286L110.098 17.5832L106.227 13.7202C102.57 10.0704 101.563 9.08176 101.071 8.66201C100.896 8.51308 100.822 8.4704 100.635 8.41087C100.386 8.33146 99.9712 8.29971 99.762 8.34408ZM100.344 9.57711C100.874 10.0148 102.58 11.6963 109.373 18.4773C114.272 23.3671 119.853 28.9831 120.595 29.7688C121.236 30.4473 121.39 30.6336 121.39 30.7299C121.39 30.861 121.159 31.123 120.085 32.2144C118.352 33.9746 117.88 34.4072 117.653 34.4442C117.47 34.4738 117.406 34.4372 117.024 34.0838L116.823 33.8976L117.221 33.4787L117.619 33.0597L117.238 32.6792L116.858 32.2987L116.454 32.7013L116.051 33.1039L115.648 32.7013L115.244 32.2988L116.023 31.5198C116.451 31.0913 116.802 30.7285 116.802 30.7135C116.802 30.6774 116.046 29.9209 116.01 29.9209C115.994 29.9209 115.631 30.2713 115.203 30.6995L114.424 31.4782L114.042 31.0954L113.66 30.7126L114.063 30.3102L114.466 29.9077L114.07 29.5111C113.853 29.293 113.662 29.1145 113.646 29.1145C113.63 29.1145 113.442 29.2897 113.229 29.5038L112.84 29.8931L112.457 29.511L112.075 29.129L112.867 28.336L113.66 27.543L113.257 27.1404L112.853 26.7377L112.061 27.5297L111.268 28.3218L110.859 27.9119L110.449 27.5021L110.851 27.0986L111.254 26.6952L110.872 26.3133L110.49 25.9313L110.087 26.334L109.683 26.7367L109.274 26.3269L108.864 25.917L109.656 25.1246L110.448 24.3322L110.045 23.9288L109.642 23.5255L108.849 24.3181L108.056 25.1108L107.674 24.7273L107.291 24.3438L107.379 24.2614C107.591 24.0619 108.015 23.5679 108.015 23.5197C108.015 23.4456 107.373 22.8027 107.299 22.8027C107.238 22.8027 107.06 22.9516 106.694 23.3081L106.471 23.5255L106.089 23.143L105.708 22.7605L106.486 21.9824C106.914 21.5544 107.265 21.1919 107.265 21.1767C107.265 21.1403 106.509 20.3837 106.473 20.3837C106.457 20.3837 106.094 20.734 105.666 21.1623L104.887 21.9409L104.484 21.5377L104.082 21.1344L104.484 20.7311L104.887 20.3278L104.505 19.9459L104.123 19.5639L103.719 19.9666L103.316 20.3693L102.906 19.9594L102.496 19.5496L103.288 18.7572L104.08 17.9648L103.678 17.5614L103.275 17.1581L102.482 17.9507L101.689 18.7433L101.308 18.3609L100.927 17.9785L101.319 17.5662L101.712 17.154L101.312 16.7529L100.912 16.3519L100.508 16.7551L100.104 17.1583L99.724 16.776L99.3441 16.3936L100.108 15.5754L100.873 14.7571L100.503 14.3867C100.3 14.1829 100.121 14.0163 100.105 14.0163C100.09 14.0163 99.7267 14.3666 99.2982 14.7949L98.5193 15.5735L98.1167 15.1703L97.7142 14.767L98.1166 14.3638L98.519 13.9607L98.1444 13.5853C97.9384 13.3788 97.7631 13.2099 97.755 13.2099C97.7469 13.2099 97.5551 13.3869 97.3289 13.6031L96.9175 13.9963L96.7316 13.7927C96.3766 13.404 96.3443 13.3474 96.3738 13.1654C96.3982 13.0154 96.5985 12.7603 97.1315 12.2004C97.7778 11.5214 99.6242 9.72059 99.8415 9.5572C100.066 9.38828 100.117 9.39029 100.344 9.57711ZM117.958 12.9666C117.892 13.1081 117.591 13.7178 117.289 14.3215L116.74 15.4193L116.203 14.8738C115.729 14.3916 115.491 14.1167 115.526 14.09C115.598 14.0332 118.026 12.7105 118.058 12.7098C118.069 12.7096 118.024 12.8251 117.958 12.9666ZM115.306 15.622L116.079 16.3936L114.286 18.187L112.492 19.9803L111.698 19.1865L110.904 18.3926L112.685 16.6215C113.664 15.6474 114.48 14.8504 114.499 14.8504C114.518 14.8504 114.881 15.1976 115.306 15.622ZM106.118 24.784L106.903 25.5696L104.734 27.7382L102.566 29.9067L101.773 29.1145L100.98 28.3223L103.142 26.1603C104.331 24.9713 105.311 23.9984 105.318 23.9984C105.326 23.9984 105.686 24.3519 106.118 24.784ZM100.974 29.9281L101.759 30.7139L101.356 31.1165L100.953 31.5191L100.16 30.7272L99.368 29.9353L99.7638 29.5388C99.9815 29.3208 100.166 29.1423 100.174 29.1423C100.182 29.1423 100.542 29.4959 100.974 29.9281Z" fill="white"/>
</svg>
