<svg width="699" height="147" viewBox="0 0 699 147" fill="none" xmlns="http://www.w3.org/2000/svg">
<path d="M29.6707 127.974C30.6827 128.224 31.4747 128.678 32.0467 129.338C32.6334 129.998 32.9267 130.79 32.9267 131.714C32.9267 132.609 32.6481 133.394 32.0907 134.068C31.5334 134.743 30.7927 135.264 29.8687 135.63C28.9447 135.982 27.9401 136.158 26.8547 136.158C25.8281 136.158 24.8161 135.997 23.8187 135.674C22.8361 135.337 21.9487 134.838 21.1567 134.178L21.7507 133.012C22.4254 133.584 23.1954 134.024 24.0607 134.332C24.9261 134.626 25.7987 134.772 26.6787 134.772C27.5147 134.772 28.2847 134.64 28.9887 134.376C29.6927 134.112 30.2501 133.738 30.6607 133.254C31.0861 132.756 31.2987 132.169 31.2987 131.494C31.2987 130.6 30.9467 129.91 30.2427 129.426C29.5387 128.942 28.5487 128.7 27.2727 128.7H23.9727V127.38H27.1847C28.2701 127.38 29.1134 127.153 29.7147 126.698C30.3307 126.229 30.6387 125.584 30.6387 124.762C30.6387 123.853 30.2501 123.142 29.4727 122.628C28.6954 122.1 27.7201 121.836 26.5467 121.836C25.8134 121.836 25.0727 121.946 24.3247 122.166C23.5767 122.372 22.8654 122.687 22.1907 123.112L21.6407 121.77C23.1661 120.861 24.8161 120.406 26.5907 120.406C27.6321 120.406 28.5854 120.575 29.4507 120.912C30.3161 121.25 30.9981 121.734 31.4967 122.364C32.0101 122.995 32.2667 123.736 32.2667 124.586C32.2667 125.408 32.0394 126.119 31.5847 126.72C31.1301 127.307 30.4921 127.725 29.6707 127.974ZM40.577 124.366C42.0877 124.366 43.2464 124.748 44.053 125.51C44.8597 126.258 45.263 127.373 45.263 128.854V136.026H43.767V134.222C43.415 134.824 42.8944 135.293 42.205 135.63C41.5304 135.968 40.7237 136.136 39.785 136.136C38.4944 136.136 37.4677 135.828 36.705 135.212C35.9424 134.596 35.561 133.782 35.561 132.77C35.561 131.788 35.913 130.996 36.617 130.394C37.3357 129.793 38.4724 129.492 40.027 129.492H43.701V128.788C43.701 127.791 43.4224 127.036 42.865 126.522C42.3077 125.994 41.4937 125.73 40.423 125.73C39.6897 125.73 38.9857 125.855 38.311 126.104C37.6364 126.339 37.057 126.669 36.573 127.094L35.869 125.928C36.4557 125.43 37.1597 125.048 37.981 124.784C38.8024 124.506 39.6677 124.366 40.577 124.366ZM40.027 134.904C40.907 134.904 41.6624 134.706 42.293 134.31C42.9237 133.9 43.393 133.313 43.701 132.55V130.658H40.071C38.091 130.658 37.101 131.348 37.101 132.726C37.101 133.401 37.3577 133.936 37.871 134.332C38.3844 134.714 39.103 134.904 40.027 134.904ZM53.6232 130.878H50.9832V136.026H49.4212V124.454H50.9832V129.536H53.6452L57.7152 124.454H59.4092L54.8552 130.064L59.7392 136.026H57.8912L53.6232 130.878ZM65.9716 124.366C67.4822 124.366 68.6409 124.748 69.4476 125.51C70.2542 126.258 70.6576 127.373 70.6576 128.854V136.026H69.1616V134.222C68.8096 134.824 68.2889 135.293 67.5996 135.63C66.9249 135.968 66.1182 136.136 65.1796 136.136C63.8889 136.136 62.8622 135.828 62.0996 135.212C61.3369 134.596 60.9556 133.782 60.9556 132.77C60.9556 131.788 61.3076 130.996 62.0116 130.394C62.7302 129.793 63.8669 129.492 65.4216 129.492H69.0956V128.788C69.0956 127.791 68.8169 127.036 68.2596 126.522C67.7022 125.994 66.8882 125.73 65.8176 125.73C65.0842 125.73 64.3802 125.855 63.7056 126.104C63.0309 126.339 62.4516 126.669 61.9676 127.094L61.2636 125.928C61.8502 125.43 62.5542 125.048 63.3756 124.784C64.1969 124.506 65.0622 124.366 65.9716 124.366ZM65.4216 134.904C66.3016 134.904 67.0569 134.706 67.6876 134.31C68.3182 133.9 68.7876 133.313 69.0956 132.55V130.658H65.4656C63.4856 130.658 62.4956 131.348 62.4956 132.726C62.4956 133.401 62.7522 133.936 63.2656 134.332C63.7789 134.714 64.4976 134.904 65.4216 134.904ZM80.2114 129.998C81.0328 130.189 81.6634 130.519 82.1034 130.988C82.5581 131.458 82.7854 132.03 82.7854 132.704C82.7854 133.379 82.5508 133.98 82.0814 134.508C81.6268 135.036 81.0034 135.447 80.2114 135.74C79.4194 136.019 78.5468 136.158 77.5934 136.158C76.7574 136.158 75.9361 136.041 75.1294 135.806C74.3228 135.557 73.6188 135.198 73.0174 134.728L73.5454 133.562C74.0734 133.958 74.6894 134.266 75.3934 134.486C76.0974 134.706 76.8088 134.816 77.5274 134.816C78.5981 134.816 79.4708 134.618 80.1454 134.222C80.8348 133.812 81.1794 133.262 81.1794 132.572C81.1794 131.956 80.9008 131.48 80.3434 131.142C79.7861 130.79 79.0234 130.614 78.0554 130.614H76.0754V129.47H77.9674C78.8328 129.47 79.5294 129.309 80.0574 128.986C80.5854 128.649 80.8494 128.202 80.8494 127.644C80.8494 127.028 80.5488 126.544 79.9474 126.192C79.3608 125.84 78.5908 125.664 77.6374 125.664C76.3908 125.664 75.1588 125.98 73.9414 126.61L73.5014 125.4C74.8801 124.682 76.3101 124.322 77.7914 124.322C78.6714 124.322 79.4634 124.454 80.1674 124.718C80.8861 124.968 81.4434 125.327 81.8394 125.796C82.2501 126.266 82.4554 126.808 82.4554 127.424C82.4554 128.011 82.2501 128.532 81.8394 128.986C81.4434 129.441 80.9008 129.778 80.2114 129.998Z" fill="#191F25"/>
<path d="M273.375 120.626H274.981V133.386L284.837 120.626H286.311V136.026H284.705V123.288L274.849 136.026H273.375V120.626ZM296.766 129.998C297.587 130.189 298.218 130.519 298.658 130.988C299.113 131.458 299.34 132.03 299.34 132.704C299.34 133.379 299.105 133.98 298.636 134.508C298.181 135.036 297.558 135.447 296.766 135.74C295.974 136.019 295.101 136.158 294.148 136.158C293.312 136.158 292.491 136.041 291.684 135.806C290.877 135.557 290.173 135.198 289.572 134.728L290.1 133.562C290.628 133.958 291.244 134.266 291.948 134.486C292.652 134.706 293.363 134.816 294.082 134.816C295.153 134.816 296.025 134.618 296.7 134.222C297.389 133.812 297.734 133.262 297.734 132.572C297.734 131.956 297.455 131.48 296.898 131.142C296.341 130.79 295.578 130.614 294.61 130.614H292.63V129.47H294.522C295.387 129.47 296.084 129.309 296.612 128.986C297.14 128.649 297.404 128.202 297.404 127.644C297.404 127.028 297.103 126.544 296.502 126.192C295.915 125.84 295.145 125.664 294.192 125.664C292.945 125.664 291.713 125.98 290.496 126.61L290.056 125.4C291.435 124.682 292.865 124.322 294.346 124.322C295.226 124.322 296.018 124.454 296.722 124.718C297.441 124.968 297.998 125.327 298.394 125.796C298.805 126.266 299.01 126.808 299.01 127.424C299.01 128.011 298.805 128.532 298.394 128.986C297.998 129.441 297.455 129.778 296.766 129.998ZM311.07 125.84H304.448V136.026H302.886V124.454H311.07V125.84ZM317.564 136.136C316.45 136.136 315.445 135.887 314.55 135.388C313.656 134.875 312.952 134.171 312.438 133.276C311.925 132.382 311.668 131.37 311.668 130.24C311.668 129.111 311.925 128.099 312.438 127.204C312.952 126.31 313.656 125.613 314.55 125.114C315.445 124.616 316.45 124.366 317.564 124.366C318.679 124.366 319.684 124.616 320.578 125.114C321.473 125.613 322.17 126.31 322.668 127.204C323.182 128.099 323.438 129.111 323.438 130.24C323.438 131.37 323.182 132.382 322.668 133.276C322.17 134.171 321.473 134.875 320.578 135.388C319.684 135.887 318.679 136.136 317.564 136.136ZM317.564 134.75C318.386 134.75 319.119 134.567 319.764 134.2C320.424 133.819 320.938 133.284 321.304 132.594C321.671 131.905 321.854 131.12 321.854 130.24C321.854 129.36 321.671 128.576 321.304 127.886C320.938 127.197 320.424 126.669 319.764 126.302C319.119 125.921 318.386 125.73 317.564 125.73C316.743 125.73 316.002 125.921 315.342 126.302C314.697 126.669 314.184 127.197 313.802 127.886C313.436 128.576 313.252 129.36 313.252 130.24C313.252 131.12 313.436 131.905 313.802 132.594C314.184 133.284 314.697 133.819 315.342 134.2C316.002 134.567 316.743 134.75 317.564 134.75ZM334.487 125.84H330.109V136.026H328.547V125.84H324.169V124.454H334.487V125.84ZM340.982 136.136C339.868 136.136 338.863 135.887 337.968 135.388C337.074 134.875 336.37 134.171 335.856 133.276C335.343 132.382 335.086 131.37 335.086 130.24C335.086 129.111 335.343 128.099 335.856 127.204C336.37 126.31 337.074 125.613 337.968 125.114C338.863 124.616 339.868 124.366 340.982 124.366C342.097 124.366 343.102 124.616 343.996 125.114C344.891 125.613 345.588 126.31 346.086 127.204C346.6 128.099 346.856 129.111 346.856 130.24C346.856 131.37 346.6 132.382 346.086 133.276C345.588 134.171 344.891 134.875 343.996 135.388C343.102 135.887 342.097 136.136 340.982 136.136ZM340.982 134.75C341.804 134.75 342.537 134.567 343.182 134.2C343.842 133.819 344.356 133.284 344.722 132.594C345.089 131.905 345.272 131.12 345.272 130.24C345.272 129.36 345.089 128.576 344.722 127.886C344.356 127.197 343.842 126.669 343.182 126.302C342.537 125.921 341.804 125.73 340.982 125.73C340.161 125.73 339.42 125.921 338.76 126.302C338.115 126.669 337.602 127.197 337.22 127.886C336.854 128.576 336.67 129.36 336.67 130.24C336.67 131.12 336.854 131.905 337.22 132.594C337.602 133.284 338.115 133.819 338.76 134.2C339.42 134.567 340.161 134.75 340.982 134.75ZM357.565 130.042C359.134 130.409 359.919 131.355 359.919 132.88C359.919 133.892 359.545 134.67 358.797 135.212C358.049 135.755 356.934 136.026 355.453 136.026H350.195V124.454H355.299C356.619 124.454 357.653 124.711 358.401 125.224C359.149 125.738 359.523 126.471 359.523 127.424C359.523 128.055 359.347 128.598 358.995 129.052C358.657 129.492 358.181 129.822 357.565 130.042ZM351.713 129.602H355.189C356.083 129.602 356.765 129.434 357.235 129.096C357.719 128.759 357.961 128.268 357.961 127.622C357.961 126.977 357.719 126.493 357.235 126.17C356.765 125.848 356.083 125.686 355.189 125.686H351.713V129.602ZM355.387 134.794C356.384 134.794 357.132 134.633 357.631 134.31C358.129 133.988 358.379 133.482 358.379 132.792C358.379 132.103 358.151 131.597 357.697 131.274C357.242 130.937 356.523 130.768 355.541 130.768H351.713V134.794H355.387ZM373.039 124.454V136.026H371.477V125.84H365.933L365.779 128.7C365.662 131.106 365.383 132.954 364.943 134.244C364.503 135.535 363.719 136.18 362.589 136.18C362.281 136.18 361.907 136.122 361.467 136.004L361.577 134.662C361.841 134.721 362.025 134.75 362.127 134.75C362.729 134.75 363.183 134.472 363.491 133.914C363.799 133.357 364.005 132.668 364.107 131.846C364.21 131.025 364.298 129.94 364.371 128.59L364.569 124.454H373.039ZM387.6 130.724H377.92C378.008 131.927 378.47 132.902 379.306 133.65C380.142 134.384 381.198 134.75 382.474 134.75C383.193 134.75 383.853 134.626 384.454 134.376C385.055 134.112 385.576 133.731 386.016 133.232L386.896 134.244C386.383 134.86 385.737 135.33 384.96 135.652C384.197 135.975 383.354 136.136 382.43 136.136C381.242 136.136 380.186 135.887 379.262 135.388C378.353 134.875 377.641 134.171 377.128 133.276C376.615 132.382 376.358 131.37 376.358 130.24C376.358 129.111 376.6 128.099 377.084 127.204C377.583 126.31 378.257 125.613 379.108 125.114C379.973 124.616 380.941 124.366 382.012 124.366C383.083 124.366 384.043 124.616 384.894 125.114C385.745 125.613 386.412 126.31 386.896 127.204C387.38 128.084 387.622 129.096 387.622 130.24L387.6 130.724ZM382.012 125.708C380.897 125.708 379.959 126.068 379.196 126.786C378.448 127.49 378.023 128.414 377.92 129.558H386.126C386.023 128.414 385.591 127.49 384.828 126.786C384.08 126.068 383.141 125.708 382.012 125.708ZM391.079 124.454H392.641V129.58H399.923V124.454H401.485V136.026H399.923V130.922H392.641V136.026H391.079V124.454ZM405.925 124.454H407.487V133.65L415.209 124.454H416.595V136.026H415.033V126.83L407.333 136.026H405.925V124.454ZM431.192 130.724H421.512C421.6 131.927 422.062 132.902 422.898 133.65C423.734 134.384 424.79 134.75 426.066 134.75C426.784 134.75 427.444 134.626 428.046 134.376C428.647 134.112 429.168 133.731 429.608 133.232L430.488 134.244C429.974 134.86 429.329 135.33 428.552 135.652C427.789 135.975 426.946 136.136 426.022 136.136C424.834 136.136 423.778 135.887 422.854 135.388C421.944 134.875 421.233 134.171 420.72 133.276C420.206 132.382 419.95 131.37 419.95 130.24C419.95 129.111 420.192 128.099 420.676 127.204C421.174 126.31 421.849 125.613 422.7 125.114C423.565 124.616 424.533 124.366 425.604 124.366C426.674 124.366 427.635 124.616 428.486 125.114C429.336 125.613 430.004 126.31 430.488 127.204C430.972 128.084 431.214 129.096 431.214 130.24L431.192 130.724ZM425.604 125.708C424.489 125.708 423.55 126.068 422.788 126.786C422.04 127.49 421.614 128.414 421.512 129.558H429.718C429.615 128.414 429.182 127.49 428.42 126.786C427.672 126.068 426.733 125.708 425.604 125.708Z" fill="#191F25"/>
<path d="M597.188 136.158C595.663 136.158 594.277 135.821 593.03 135.146C591.798 134.457 590.83 133.518 590.126 132.33C589.437 131.142 589.092 129.808 589.092 128.326C589.092 126.845 589.437 125.51 590.126 124.322C590.83 123.134 591.798 122.203 593.03 121.528C594.277 120.839 595.663 120.494 597.188 120.494C598.713 120.494 600.085 120.832 601.302 121.506C602.534 122.181 603.502 123.12 604.206 124.322C604.91 125.51 605.262 126.845 605.262 128.326C605.262 129.808 604.91 131.15 604.206 132.352C603.502 133.54 602.534 134.472 601.302 135.146C600.085 135.821 598.713 136.158 597.188 136.158ZM597.188 134.706C598.405 134.706 599.505 134.435 600.488 133.892C601.471 133.335 602.241 132.572 602.798 131.604C603.355 130.622 603.634 129.529 603.634 128.326C603.634 127.124 603.355 126.038 602.798 125.07C602.241 124.088 601.471 123.325 600.488 122.782C599.505 122.225 598.405 121.946 597.188 121.946C595.971 121.946 594.863 122.225 593.866 122.782C592.883 123.325 592.106 124.088 591.534 125.07C590.977 126.038 590.698 127.124 590.698 128.326C590.698 129.529 590.977 130.622 591.534 131.604C592.106 132.572 592.883 133.335 593.866 133.892C594.863 134.435 595.971 134.706 597.188 134.706ZM616.591 125.84H612.213V136.026H610.651V125.84H606.273V124.454H616.591V125.84ZM629.233 124.454V136.026H627.671V125.84H620.411V136.026H618.849V124.454H629.233ZM639.635 124.366C640.721 124.366 641.703 124.616 642.583 125.114C643.463 125.598 644.153 126.288 644.651 127.182C645.15 128.077 645.399 129.096 645.399 130.24C645.399 131.399 645.15 132.426 644.651 133.32C644.153 134.215 643.463 134.912 642.583 135.41C641.718 135.894 640.735 136.136 639.635 136.136C638.697 136.136 637.846 135.946 637.083 135.564C636.335 135.168 635.719 134.596 635.235 133.848V140.294H633.673V124.454H635.169V126.742C635.639 125.98 636.255 125.393 637.017 124.982C637.795 124.572 638.667 124.366 639.635 124.366ZM639.525 134.75C640.332 134.75 641.065 134.567 641.725 134.2C642.385 133.819 642.899 133.284 643.265 132.594C643.647 131.905 643.837 131.12 643.837 130.24C643.837 129.36 643.647 128.583 643.265 127.908C642.899 127.219 642.385 126.684 641.725 126.302C641.065 125.921 640.332 125.73 639.525 125.73C638.704 125.73 637.963 125.921 637.303 126.302C636.658 126.684 636.145 127.219 635.763 127.908C635.397 128.583 635.213 129.36 635.213 130.24C635.213 131.12 635.397 131.905 635.763 132.594C636.145 133.284 636.658 133.819 637.303 134.2C637.963 134.567 638.704 134.75 639.525 134.75ZM652.673 124.366C654.183 124.366 655.342 124.748 656.149 125.51C656.955 126.258 657.359 127.373 657.359 128.854V136.026H655.863V134.222C655.511 134.824 654.99 135.293 654.301 135.63C653.626 135.968 652.819 136.136 651.881 136.136C650.59 136.136 649.563 135.828 648.801 135.212C648.038 134.596 647.657 133.782 647.657 132.77C647.657 131.788 648.009 130.996 648.713 130.394C649.431 129.793 650.568 129.492 652.123 129.492H655.797V128.788C655.797 127.791 655.518 127.036 654.961 126.522C654.403 125.994 653.589 125.73 652.519 125.73C651.785 125.73 651.081 125.855 650.407 126.104C649.732 126.339 649.153 126.669 648.669 127.094L647.965 125.928C648.551 125.43 649.255 125.048 650.077 124.784C650.898 124.506 651.763 124.366 652.673 124.366ZM652.123 134.904C653.003 134.904 653.758 134.706 654.389 134.31C655.019 133.9 655.489 133.313 655.797 132.55V130.658H652.167C650.187 130.658 649.197 131.348 649.197 132.726C649.197 133.401 649.453 133.936 649.967 134.332C650.48 134.714 651.199 134.904 652.123 134.904ZM668.887 130.042C670.456 130.409 671.241 131.355 671.241 132.88C671.241 133.892 670.867 134.67 670.119 135.212C669.371 135.755 668.256 136.026 666.775 136.026H661.517V124.454H666.621C667.941 124.454 668.975 124.711 669.723 125.224C670.471 125.738 670.845 126.471 670.845 127.424C670.845 128.055 670.669 128.598 670.317 129.052C669.98 129.492 669.503 129.822 668.887 130.042ZM663.035 129.602H666.511C667.406 129.602 668.088 129.434 668.557 129.096C669.041 128.759 669.283 128.268 669.283 127.622C669.283 126.977 669.041 126.493 668.557 126.17C668.088 125.848 667.406 125.686 666.511 125.686H663.035V129.602ZM666.709 134.794C667.706 134.794 668.454 134.633 668.953 134.31C669.452 133.988 669.701 133.482 669.701 132.792C669.701 132.103 669.474 131.597 669.019 131.274C668.564 130.937 667.846 130.768 666.863 130.768H663.035V134.794H666.709ZM679.104 130.878H676.464V136.026H674.902V124.454H676.464V129.536H679.126L683.196 124.454H684.89L680.336 130.064L685.22 136.026H683.372L679.104 130.878ZM691.452 124.366C692.963 124.366 694.121 124.748 694.928 125.51C695.735 126.258 696.138 127.373 696.138 128.854V136.026H694.642V134.222C694.29 134.824 693.769 135.293 693.08 135.63C692.405 135.968 691.599 136.136 690.66 136.136C689.369 136.136 688.343 135.828 687.58 135.212C686.817 134.596 686.436 133.782 686.436 132.77C686.436 131.788 686.788 130.996 687.492 130.394C688.211 129.793 689.347 129.492 690.902 129.492H694.576V128.788C694.576 127.791 694.297 127.036 693.74 126.522C693.183 125.994 692.369 125.73 691.298 125.73C690.565 125.73 689.861 125.855 689.186 126.104C688.511 126.339 687.932 126.669 687.448 127.094L686.744 125.928C687.331 125.43 688.035 125.048 688.856 124.784C689.677 124.506 690.543 124.366 691.452 124.366ZM690.902 134.904C691.782 134.904 692.537 134.706 693.168 134.31C693.799 133.9 694.268 133.313 694.576 132.55V130.658H690.946C688.966 130.658 687.976 131.348 687.976 132.726C687.976 133.401 688.233 133.936 688.746 134.332C689.259 134.714 689.978 134.904 690.902 134.904Z" fill="#191F25"/>
<circle cx="52.3865" cy="52.092" r="51.5291" fill="#5B6A80"/>
<path fill-rule="evenodd" clip-rule="evenodd" d="M51.475 19.322C49.2109 19.6829 47.2887 21.0854 46.2379 23.1427L45.8657 23.8715L39.3727 23.9019C33.8446 23.9276 32.7997 23.9513 32.342 24.0613C30.2891 24.5547 28.505 25.9566 27.5569 27.8213C27.189 28.5446 26.9622 29.4346 26.8761 30.491C26.8207 31.1714 26.8009 38.7707 26.8186 52.6195L26.8454 73.7116L27.0278 74.392C27.7303 77.0122 29.6334 78.9006 32.242 79.5659L32.9623 79.7497H52.4415H71.9207L72.6238 79.5635C74.7292 79.0059 76.392 77.6623 77.2959 75.7887C78.029 74.269 77.9588 76.8021 77.9588 51.8337V29.7077L77.7686 29.0507C77.1586 26.9441 75.6613 25.2781 73.6163 24.4307C72.3821 23.9191 72.6048 23.9338 65.4863 23.8981L58.9691 23.8656L58.7667 23.4079C58.161 22.0384 56.865 20.6855 55.4851 19.9825C54.393 19.426 52.6368 19.1368 51.475 19.322ZM53.2658 24.0821C53.7701 24.26 54.1933 24.6282 54.4722 25.1316C54.7136 25.5673 54.7164 25.5878 54.7434 27.0815L54.7707 28.591H57.08H59.3895V30.907V33.223H52.4415H45.4935L45.4914 33.0369C45.4902 32.9345 45.4852 31.9016 45.4802 30.7416L45.4712 28.6324L47.7983 28.6104L50.1255 28.5884V27.1984C50.1255 25.6203 50.2038 25.2625 50.6679 24.7204C51.0915 24.2254 51.6853 23.959 52.3647 23.959C52.6684 23.959 53.0739 24.0144 53.2658 24.0821ZM40.7788 33.2233V37.8556L52.4208 37.8346L64.0628 37.8136L64.0825 33.3884C64.0933 30.9546 64.1026 28.8795 64.1031 28.7771L64.1042 28.591L67.847 28.5918L71.5898 28.5927L72.0034 28.786C72.2309 28.8925 72.5726 29.1491 72.763 29.3564C73.4223 30.0746 73.3682 28.0665 73.3682 51.8337C73.3682 75.5899 73.4216 73.5949 72.7667 74.3054C72.5784 74.5096 72.2739 74.7573 72.0898 74.8558L71.7553 75.035H52.4415H33.1278L32.6728 74.7799C32.1784 74.5027 31.7458 73.961 31.6003 73.4367C31.5437 73.2332 31.5162 66.0539 31.5171 51.751C31.5185 30.4479 31.519 30.368 31.6862 29.9995C31.9569 29.4028 32.2243 29.1177 32.7676 28.8462L33.2782 28.591H37.0286H40.7788V33.2233ZM58.2728 50.8412C53.8147 55.2994 50.1459 58.9471 50.12 58.9471C50.094 58.9471 48.5306 57.4032 46.6458 55.5162C44.761 53.6292 43.1813 52.0846 43.1353 52.0836C43.0894 52.0827 42.3266 52.8078 41.4402 53.6951L39.8285 55.3084L44.9771 60.457L50.1255 65.6054L59.9063 55.8247L69.6871 46.0439L68.0328 44.3896L66.3784 42.7352L58.2728 50.8412Z" fill="white"/>
<circle cx="346.711" cy="52.092" r="51.5291" fill="#5B6A80"/>
<circle cx="636.533" cy="52.092" r="51.5291" fill="#5B6A80"/>
<line x1="87.3877" y1="55.2896" x2="305.367" y2="55.2896" stroke="#5B6A80" stroke-opacity="0.35" stroke-width="7" stroke-dasharray="16.92 16.92"/>
<line x1="386.063" y1="55.2896" x2="604.043" y2="55.2896" stroke="#5B6A80" stroke-opacity="0.35" stroke-width="7" stroke-dasharray="16.92 16.92"/>
<path d="M648.157 28.5485C647.839 28.5571 647.531 28.6606 647.273 28.8458C647.014 29.0309 646.817 29.2892 646.706 29.5874C646.595 29.8856 646.576 30.2101 646.651 30.5191C646.726 30.8282 646.892 31.1077 647.128 31.3218L652.143 36.0048H638.127V31.7535H642.91C643.121 31.7565 643.331 31.7175 643.527 31.6387C643.723 31.5599 643.901 31.443 644.052 31.2947C644.202 31.1463 644.322 30.9696 644.403 30.7747C644.485 30.5798 644.527 30.3706 644.527 30.1593C644.527 29.948 644.485 29.7389 644.403 29.544C644.322 29.3491 644.202 29.1723 644.052 29.024C643.901 28.8756 643.723 28.7587 643.527 28.6799C643.331 28.6011 643.121 28.5621 642.91 28.5651H624.842C624.786 28.5622 624.731 28.5622 624.676 28.5651C624.327 28.6027 624 28.7545 623.746 28.9969L615.775 36.4366C615.617 36.5861 615.491 36.7664 615.405 36.9663C615.32 37.1662 615.276 37.3815 615.276 37.599V69.4835C615.273 69.6947 615.313 69.9045 615.391 70.1005C615.47 70.2966 615.587 70.475 615.735 70.6254C615.884 70.7759 616.06 70.8953 616.255 70.9769C616.45 71.0584 616.659 71.1004 616.871 71.1004C617.082 71.1004 617.291 71.0584 617.486 70.9769C617.681 70.8953 617.858 70.7759 618.006 70.6254C618.154 70.475 618.271 70.2966 618.35 70.1005C618.429 69.9045 618.468 69.6947 618.465 69.4835V39.1933H654.601V67.8893H622.185C621.974 67.8863 621.764 67.9253 621.568 68.0041C621.372 68.0829 621.193 68.1998 621.043 68.3481C620.892 68.4965 620.773 68.6732 620.691 68.8681C620.61 69.063 620.568 69.2722 620.568 69.4835C620.568 69.6948 620.61 69.9039 620.691 70.0988C620.773 70.2937 620.892 70.4705 621.043 70.6188C621.193 70.7672 621.372 70.8841 621.568 70.9629C621.764 71.0417 621.974 71.0807 622.185 71.0777H656.195C656.618 71.0777 657.023 70.9097 657.322 70.6107C657.621 70.3118 657.789 69.9063 657.789 69.4835V37.599C657.79 37.3815 657.746 37.1662 657.66 36.9663C657.574 36.7664 657.449 36.5861 657.291 36.4366L649.32 28.9969C649.166 28.8479 648.984 28.7315 648.784 28.6544C648.584 28.5774 648.371 28.5414 648.157 28.5485ZM625.473 31.7535H634.939V36.0048H620.923L625.473 31.7535ZM636.516 42.8799C636.305 42.8821 636.097 42.926 635.903 43.0092C635.71 43.0924 635.535 43.2131 635.388 43.3645C635.241 43.5158 635.126 43.6947 635.049 43.8909C634.972 44.0871 634.934 44.2966 634.939 44.5073V58.2575L631.368 54.0893C631.197 53.8825 630.976 53.7224 630.727 53.6237C630.477 53.525 630.206 53.4909 629.94 53.5247C629.652 53.5604 629.379 53.6743 629.15 53.8539C628.922 54.0336 628.747 54.2722 628.645 54.544C628.542 54.8158 628.516 55.1105 628.568 55.3962C628.621 55.6819 628.751 55.9478 628.944 56.1651L635.321 63.6048C635.47 63.78 635.656 63.9207 635.865 64.0172C636.075 64.1136 636.302 64.1636 636.533 64.1636C636.763 64.1636 636.991 64.1136 637.2 64.0172C637.409 63.9207 637.595 63.78 637.745 63.6048L644.122 56.1651C644.259 56.006 644.363 55.8214 644.429 55.6219C644.495 55.4224 644.52 55.2119 644.504 55.0025C644.489 54.7931 644.431 54.5889 644.337 54.4015C644.242 54.2142 644.111 54.0475 643.951 53.9109C643.791 53.7743 643.607 53.6706 643.407 53.6056C643.207 53.5406 642.997 53.5157 642.787 53.5323C642.578 53.5488 642.374 53.6066 642.187 53.7022C642 53.7977 641.833 53.9293 641.697 54.0893L638.127 58.2575V44.5073C638.131 44.2938 638.093 44.0815 638.014 43.8832C637.935 43.6848 637.816 43.5044 637.666 43.3526C637.516 43.2008 637.337 43.0807 637.139 42.9995C636.942 42.9183 636.73 42.8776 636.516 42.8799Z" fill="white"/>
<path fill-rule="evenodd" clip-rule="evenodd" d="M326.737 19.3147C326.346 19.3976 325.814 19.6476 325.334 19.9739C324.779 20.3504 323.238 21.8045 321.228 23.8486C317.996 27.1337 316.409 28.8751 316.162 29.4048C315.941 29.8788 315.839 30.5631 315.883 31.278C315.934 32.1231 316.132 32.6828 316.564 33.2069C317.413 34.2356 319.705 36.5725 328.648 45.5307L338.187 55.0862L332.014 61.2529C325.377 67.8822 323.247 70.0727 322.832 70.6944C322.494 71.1999 322.485 71.46 322.786 71.9161C323.151 72.4667 326.511 75.9141 328.258 77.5301C328.968 78.1867 329.481 78.4822 329.784 78.4083C330.369 78.2654 330.894 77.769 338.911 69.7721L345.901 62.8002L355.237 72.1195C364.075 80.9419 366.607 83.425 367.603 84.2471C368.223 84.7581 368.744 84.917 369.802 84.9177C370.957 84.9186 371.385 84.7744 372.165 84.1224C374.005 82.5847 379.224 77.3995 380.609 75.7331C381.034 75.222 381.302 74.6902 381.474 74.019C381.688 73.1848 381.47 71.979 380.969 71.2304C380.462 70.4721 378.902 68.8706 369.187 59.137L359.381 49.3124L364.205 44.4885L369.029 39.6645L371.072 35.6409C374.743 28.4103 375.068 27.6439 374.771 26.9322C374.626 26.5845 374.287 26.1705 374.047 26.0462C373.764 25.8999 373.009 25.8507 372.577 25.9504C371.894 26.108 369.552 27.3321 362.615 31.1591L361.662 31.6843L356.661 36.6385L351.659 41.5925L342.327 32.278C333.509 23.4773 331.079 21.0935 329.893 20.0813C329.472 19.7223 329.293 19.6193 328.843 19.4758C328.243 19.2843 327.241 19.2077 326.737 19.3147ZM328.14 22.2879C329.419 23.3434 333.533 27.3978 349.912 43.7483C361.723 55.5388 375.181 69.0803 376.97 70.9749C378.515 72.6111 378.887 73.0601 378.887 73.2923C378.887 73.6085 378.332 74.2402 375.741 76.8719C371.563 81.1163 370.425 82.1593 369.876 82.2484C369.436 82.3198 369.282 82.2315 368.361 81.3793L367.876 80.9305L368.835 79.9203L369.794 78.9101L368.876 77.9926L367.959 77.0752L366.986 78.0459L366.014 79.0166L365.042 78.046L364.069 77.0753L365.947 75.197C366.979 74.1639 367.824 73.289 367.824 73.2528C367.824 73.1658 366.002 71.3416 365.915 71.3416C365.878 71.3416 365.002 72.1866 363.969 73.2191L362.09 75.0967L361.169 74.1737L360.248 73.2507L361.22 72.2803L362.192 71.3098L361.238 70.3536C360.713 69.8276 360.252 69.3973 360.215 69.3973C360.177 69.3973 359.724 69.8197 359.209 70.336L358.272 71.2746L357.349 70.3534L356.426 69.4322L358.337 67.5201L360.249 65.608L359.276 64.6371L358.303 63.6663L356.393 65.576L354.482 67.4858L353.494 66.4976L352.505 65.5093L353.476 64.5365L354.447 63.5639L353.526 62.6429L352.605 61.7218L351.633 62.6928L350.66 63.6638L349.672 62.6756L348.683 61.6873L350.593 59.7766L352.503 57.8659L351.532 56.8934L350.561 55.9208L348.649 57.832L346.737 59.7433L345.814 58.8186L344.891 57.8939L345.103 57.6954C345.616 57.2142 346.638 56.0231 346.638 55.9068C346.638 55.7282 345.088 54.178 344.91 54.178C344.763 54.178 344.334 54.537 343.452 55.3967L342.915 55.9208L341.994 54.9984L341.073 54.0761L342.951 52.2C343.983 51.1681 344.828 50.2938 344.828 50.2572C344.828 50.1695 343.006 48.3451 342.918 48.3451C342.881 48.3451 342.005 49.1899 340.972 50.2226L339.094 52.1L338.123 51.1277L337.153 50.1553L338.123 49.1829L339.094 48.2105L338.173 47.2895L337.252 46.3684L336.279 47.3394L335.307 48.3104L334.318 47.3222L333.33 46.3339L335.24 44.4232L337.15 42.5126L336.179 41.54L335.208 40.5674L333.296 42.4786L331.384 44.3899L330.464 43.4678L329.545 42.5457L330.493 41.5516L331.44 40.5575L330.475 39.5905L329.509 38.6235L328.536 39.5957L327.562 40.5679L326.646 39.646L325.729 38.7241L327.572 36.7511L329.415 34.778L328.524 33.8849C328.033 33.3937 327.602 32.9917 327.565 32.9917C327.528 32.9917 326.652 33.8366 325.619 34.8692L323.741 36.7467L322.77 35.7743L321.799 34.8019L322.77 33.8298L323.74 32.8577L322.837 31.9525C322.34 31.4547 321.917 31.0474 321.898 31.0474C321.878 31.0474 321.416 31.4741 320.87 31.9956L319.878 32.9437L319.43 32.4527C318.574 31.5155 318.496 31.3789 318.567 30.9402C318.626 30.5785 319.109 29.9632 320.394 28.6132C321.953 26.976 326.405 22.6338 326.929 22.2399C327.471 21.8326 327.594 21.8374 328.14 22.2879ZM370.612 30.4608C370.453 30.8019 369.727 32.2721 368.999 33.7278L367.674 36.3747L366.381 35.0595C365.237 33.8968 364.664 33.234 364.747 33.1695C364.923 33.0327 370.775 29.8433 370.854 29.8416C370.88 29.8411 370.771 30.1196 370.612 30.4608ZM364.219 36.8636L366.082 38.7241L361.757 43.0483L357.432 47.3726L355.518 45.4584L353.604 43.5443L357.897 39.2737C360.258 36.9249 362.227 35.0031 362.272 35.0031C362.318 35.0031 363.194 35.8403 364.219 36.8636ZM342.062 58.9553L343.956 60.8497L338.726 66.0786L333.497 71.3075L331.586 69.3973L329.675 67.4871L334.888 62.274C337.755 59.4069 340.116 57.061 340.135 57.061C340.153 57.061 341.021 57.9134 342.062 58.9553ZM329.659 71.3591L331.553 73.2537L330.58 74.2246L329.608 75.1954L327.698 73.286L325.787 71.3764L326.741 70.4204C327.266 69.8946 327.711 69.4644 327.731 69.4644C327.75 69.4644 328.618 70.317 329.659 71.3591Z" fill="white"/>
</svg>
