<svg width="398" height="111" viewBox="0 0 398 111" fill="none" xmlns="http://www.w3.org/2000/svg">
<path d="M21.7974 97.569C22.5334 97.7504 23.1094 98.081 23.5254 98.561C23.9521 99.041 24.1654 99.617 24.1654 100.289C24.1654 100.94 23.9627 101.51 23.5574 102.001C23.1521 102.492 22.6134 102.87 21.9414 103.137C21.2694 103.393 20.5387 103.521 19.7494 103.521C19.0027 103.521 18.2667 103.404 17.5414 103.169C16.8267 102.924 16.1814 102.561 15.6054 102.081L16.0374 101.233C16.5281 101.649 17.0881 101.969 17.7174 102.193C18.3467 102.406 18.9814 102.513 19.6214 102.513C20.2294 102.513 20.7894 102.417 21.3014 102.225C21.8134 102.033 22.2187 101.761 22.5174 101.409C22.8267 101.046 22.9814 100.62 22.9814 100.129C22.9814 99.4784 22.7254 98.977 22.2134 98.625C21.7014 98.273 20.9814 98.097 20.0534 98.097H17.6534V97.137H19.9894C20.7787 97.137 21.3921 96.9717 21.8294 96.641C22.2774 96.2997 22.5014 95.8304 22.5014 95.233C22.5014 94.5717 22.2187 94.0544 21.6534 93.681C21.0881 93.297 20.3787 93.105 19.5254 93.105C18.9921 93.105 18.4534 93.185 17.9094 93.345C17.3654 93.4944 16.8481 93.7237 16.3574 94.033L15.9574 93.057C17.0667 92.3957 18.2667 92.065 19.5574 92.065C20.3147 92.065 21.0081 92.1877 21.6374 92.433C22.2667 92.6784 22.7627 93.0304 23.1254 93.489C23.4987 93.9477 23.6854 94.4864 23.6854 95.105C23.6854 95.7024 23.5201 96.2197 23.1894 96.657C22.8587 97.0837 22.3947 97.3877 21.7974 97.569ZM29.7293 94.945C30.828 94.945 31.6706 95.2224 32.2573 95.777C32.844 96.321 33.1373 97.1317 33.1373 98.209V103.425H32.0493V102.113C31.7933 102.55 31.4146 102.892 30.9133 103.137C30.4226 103.382 29.836 103.505 29.1533 103.505C28.2146 103.505 27.468 103.281 26.9133 102.833C26.3586 102.385 26.0813 101.793 26.0813 101.057C26.0813 100.342 26.3373 99.7664 26.8493 99.329C27.372 98.8917 28.1986 98.673 29.3293 98.673H32.0013V98.161C32.0013 97.4357 31.7986 96.8864 31.3933 96.513C30.988 96.129 30.396 95.937 29.6173 95.937C29.084 95.937 28.572 96.0277 28.0813 96.209C27.5906 96.3797 27.1693 96.6197 26.8173 96.929L26.3053 96.081C26.732 95.7184 27.244 95.441 27.8413 95.249C28.4386 95.0464 29.068 94.945 29.7293 94.945ZM29.3293 102.609C29.9693 102.609 30.5186 102.465 30.9773 102.177C31.436 101.878 31.7773 101.452 32.0013 100.897V99.521H29.3613C27.9213 99.521 27.2013 100.022 27.2013 101.025C27.2013 101.516 27.388 101.905 27.7613 102.193C28.1346 102.47 28.6573 102.609 29.3293 102.609ZM39.2174 99.681H37.2974V103.425H36.1614V95.009H37.2974V98.705H39.2334L42.1934 95.009H43.4254L40.1134 99.089L43.6654 103.425H42.3214L39.2174 99.681ZM48.198 94.945C49.2967 94.945 50.1394 95.2224 50.726 95.777C51.3127 96.321 51.606 97.1317 51.606 98.209V103.425H50.518V102.113C50.262 102.55 49.8834 102.892 49.382 103.137C48.8914 103.382 48.3047 103.505 47.622 103.505C46.6834 103.505 45.9367 103.281 45.382 102.833C44.8274 102.385 44.55 101.793 44.55 101.057C44.55 100.342 44.806 99.7664 45.318 99.329C45.8407 98.8917 46.6674 98.673 47.798 98.673H50.47V98.161C50.47 97.4357 50.2674 96.8864 49.862 96.513C49.4567 96.129 48.8647 95.937 48.086 95.937C47.5527 95.937 47.0407 96.0277 46.55 96.209C46.0594 96.3797 45.638 96.6197 45.286 96.929L44.774 96.081C45.2007 95.7184 45.7127 95.441 46.31 95.249C46.9074 95.0464 47.5367 94.945 48.198 94.945ZM47.798 102.609C48.438 102.609 48.9874 102.465 49.446 102.177C49.9047 101.878 50.246 101.452 50.47 100.897V99.521H47.83C46.39 99.521 45.67 100.022 45.67 101.025C45.67 101.516 45.8567 101.905 46.23 102.193C46.6034 102.47 47.126 102.609 47.798 102.609ZM58.5543 99.041C59.1516 99.1797 59.6103 99.4197 59.9303 99.761C60.261 100.102 60.4263 100.518 60.4263 101.009C60.4263 101.5 60.2556 101.937 59.9143 102.321C59.5836 102.705 59.1303 103.004 58.5543 103.217C57.9783 103.42 57.3436 103.521 56.6503 103.521C56.0423 103.521 55.445 103.436 54.8583 103.265C54.2716 103.084 53.7596 102.822 53.3223 102.481L53.7063 101.633C54.0903 101.921 54.5383 102.145 55.0503 102.305C55.5623 102.465 56.0796 102.545 56.6023 102.545C57.381 102.545 58.0156 102.401 58.5063 102.113C59.0076 101.814 59.2583 101.414 59.2583 100.913C59.2583 100.465 59.0556 100.118 58.6503 99.873C58.245 99.617 57.6903 99.489 56.9863 99.489H55.5463V98.657H56.9223C57.5516 98.657 58.0583 98.5397 58.4423 98.305C58.8263 98.0597 59.0183 97.7344 59.0183 97.329C59.0183 96.881 58.7996 96.529 58.3623 96.273C57.9356 96.017 57.3756 95.889 56.6823 95.889C55.7756 95.889 54.8796 96.1184 53.9943 96.577L53.6743 95.697C54.677 95.1744 55.717 94.913 56.7943 94.913C57.4343 94.913 58.0103 95.009 58.5223 95.201C59.045 95.3824 59.4503 95.6437 59.7383 95.985C60.037 96.3264 60.1863 96.721 60.1863 97.169C60.1863 97.5957 60.037 97.9744 59.7383 98.305C59.4503 98.6357 59.0556 98.881 58.5543 99.041Z" fill="#191F25"/>
<path d="M140.888 92.225H142.056V101.505L149.224 92.225H150.296V103.425H149.128V94.161L141.96 103.425H140.888V92.225ZM157.9 99.041C158.497 99.1797 158.956 99.4197 159.276 99.761C159.606 100.102 159.772 100.518 159.772 101.009C159.772 101.5 159.601 101.937 159.26 102.321C158.929 102.705 158.476 103.004 157.9 103.217C157.324 103.42 156.689 103.521 155.996 103.521C155.388 103.521 154.79 103.436 154.204 103.265C153.617 103.084 153.105 102.822 152.668 102.481L153.052 101.633C153.436 101.921 153.884 102.145 154.396 102.305C154.908 102.465 155.425 102.545 155.948 102.545C156.726 102.545 157.361 102.401 157.852 102.113C158.353 101.814 158.604 101.414 158.604 100.913C158.604 100.465 158.401 100.118 157.996 99.873C157.59 99.617 157.036 99.489 156.332 99.489H154.892V98.657H156.268C156.897 98.657 157.404 98.5397 157.788 98.305C158.172 98.0597 158.364 97.7344 158.364 97.329C158.364 96.881 158.145 96.529 157.708 96.273C157.281 96.017 156.721 95.889 156.028 95.889C155.121 95.889 154.225 96.1184 153.34 96.577L153.02 95.697C154.022 95.1744 155.062 94.913 156.14 94.913C156.78 94.913 157.356 95.009 157.868 95.201C158.39 95.3824 158.796 95.6437 159.084 95.985C159.382 96.3264 159.532 96.721 159.532 97.169C159.532 97.5957 159.382 97.9744 159.084 98.305C158.796 98.6357 158.401 98.881 157.9 99.041ZM168.302 96.017H163.486V103.425H162.35V95.009H168.302V96.017ZM173.026 103.505C172.215 103.505 171.484 103.324 170.834 102.961C170.183 102.588 169.671 102.076 169.298 101.425C168.924 100.774 168.738 100.038 168.738 99.217C168.738 98.3957 168.924 97.6597 169.298 97.009C169.671 96.3584 170.183 95.8517 170.834 95.489C171.484 95.1264 172.215 94.945 173.026 94.945C173.836 94.945 174.567 95.1264 175.218 95.489C175.868 95.8517 176.375 96.3584 176.738 97.009C177.111 97.6597 177.298 98.3957 177.298 99.217C177.298 100.038 177.111 100.774 176.738 101.425C176.375 102.076 175.868 102.588 175.218 102.961C174.567 103.324 173.836 103.505 173.026 103.505ZM173.026 102.497C173.623 102.497 174.156 102.364 174.626 102.097C175.106 101.82 175.479 101.43 175.746 100.929C176.012 100.428 176.146 99.857 176.146 99.217C176.146 98.577 176.012 98.0064 175.746 97.505C175.479 97.0037 175.106 96.6197 174.626 96.353C174.156 96.0757 173.623 95.937 173.026 95.937C172.428 95.937 171.89 96.0757 171.41 96.353C170.94 96.6197 170.567 97.0037 170.289 97.505C170.023 98.0064 169.89 98.577 169.89 99.217C169.89 99.857 170.023 100.428 170.289 100.929C170.567 101.43 170.94 101.82 171.41 102.097C171.89 102.364 172.428 102.497 173.026 102.497ZM185.333 96.017H182.149V103.425H181.013V96.017H177.829V95.009H185.333V96.017ZM190.057 103.505C189.246 103.505 188.515 103.324 187.865 102.961C187.214 102.588 186.702 102.076 186.329 101.425C185.955 100.774 185.769 100.038 185.769 99.217C185.769 98.3957 185.955 97.6597 186.329 97.009C186.702 96.3584 187.214 95.8517 187.865 95.489C188.515 95.1264 189.246 94.945 190.057 94.945C190.867 94.945 191.598 95.1264 192.249 95.489C192.899 95.8517 193.406 96.3584 193.769 97.009C194.142 97.6597 194.329 98.3957 194.329 99.217C194.329 100.038 194.142 100.774 193.769 101.425C193.406 102.076 192.899 102.588 192.249 102.961C191.598 103.324 190.867 103.505 190.057 103.505ZM190.057 102.497C190.654 102.497 191.187 102.364 191.657 102.097C192.137 101.82 192.51 101.43 192.777 100.929C193.043 100.428 193.177 99.857 193.177 99.217C193.177 98.577 193.043 98.0064 192.777 97.505C192.51 97.0037 192.137 96.6197 191.657 96.353C191.187 96.0757 190.654 95.937 190.057 95.937C189.459 95.937 188.921 96.0757 188.441 96.353C187.971 96.6197 187.598 97.0037 187.321 97.505C187.054 98.0064 186.921 98.577 186.921 99.217C186.921 99.857 187.054 100.428 187.321 100.929C187.598 101.43 187.971 101.82 188.441 102.097C188.921 102.364 189.459 102.497 190.057 102.497ZM202.117 99.073C203.258 99.3397 203.829 100.028 203.829 101.137C203.829 101.873 203.557 102.438 203.013 102.833C202.469 103.228 201.658 103.425 200.581 103.425H196.757V95.009H200.469C201.429 95.009 202.181 95.1957 202.725 95.569C203.269 95.9424 203.541 96.4757 203.541 97.169C203.541 97.6277 203.413 98.0224 203.157 98.353C202.911 98.673 202.565 98.913 202.117 99.073ZM197.861 98.753H200.389C201.039 98.753 201.535 98.6304 201.877 98.385C202.229 98.1397 202.405 97.7824 202.405 97.313C202.405 96.8437 202.229 96.4917 201.877 96.257C201.535 96.0224 201.039 95.905 200.389 95.905H197.861V98.753ZM200.533 102.529C201.258 102.529 201.802 102.412 202.165 102.177C202.527 101.942 202.709 101.574 202.709 101.073C202.709 100.572 202.543 100.204 202.213 99.969C201.882 99.7237 201.359 99.601 200.645 99.601H197.861V102.529H200.533ZM213.371 95.009V103.425H212.235V96.017H208.203L208.091 98.097C208.006 99.8464 207.803 101.19 207.483 102.129C207.163 103.068 206.592 103.537 205.771 103.537C205.547 103.537 205.275 103.494 204.955 103.409L205.035 102.433C205.227 102.476 205.36 102.497 205.435 102.497C205.872 102.497 206.203 102.294 206.427 101.889C206.651 101.484 206.8 100.982 206.875 100.385C206.95 99.7877 207.014 98.9984 207.067 98.017L207.211 95.009H213.371ZM223.96 99.569H216.92C216.984 100.444 217.32 101.153 217.928 101.697C218.536 102.23 219.304 102.497 220.232 102.497C220.755 102.497 221.235 102.406 221.672 102.225C222.11 102.033 222.488 101.756 222.808 101.393L223.448 102.129C223.075 102.577 222.606 102.918 222.04 103.153C221.486 103.388 220.872 103.505 220.2 103.505C219.336 103.505 218.568 103.324 217.896 102.961C217.235 102.588 216.718 102.076 216.344 101.425C215.971 100.774 215.784 100.038 215.784 99.217C215.784 98.3957 215.96 97.6597 216.312 97.009C216.675 96.3584 217.166 95.8517 217.784 95.489C218.414 95.1264 219.118 94.945 219.896 94.945C220.675 94.945 221.374 95.1264 221.992 95.489C222.611 95.8517 223.096 96.3584 223.448 97.009C223.8 97.649 223.976 98.385 223.976 99.217L223.96 99.569ZM219.896 95.921C219.086 95.921 218.403 96.1824 217.848 96.705C217.304 97.217 216.995 97.889 216.92 98.721H222.888C222.814 97.889 222.499 97.217 221.944 96.705C221.4 96.1824 220.718 95.921 219.896 95.921ZM226.491 95.009H227.627V98.737H232.923V95.009H234.059V103.425H232.923V99.713H227.627V103.425H226.491V95.009ZM237.288 95.009H238.424V101.697L244.04 95.009H245.048V103.425H243.912V96.737L238.312 103.425H237.288V95.009ZM255.664 99.569H248.624C248.688 100.444 249.024 101.153 249.632 101.697C250.24 102.23 251.008 102.497 251.936 102.497C252.458 102.497 252.938 102.406 253.376 102.225C253.813 102.033 254.192 101.756 254.512 101.393L255.152 102.129C254.778 102.577 254.309 102.918 253.744 103.153C253.189 103.388 252.576 103.505 251.904 103.505C251.04 103.505 250.272 103.324 249.6 102.961C248.938 102.588 248.421 102.076 248.048 101.425C247.674 100.774 247.488 100.038 247.488 99.217C247.488 98.3957 247.664 97.6597 248.016 97.009C248.378 96.3584 248.869 95.8517 249.488 95.489C250.117 95.1264 250.821 94.945 251.6 94.945C252.378 94.945 253.077 95.1264 253.696 95.489C254.314 95.8517 254.8 96.3584 255.152 97.009C255.504 97.649 255.68 98.385 255.68 99.217L255.664 99.569ZM251.6 95.921C250.789 95.921 250.106 96.1824 249.552 96.705C249.008 97.217 248.698 97.889 248.624 98.721H254.592C254.517 97.889 254.202 97.217 253.648 96.705C253.104 96.1824 252.421 95.921 251.6 95.921Z" fill="#191F25"/>
<path d="M320.378 103.521C319.269 103.521 318.261 103.276 317.354 102.785C316.458 102.284 315.754 101.601 315.242 100.737C314.741 99.873 314.49 98.9024 314.49 97.825C314.49 96.7477 314.741 95.777 315.242 94.913C315.754 94.049 316.458 93.3717 317.354 92.881C318.261 92.3797 319.269 92.129 320.378 92.129C321.487 92.129 322.485 92.3744 323.37 92.865C324.266 93.3557 324.97 94.0384 325.482 94.913C325.994 95.777 326.25 96.7477 326.25 97.825C326.25 98.9024 325.994 99.8784 325.482 100.753C324.97 101.617 324.266 102.294 323.37 102.785C322.485 103.276 321.487 103.521 320.378 103.521ZM320.378 102.465C321.263 102.465 322.063 102.268 322.778 101.873C323.493 101.468 324.053 100.913 324.458 100.209C324.863 99.4944 325.066 98.6997 325.066 97.825C325.066 96.9504 324.863 96.161 324.458 95.457C324.053 94.7424 323.493 94.1877 322.778 93.793C322.063 93.3877 321.263 93.185 320.378 93.185C319.493 93.185 318.687 93.3877 317.962 93.793C317.247 94.1877 316.682 94.7424 316.266 95.457C315.861 96.161 315.658 96.9504 315.658 97.825C315.658 98.6997 315.861 99.4944 316.266 100.209C316.682 100.913 317.247 101.468 317.962 101.873C318.687 102.268 319.493 102.465 320.378 102.465ZM334.489 96.017H331.305V103.425H330.169V96.017H326.985V95.009H334.489V96.017ZM343.684 95.009V103.425H342.548V96.017H337.268V103.425H336.132V95.009H343.684ZM351.249 94.945C352.038 94.945 352.753 95.1264 353.393 95.489C354.033 95.841 354.534 96.3424 354.897 96.993C355.26 97.6437 355.441 98.385 355.441 99.217C355.441 100.06 355.26 100.806 354.897 101.457C354.534 102.108 354.033 102.614 353.393 102.977C352.764 103.329 352.049 103.505 351.249 103.505C350.566 103.505 349.948 103.366 349.393 103.089C348.849 102.801 348.401 102.385 348.049 101.841V106.529H346.913V95.009H348.001V96.673C348.342 96.1184 348.79 95.6917 349.345 95.393C349.91 95.0944 350.545 94.945 351.249 94.945ZM351.169 102.497C351.756 102.497 352.289 102.364 352.769 102.097C353.249 101.82 353.622 101.43 353.889 100.929C354.166 100.428 354.305 99.857 354.305 99.217C354.305 98.577 354.166 98.0117 353.889 97.521C353.622 97.0197 353.249 96.6304 352.769 96.353C352.289 96.0757 351.756 95.937 351.169 95.937C350.572 95.937 350.033 96.0757 349.553 96.353C349.084 96.6304 348.71 97.0197 348.433 97.521C348.166 98.0117 348.033 98.577 348.033 99.217C348.033 99.857 348.166 100.428 348.433 100.929C348.71 101.43 349.084 101.82 349.553 102.097C350.033 102.364 350.572 102.497 351.169 102.497ZM360.731 94.945C361.829 94.945 362.672 95.2224 363.259 95.777C363.845 96.321 364.139 97.1317 364.139 98.209V103.425H363.051V102.113C362.795 102.55 362.416 102.892 361.915 103.137C361.424 103.382 360.837 103.505 360.155 103.505C359.216 103.505 358.469 103.281 357.915 102.833C357.36 102.385 357.083 101.793 357.083 101.057C357.083 100.342 357.339 99.7664 357.851 99.329C358.373 98.8917 359.2 98.673 360.331 98.673H363.003V98.161C363.003 97.4357 362.8 96.8864 362.395 96.513C361.989 96.129 361.397 95.937 360.619 95.937C360.085 95.937 359.573 96.0277 359.083 96.209C358.592 96.3797 358.171 96.6197 357.819 96.929L357.307 96.081C357.733 95.7184 358.245 95.441 358.843 95.249C359.44 95.0464 360.069 94.945 360.731 94.945ZM360.331 102.609C360.971 102.609 361.52 102.465 361.979 102.177C362.437 101.878 362.779 101.452 363.003 100.897V99.521H360.363C358.923 99.521 358.203 100.022 358.203 101.025C358.203 101.516 358.389 101.905 358.763 102.193C359.136 102.47 359.659 102.609 360.331 102.609ZM372.523 99.073C373.664 99.3397 374.235 100.028 374.235 101.137C374.235 101.873 373.963 102.438 373.419 102.833C372.875 103.228 372.064 103.425 370.987 103.425H367.163V95.009H370.875C371.835 95.009 372.587 95.1957 373.131 95.569C373.675 95.9424 373.947 96.4757 373.947 97.169C373.947 97.6277 373.819 98.0224 373.563 98.353C373.318 98.673 372.971 98.913 372.523 99.073ZM368.267 98.753H370.795C371.446 98.753 371.942 98.6304 372.283 98.385C372.635 98.1397 372.811 97.7824 372.811 97.313C372.811 96.8437 372.635 96.4917 372.283 96.257C371.942 96.0224 371.446 95.905 370.795 95.905H368.267V98.753ZM370.939 102.529C371.664 102.529 372.208 102.412 372.571 102.177C372.934 101.942 373.115 101.574 373.115 101.073C373.115 100.572 372.95 100.204 372.619 99.969C372.288 99.7237 371.766 99.601 371.051 99.601H368.267V102.529H370.939ZM379.953 99.681H378.033V103.425H376.897V95.009H378.033V98.705H379.969L382.929 95.009H384.161L380.849 99.089L384.401 103.425H383.057L379.953 99.681ZM388.934 94.945C390.033 94.945 390.875 95.2224 391.462 95.777C392.049 96.321 392.342 97.1317 392.342 98.209V103.425H391.254V102.113C390.998 102.55 390.619 102.892 390.118 103.137C389.627 103.382 389.041 103.505 388.358 103.505C387.419 103.505 386.673 103.281 386.118 102.833C385.563 102.385 385.286 101.793 385.286 101.057C385.286 100.342 385.542 99.7664 386.054 99.329C386.577 98.8917 387.403 98.673 388.534 98.673H391.206V98.161C391.206 97.4357 391.003 96.8864 390.598 96.513C390.193 96.129 389.601 95.937 388.822 95.937C388.289 95.937 387.777 96.0277 387.286 96.209C386.795 96.3797 386.374 96.6197 386.022 96.929L385.51 96.081C385.937 95.7184 386.449 95.441 387.046 95.249C387.643 95.0464 388.273 94.945 388.934 94.945ZM388.534 102.609C389.174 102.609 389.723 102.465 390.182 102.177C390.641 101.878 390.982 101.452 391.206 100.897V99.521H388.566C387.126 99.521 386.406 100.022 386.406 101.025C386.406 101.516 386.593 101.905 386.966 102.193C387.339 102.47 387.862 102.609 388.534 102.609Z" fill="#191F25"/>
<circle cx="39.2182" cy="39.9059" r="38.9252" fill="#5B6A80"/>
<path fill-rule="evenodd" clip-rule="evenodd" d="M38.5297 15.1515C36.8194 15.4241 35.3673 16.4835 34.5736 18.0376L34.2924 18.5882L29.3875 18.6111C25.2116 18.6305 24.4223 18.6485 24.0765 18.7316C22.5258 19.1043 21.1781 20.1632 20.4619 21.5719C20.184 22.1183 20.0126 22.7906 19.9476 23.5886C19.9058 24.1026 19.8908 29.8431 19.9041 40.3045L19.9244 56.2375L20.0622 56.7515C20.5929 58.7309 22.0305 60.1573 24.001 60.6599L24.5452 60.7988H39.2598H53.9744L54.5055 60.6581C56.096 60.2369 57.3521 59.222 58.0349 57.8066C58.5886 56.6586 58.5357 58.5722 58.5357 39.7109V22.9968L58.392 22.5005C57.9312 20.9092 56.8001 19.6507 55.2553 19.0106C54.323 18.6242 54.4912 18.6352 49.1139 18.6083L44.1907 18.5837L44.0378 18.238C43.5803 17.2034 42.6013 16.1815 41.559 15.6504C40.7339 15.2301 39.4073 15.0116 38.5297 15.1515ZM39.8824 18.7473C40.2635 18.8817 40.5831 19.1598 40.7938 19.54C40.9761 19.8692 40.9783 19.8847 40.9986 21.013L41.0192 22.1533H42.7638H44.5083V23.9028V25.6523H39.2598H34.0113L34.0096 25.5118C34.0088 25.4344 34.0049 24.6542 34.0012 23.7779L33.9944 22.1846L35.7523 22.1679L37.5103 22.1514V21.1013C37.5103 19.9093 37.5695 19.639 37.92 19.2294C38.24 18.8555 38.6885 18.6543 39.2017 18.6543C39.4312 18.6543 39.7375 18.6961 39.8824 18.7473ZM30.4498 25.6525V29.1518L39.2442 29.1359L48.0386 29.1201L48.0534 25.7773C48.0616 23.9388 48.0686 22.3713 48.069 22.2939L48.0698 22.1533L50.8972 22.1539L53.7245 22.1546L54.0369 22.3006C54.2087 22.3811 54.4669 22.5749 54.6107 22.7315C55.1087 23.274 55.0679 21.7571 55.0679 39.7109C55.0679 57.6565 55.1082 56.1494 54.6135 56.6861C54.4713 56.8404 54.2412 57.0275 54.1022 57.1019L53.8495 57.2373H39.2598H24.6701L24.3265 57.0446C23.953 56.8351 23.6262 56.4259 23.5163 56.0299C23.4735 55.8762 23.4528 50.4529 23.4535 39.6484C23.4545 23.556 23.4549 23.4957 23.5812 23.2173C23.7856 22.7666 23.9876 22.5512 24.3981 22.3461L24.7838 22.1533H27.6168H30.4498V25.6525ZM43.6648 38.9612C40.2971 42.3289 37.5257 45.0844 37.5061 45.0844C37.4865 45.0844 36.3055 43.9182 34.8817 42.4927C33.4579 41.0673 32.2646 39.9004 32.2299 39.8997C32.1952 39.899 31.6189 40.4468 30.9494 41.117L29.7319 42.3357L33.6211 46.225L37.5103 50.1141L44.8987 42.7258L52.2872 35.3373L51.0375 34.0876L49.7878 32.8379L43.6648 38.9612Z" fill="white"/>
<circle cx="196.359" cy="39.9059" r="38.9252" fill="#5B6A80"/>
<circle cx="350.363" cy="39.9059" r="38.9252" fill="#5B6A80"/>
<line x1="65.6582" y1="42.3214" x2="165.867" y2="42.3214" stroke="#5B6A80" stroke-opacity="0.35" stroke-width="5.28782" stroke-dasharray="12.78 12.78"/>
<line x1="222.682" y1="42.3214" x2="322.891" y2="42.3214" stroke="#5B6A80" stroke-opacity="0.35" stroke-width="5.28782" stroke-dasharray="12.78 12.78"/>
<path d="M359.145 22.1212C358.905 22.1277 358.672 22.2059 358.477 22.3457C358.281 22.4856 358.132 22.6807 358.049 22.9059C357.965 23.1312 357.951 23.3763 358.007 23.6098C358.064 23.8433 358.19 24.0544 358.367 24.2161L362.156 27.7537H351.568V24.5423H355.181C355.341 24.5445 355.499 24.515 355.647 24.4555C355.795 24.396 355.93 24.3077 356.044 24.1956C356.157 24.0836 356.247 23.95 356.309 23.8028C356.371 23.6556 356.402 23.4976 356.402 23.338C356.402 23.1784 356.371 23.0204 356.309 22.8731C356.247 22.7259 356.157 22.5924 356.044 22.4803C355.93 22.3683 355.795 22.2799 355.647 22.2204C355.499 22.1609 355.341 22.1314 355.181 22.1337H341.532C341.491 22.1315 341.449 22.1315 341.407 22.1337C341.143 22.1621 340.896 22.2768 340.705 22.4599L334.683 28.0798C334.564 28.1928 334.469 28.329 334.404 28.48C334.339 28.631 334.306 28.7937 334.307 28.958V53.0436C334.305 53.2032 334.334 53.3616 334.393 53.5097C334.453 53.6578 334.541 53.7926 334.653 53.9062C334.765 54.0199 334.899 54.1101 335.046 54.1717C335.193 54.2333 335.351 54.265 335.511 54.265C335.671 54.265 335.829 54.2333 335.976 54.1717C336.123 54.1101 336.257 54.0199 336.369 53.9062C336.481 53.7926 336.569 53.6578 336.629 53.5097C336.688 53.3616 336.718 53.2032 336.715 53.0436V30.1622H364.012V51.8393H339.525C339.366 51.8371 339.207 51.8665 339.059 51.926C338.911 51.9856 338.776 52.0739 338.663 52.186C338.549 52.298 338.459 52.4315 338.397 52.5788C338.336 52.726 338.304 52.884 338.304 53.0436C338.304 53.2032 338.336 53.3612 338.397 53.5084C338.459 53.6557 338.549 53.7892 338.663 53.9012C338.776 54.0133 338.911 54.1016 339.059 54.1611C339.207 54.2206 339.366 54.2501 339.525 54.2479H365.217C365.536 54.2478 365.842 54.121 366.068 53.8951C366.294 53.6693 366.421 53.363 366.421 53.0436V28.958C366.421 28.7937 366.388 28.631 366.324 28.48C366.259 28.329 366.164 28.1928 366.045 28.0798L360.023 22.4599C359.907 22.3473 359.769 22.2594 359.619 22.2012C359.468 22.143 359.307 22.1158 359.145 22.1212ZM342.009 24.5423H349.16V27.7537H338.572L342.009 24.5423ZM350.351 32.9471C350.192 32.9488 350.035 32.982 349.888 33.0448C349.742 33.1076 349.61 33.1989 349.499 33.3132C349.388 33.4275 349.301 33.5627 349.243 33.7109C349.185 33.859 349.156 34.0173 349.16 34.1765V44.5634L346.462 41.4147C346.333 41.2586 346.166 41.1376 345.978 41.063C345.789 40.9885 345.585 40.9627 345.384 40.9882C345.166 41.0152 344.96 41.1012 344.787 41.237C344.615 41.3727 344.483 41.5529 344.405 41.7583C344.328 41.9636 344.308 42.1862 344.347 42.402C344.387 42.6178 344.485 42.8187 344.631 42.9828L349.448 48.6028C349.561 48.7352 349.702 48.8414 349.86 48.9143C350.018 48.9872 350.19 49.0249 350.364 49.0249C350.538 49.0249 350.71 48.9872 350.868 48.9143C351.026 48.8414 351.167 48.7352 351.28 48.6028L356.097 42.9828C356.2 42.8626 356.279 42.7232 356.329 42.5725C356.378 42.4218 356.398 42.2628 356.386 42.1046C356.374 41.9464 356.331 41.7921 356.259 41.6506C356.187 41.5091 356.088 41.3832 355.968 41.28C355.847 41.1768 355.707 41.0984 355.557 41.0494C355.406 41.0003 355.247 40.9815 355.088 40.994C354.93 41.0065 354.776 41.0501 354.635 41.1223C354.494 41.1945 354.368 41.2939 354.265 41.4147L351.568 44.5634V34.1765C351.571 34.0152 351.542 33.8549 351.483 33.705C351.423 33.5552 351.333 33.4189 351.22 33.3042C351.106 33.1895 350.971 33.0989 350.822 33.0375C350.673 32.9762 350.513 32.9454 350.351 32.9471Z" fill="white"/>
<path fill-rule="evenodd" clip-rule="evenodd" d="M181.271 15.1459C180.976 15.2085 180.574 15.3973 180.211 15.6438C179.792 15.9282 178.628 17.0266 177.109 18.5708C174.668 21.0523 173.469 22.3678 173.283 22.7679C173.116 23.126 173.039 23.6429 173.072 24.1829C173.111 24.8213 173.26 25.2441 173.587 25.6401C174.228 26.4171 175.959 28.1825 182.715 34.9495L189.921 42.1677L185.257 46.8261C180.244 51.8339 178.635 53.4886 178.321 53.9582C178.066 54.3401 178.059 54.5366 178.287 54.8811C178.562 55.2971 181.1 57.9012 182.42 59.122C182.956 59.618 183.344 59.8411 183.573 59.7853C184.015 59.6774 184.411 59.3024 190.468 53.2615L195.748 47.9949L202.8 55.0348C209.476 61.6992 211.389 63.575 212.142 64.196C212.61 64.582 213.003 64.702 213.803 64.7026C214.675 64.7032 214.998 64.5944 215.588 64.1018C216.978 62.9402 220.92 59.0233 221.966 57.7645C222.287 57.3784 222.49 56.9766 222.62 56.4697C222.782 55.8395 222.617 54.9287 222.238 54.3631C221.855 53.7903 220.677 52.5805 213.338 45.2277L205.931 37.8062L209.575 34.1622L213.219 30.5182L214.762 27.4787C217.535 22.0167 217.781 21.4377 217.556 20.9001C217.447 20.6375 217.191 20.3247 217.009 20.2308C216.796 20.1203 216.225 20.0832 215.899 20.1585C215.383 20.2775 213.614 21.2022 208.373 24.0931L207.654 24.4899L203.876 28.2323L200.098 31.9746L193.048 24.9383C186.387 18.2903 184.551 16.4895 183.655 15.725C183.337 15.4537 183.202 15.376 182.862 15.2675C182.409 15.1229 181.652 15.065 181.271 15.1459ZM182.331 17.3918C183.298 18.1891 186.405 21.2518 198.778 33.6031C207.7 42.5096 217.866 52.739 219.218 54.1701C220.385 55.4061 220.665 55.7453 220.665 55.9207C220.665 56.1596 220.246 56.6368 218.289 58.6248C215.133 61.8309 214.273 62.6188 213.858 62.6862C213.526 62.7401 213.409 62.6734 212.714 62.0297L212.348 61.6906L213.072 60.9275L213.796 60.1644L213.103 59.4713L212.41 58.7783L211.676 59.5116L210.941 60.2449L210.207 59.5116L209.472 58.7784L210.89 57.3595C211.67 56.5791 212.309 55.9182 212.309 55.8909C212.309 55.8252 210.932 54.4472 210.866 54.4472C210.838 54.4472 210.177 55.0854 209.396 55.8654L207.977 57.2837L207.281 56.5865L206.586 55.8893L207.32 55.1562L208.054 54.4231L207.333 53.7008C206.937 53.3035 206.589 52.9784 206.56 52.9784C206.532 52.9784 206.19 53.2975 205.801 53.6875L205.093 54.3965L204.396 53.7006L203.698 53.0048L205.142 51.5603L206.586 50.116L205.851 49.3825L205.117 48.6492L203.673 50.0918L202.23 51.5345L201.483 50.7879L200.737 50.0414L201.47 49.3066L202.204 48.5718L201.508 47.8761L200.812 47.1803L200.078 47.9138L199.343 48.6473L198.596 47.9008L197.85 47.1542L199.292 45.7109L200.735 44.2676L200.002 43.5329L199.268 42.7982L197.824 44.2419L196.379 45.6857L195.682 44.9872L194.985 44.2887L195.145 44.1387C195.532 43.7752 196.304 42.8755 196.304 42.7876C196.304 42.6527 195.134 41.4817 194.999 41.4817C194.888 41.4817 194.564 41.7529 193.898 42.4023L193.492 42.7982L192.796 42.1014L192.101 41.4047L193.519 39.9875C194.299 39.208 194.937 38.5476 194.937 38.5199C194.937 38.4537 193.561 37.0755 193.495 37.0755C193.466 37.0755 192.805 37.7137 192.025 38.4937L190.606 39.912L189.872 39.1775L189.139 38.443L189.873 37.7084L190.606 36.9738L189.91 36.2781L189.214 35.5823L188.48 36.3158L187.745 37.0493L186.998 36.3028L186.252 35.5562L187.694 34.1129L189.137 32.6696L188.404 31.9349L187.67 31.2002L186.226 32.644L184.781 34.0877L184.087 33.3912L183.393 32.6946L184.108 31.9437L184.824 31.1927L184.095 30.4623L183.366 29.7317L182.63 30.4662L181.894 31.2006L181.202 30.5042L180.51 29.8078L181.902 28.3173L183.294 26.8269L182.621 26.1522C182.251 25.7811 181.925 25.4775 181.897 25.4775C181.868 25.4775 181.207 26.1157 180.427 26.8958L179.008 28.314L178.274 27.5795L177.541 26.845L178.274 26.1106L179.007 25.3763L178.325 24.6925C177.95 24.3164 177.63 24.0088 177.616 24.0088C177.601 24.0088 177.252 24.3311 176.839 24.725L176.09 25.4412L175.752 25.0704C175.105 24.3623 175.046 24.2592 175.1 23.9278C175.144 23.6545 175.509 23.1898 176.48 22.17C177.657 20.9332 181.02 17.6531 181.416 17.3555C181.825 17.0478 181.918 17.0515 182.331 17.3918ZM214.414 23.5656C214.295 23.8233 213.746 24.9339 213.196 26.0336L212.195 28.033L211.218 27.0395C210.354 26.1612 209.922 25.6605 209.984 25.6118C210.117 25.5085 214.538 23.0992 214.597 23.0979C214.617 23.0975 214.534 23.3079 214.414 23.5656ZM209.585 28.4023L210.993 29.8078L207.726 33.0743L204.458 36.3409L203.012 34.8949L201.566 33.4489L204.809 30.2229C206.593 28.4486 208.08 26.9969 208.115 26.9969C208.149 26.9969 208.811 27.6294 209.585 28.4023ZM192.848 45.0905L194.278 46.5215L190.328 50.4714L186.378 54.4214L184.934 52.9784L183.491 51.5355L187.428 47.5975C189.594 45.4316 191.378 43.6595 191.392 43.6595C191.406 43.6595 192.061 44.3034 192.848 45.0905ZM183.479 54.4603L184.909 55.8915L184.175 56.625L183.44 57.3583L181.997 55.9159L180.554 54.4735L181.275 53.7513C181.671 53.3541 182.007 53.0291 182.022 53.0291C182.036 53.0291 182.692 53.6731 183.479 54.4603Z" fill="white"/>
</svg>
